<?xml version="1.0" encoding="UTF-8"?>
<svg id="Layer_1" data-name="Layer 1" xmlns="http://www.w3.org/2000/svg" viewBox="0 0 420 404">
  <defs>
    <style>
      .cls-1 {
        fill: #555;
      }

      .cls-2, .cls-3, .cls-4 {
        fill: #fff;
      }

      .cls-3 {
        opacity: .8;
      }

      .cls-4 {
        stroke: #a0cdde;
        stroke-width: .75px;
      }

      .cls-4, .cls-5 {
        stroke-miterlimit: 10;
      }

      .cls-6 {
        fill: #1944a9;
      }

      .cls-5 {
        fill: none;
        stroke: #d3d3d3;
      }

      .cls-7 {
        fill: #1947a9;
      }

      .cls-8 {
        fill: #31b4ee;
      }
    </style>
  </defs>
  <rect class="cls-3" y="3" width="420" height="397" rx="4" ry="4"/>
  <g>
    <path class="cls-7" d="M168.33,24.41v17.21h-2.22V24.41h2.22Z"/>
    <path class="cls-7" d="M173.16,32.6c0-1.28-.03-2.32-.1-3.34h1.99l.13,2.04h.05c.61-1.17,2.04-2.32,4.08-2.32,1.71,0,4.37,1.02,4.37,5.26v7.38h-2.25v-7.12c0-1.99-.74-3.65-2.86-3.65-1.48,0-2.63,1.05-3.01,2.3-.1,.28-.15,.66-.15,1.05v7.43h-2.25v-9.01Z"/>
    <path class="cls-7" d="M198.74,29.26c-.05,.89-.1,1.89-.1,3.4v7.17c0,2.83-.56,4.57-1.76,5.64-1.2,1.12-2.94,1.48-4.49,1.48s-3.11-.36-4.11-1.02l.56-1.71c.82,.51,2.09,.97,3.62,.97,2.3,0,3.98-1.2,3.98-4.31v-1.38h-.05c-.69,1.15-2.02,2.07-3.93,2.07-3.06,0-5.26-2.6-5.26-6.02,0-4.19,2.73-6.56,5.56-6.56,2.14,0,3.32,1.12,3.85,2.14h.05l.1-1.86h1.97Zm-2.32,4.88c0-.38-.03-.71-.13-1.02-.41-1.3-1.51-2.37-3.14-2.37-2.14,0-3.68,1.81-3.68,4.67,0,2.42,1.23,4.44,3.65,4.44,1.38,0,2.63-.87,3.11-2.3,.13-.38,.18-.82,.18-1.2v-2.22Z"/>
    <path class="cls-7" d="M202.98,33.12c0-1.46-.03-2.71-.1-3.85h1.97l.08,2.43h.1c.56-1.66,1.91-2.71,3.42-2.71,.26,0,.43,.03,.64,.08v2.12c-.23-.05-.46-.08-.77-.08-1.58,0-2.71,1.2-3.01,2.88-.05,.31-.1,.66-.1,1.05v6.59h-2.22v-8.5Z"/>
    <path class="cls-7" d="M213.09,35.85c.05,3.04,1.99,4.29,4.24,4.29,1.61,0,2.58-.28,3.42-.64l.38,1.61c-.79,.36-2.14,.77-4.11,.77-3.8,0-6.08-2.5-6.08-6.23s2.2-6.66,5.79-6.66c4.03,0,5.11,3.55,5.11,5.82,0,.46-.05,.82-.08,1.05h-8.68Zm6.59-1.61c.03-1.43-.59-3.65-3.11-3.65-2.27,0-3.27,2.09-3.45,3.65h6.56Z"/>
    <path class="cls-7" d="M225.1,39.32c.66,.43,1.84,.89,2.96,.89,1.63,0,2.4-.82,2.4-1.84,0-1.07-.64-1.66-2.3-2.27-2.22-.79-3.27-2.02-3.27-3.5,0-1.99,1.61-3.62,4.26-3.62,1.25,0,2.35,.36,3.04,.77l-.56,1.63c-.49-.31-1.38-.71-2.53-.71-1.33,0-2.07,.77-2.07,1.69,0,1.02,.74,1.48,2.35,2.09,2.14,.82,3.24,1.89,3.24,3.73,0,2.17-1.68,3.7-4.62,3.7-1.35,0-2.6-.33-3.47-.84l.56-1.71Z"/>
    <path class="cls-7" d="M243.12,41.62l-.18-1.56h-.08c-.69,.97-2.02,1.84-3.78,1.84-2.5,0-3.78-1.76-3.78-3.55,0-2.99,2.66-4.62,7.43-4.6v-.25c0-1.02-.28-2.86-2.81-2.86-1.15,0-2.35,.36-3.22,.92l-.51-1.48c1.02-.66,2.5-1.1,4.06-1.1,3.78,0,4.7,2.58,4.7,5.05v4.62c0,1.07,.05,2.12,.2,2.96h-2.04Zm-.33-6.31c-2.45-.05-5.23,.38-5.23,2.78,0,1.46,.97,2.14,2.12,2.14,1.61,0,2.63-1.02,2.99-2.07,.08-.23,.13-.48,.13-.71v-2.14Z"/>
    <path class="cls-7" d="M249.35,33.12c0-1.46-.03-2.71-.1-3.85h1.97l.08,2.43h.1c.56-1.66,1.91-2.71,3.42-2.71,.26,0,.43,.03,.64,.08v2.12c-.23-.05-.46-.08-.77-.08-1.58,0-2.71,1.2-3.01,2.88-.05,.31-.1,.66-.1,1.05v6.59h-2.22v-8.5Z"/>
  </g>
  <rect class="cls-6" x="374.97" y="216" width="25" height="24" rx="4" ry="4"/>
  <rect class="cls-4" x="31.27" y="220.87" width="16.56" height="16" rx="2" ry="2"/>
  <g>
    <rect class="cls-6" x="125" y="316.75" width="170" height="31.25" rx="4" ry="4"/>
    <g>
      <path class="cls-2" d="M134.62,329.16c.55-.11,1.35-.18,2.1-.18,1.17,0,1.92,.21,2.45,.69,.43,.38,.67,.96,.67,1.61,0,1.12-.7,1.86-1.6,2.16v.04c.65,.23,1.04,.83,1.24,1.71,.28,1.18,.48,2,.65,2.33h-1.13c-.14-.24-.33-.97-.57-2.02-.25-1.17-.7-1.61-1.7-1.65h-1.03v3.67h-1.09v-8.36Zm1.09,3.86h1.12c1.17,0,1.91-.64,1.91-1.61,0-1.09-.79-1.57-1.95-1.58-.53,0-.91,.05-1.08,.1v3.09Z"/>
      <path class="cls-2" d="M142.38,334.68c.02,1.5,.98,2.11,2.09,2.11,.79,0,1.27-.14,1.68-.31l.19,.79c-.39,.18-1.06,.38-2.02,.38-1.87,0-2.99-1.23-2.99-3.07s1.08-3.28,2.85-3.28c1.99,0,2.51,1.75,2.51,2.87,0,.23-.03,.4-.04,.52h-4.27Zm3.24-.79c.01-.7-.29-1.8-1.53-1.8-1.12,0-1.61,1.03-1.7,1.8h3.23Z"/>
      <path class="cls-2" d="M152.78,337.29c-.29,.15-.93,.35-1.75,.35-1.84,0-3.03-1.25-3.03-3.11s1.28-3.23,3.27-3.23c.65,0,1.23,.16,1.53,.31l-.25,.85c-.26-.15-.68-.29-1.28-.29-1.4,0-2.15,1.03-2.15,2.3,0,1.41,.91,2.28,2.11,2.28,.63,0,1.04-.16,1.36-.3l.19,.83Z"/>
      <path class="cls-2" d="M159.54,335.86c0,.63,.01,1.18,.05,1.66h-.98l-.06-.99h-.02c-.29,.49-.93,1.13-2.01,1.13-.96,0-2.1-.53-2.1-2.67v-3.56h1.11v3.37c0,1.16,.35,1.94,1.36,1.94,.74,0,1.26-.52,1.46-1.01,.06-.16,.1-.37,.1-.57v-3.73h1.11v4.43Z"/>
      <path class="cls-2" d="M161.75,333.42c0-.78-.03-1.41-.05-1.99h.99l.05,1.04h.03c.45-.74,1.17-1.18,2.16-1.18,1.47,0,2.58,1.24,2.58,3.09,0,2.19-1.33,3.27-2.77,3.27-.8,0-1.51-.35-1.87-.96h-.03v3.31h-1.09v-6.59Zm1.09,1.62c0,.16,.03,.31,.05,.45,.2,.77,.87,1.29,1.66,1.29,1.17,0,1.85-.96,1.85-2.35,0-1.22-.64-2.26-1.81-2.26-.75,0-1.46,.54-1.67,1.37-.04,.14-.08,.3-.08,.45v1.04Z"/>
      <path class="cls-2" d="M169.89,334.68c.02,1.5,.98,2.11,2.09,2.11,.79,0,1.27-.14,1.68-.31l.19,.79c-.39,.18-1.06,.38-2.02,.38-1.87,0-2.99-1.23-2.99-3.07s1.08-3.28,2.85-3.28c1.99,0,2.51,1.75,2.51,2.87,0,.23-.03,.4-.04,.52h-4.27Zm3.24-.79c.01-.7-.29-1.8-1.53-1.8-1.12,0-1.61,1.03-1.7,1.8h3.23Z"/>
      <path class="cls-2" d="M175.95,333.33c0-.72-.01-1.33-.05-1.9h.97l.04,1.19h.05c.28-.82,.94-1.33,1.68-1.33,.13,0,.21,.01,.31,.04v1.04c-.11-.03-.23-.04-.38-.04-.78,0-1.33,.59-1.48,1.42-.03,.15-.05,.33-.05,.52v3.24h-1.09v-4.19Z"/>
      <path class="cls-2" d="M183.74,337.52l-.09-.77h-.04c-.34,.48-.99,.91-1.86,.91-1.23,0-1.86-.87-1.86-1.75,0-1.47,1.31-2.28,3.66-2.26v-.13c0-.5-.14-1.41-1.38-1.41-.57,0-1.16,.18-1.58,.45l-.25-.73c.5-.33,1.23-.54,2-.54,1.86,0,2.31,1.27,2.31,2.49v2.28c0,.53,.02,1.04,.1,1.46h-1.01Zm-.16-3.11c-1.21-.03-2.58,.19-2.58,1.37,0,.72,.48,1.06,1.04,1.06,.79,0,1.3-.5,1.47-1.02,.04-.11,.06-.24,.06-.35v-1.06Z"/>
      <path class="cls-2" d="M186.81,333.33c0-.72-.01-1.33-.05-1.9h.97l.04,1.19h.05c.28-.82,.94-1.33,1.68-1.33,.13,0,.21,.01,.31,.04v1.04c-.11-.03-.23-.04-.38-.04-.78,0-1.33,.59-1.48,1.42-.02,.15-.05,.33-.05,.52v3.24h-1.09v-4.19Z"/>
      <path class="cls-2" d="M199.59,328.59v7.36c0,.54,.01,1.16,.05,1.57h-.99l-.05-1.06h-.02c-.34,.68-1.08,1.19-2.07,1.19-1.47,0-2.6-1.25-2.6-3.09-.01-2.02,1.25-3.27,2.73-3.27,.93,0,1.56,.44,1.84,.93h.02v-3.63h1.11Zm-1.11,5.32c0-.14-.01-.33-.05-.46-.16-.71-.77-1.28-1.6-1.28-1.14,0-1.82,1.01-1.82,2.35,0,1.23,.6,2.25,1.8,2.25,.74,0,1.42-.49,1.62-1.32,.04-.15,.05-.3,.05-.48v-1.06Z"/>
      <path class="cls-2" d="M205.17,337.52l-.09-.77h-.04c-.34,.48-.99,.91-1.86,.91-1.23,0-1.86-.87-1.86-1.75,0-1.47,1.31-2.28,3.66-2.26v-.13c0-.5-.14-1.41-1.38-1.41-.57,0-1.16,.18-1.58,.45l-.25-.73c.5-.33,1.23-.54,2-.54,1.86,0,2.31,1.27,2.31,2.49v2.28c0,.53,.02,1.04,.1,1.46h-1.01Zm-.16-3.11c-1.21-.03-2.58,.19-2.58,1.37,0,.72,.48,1.06,1.04,1.06,.79,0,1.3-.5,1.47-1.02,.04-.11,.06-.24,.06-.35v-1.06Z"/>
      <path class="cls-2" d="M209.52,329.69v1.75h1.58v.84h-1.58v3.28c0,.75,.21,1.18,.83,1.18,.29,0,.5-.04,.64-.08l.05,.83c-.21,.09-.55,.15-.98,.15-.52,0-.93-.16-1.19-.47-.31-.33-.43-.87-.43-1.58v-3.32h-.94v-.84h.94v-1.46l1.08-.29Z"/>
      <path class="cls-2" d="M218.15,334.43c0,2.25-1.56,3.23-3.03,3.23-1.65,0-2.92-1.21-2.92-3.13,0-2.04,1.33-3.23,3.02-3.23s2.93,1.27,2.93,3.13Zm-4.83,.06c0,1.33,.77,2.34,1.85,2.34s1.85-.99,1.85-2.36c0-1.03-.52-2.34-1.82-2.34s-1.87,1.21-1.87,2.36Z"/>
      <path class="cls-2" d="M219.77,336.39c.33,.21,.91,.44,1.46,.44,.8,0,1.18-.4,1.18-.91,0-.53-.31-.82-1.13-1.12-1.09-.39-1.61-.99-1.61-1.72,0-.98,.79-1.79,2.1-1.79,.62,0,1.16,.18,1.5,.38l-.28,.8c-.24-.15-.68-.35-1.25-.35-.65,0-1.02,.38-1.02,.83,0,.5,.36,.73,1.16,1.03,1.06,.4,1.6,.93,1.6,1.84,0,1.07-.83,1.82-2.28,1.82-.67,0-1.28-.16-1.71-.42l.28-.84Z"/>
      <path class="cls-2" d="M233.57,328.59v7.36c0,.54,.01,1.16,.05,1.57h-.99l-.05-1.06h-.03c-.34,.68-1.08,1.19-2.07,1.19-1.47,0-2.6-1.25-2.6-3.09-.01-2.02,1.25-3.27,2.73-3.27,.93,0,1.56,.44,1.84,.93h.03v-3.63h1.11Zm-1.11,5.32c0-.14-.01-.33-.05-.46-.16-.71-.77-1.28-1.6-1.28-1.14,0-1.82,1.01-1.82,2.35,0,1.23,.6,2.25,1.8,2.25,.74,0,1.42-.49,1.62-1.32,.04-.15,.05-.3,.05-.48v-1.06Z"/>
      <path class="cls-2" d="M236.4,334.68c.03,1.5,.98,2.11,2.09,2.11,.79,0,1.27-.14,1.68-.31l.19,.79c-.39,.18-1.06,.38-2.02,.38-1.87,0-2.99-1.23-2.99-3.07s1.08-3.28,2.85-3.28c1.99,0,2.51,1.75,2.51,2.87,0,.23-.03,.4-.04,.52h-4.27Zm3.24-.79c.01-.7-.29-1.8-1.53-1.8-1.12,0-1.61,1.03-1.7,1.8h3.23Z"/>
      <path class="cls-2" d="M246.73,329.72c.01,.38-.26,.68-.7,.68-.39,0-.67-.3-.67-.68s.29-.69,.69-.69,.68,.3,.68,.69Zm-1.23,7.8v-6.08h1.11v6.08h-1.11Z"/>
      <path class="cls-2" d="M248.81,333.08c0-.63-.01-1.14-.05-1.65h.98l.06,1.01h.02c.3-.58,1.01-1.14,2.01-1.14,.84,0,2.15,.5,2.15,2.59v3.63h-1.11v-3.51c0-.98-.36-1.8-1.41-1.8-.73,0-1.29,.52-1.48,1.13-.05,.14-.08,.33-.08,.52v3.66h-1.11v-4.44Z"/>
      <path class="cls-2" d="M261.41,331.43c-.02,.44-.05,.93-.05,1.67v3.53c0,1.4-.28,2.25-.87,2.78-.59,.55-1.45,.73-2.21,.73s-1.53-.18-2.02-.5l.28-.84c.4,.25,1.03,.48,1.79,.48,1.13,0,1.96-.59,1.96-2.12v-.68h-.03c-.34,.57-.99,1.02-1.94,1.02-1.51,0-2.59-1.28-2.59-2.97,0-2.06,1.35-3.23,2.74-3.23,1.06,0,1.63,.55,1.9,1.06h.03l.05-.92h.97Zm-1.14,2.4c0-.19-.01-.35-.06-.5-.2-.64-.74-1.17-1.55-1.17-1.06,0-1.81,.89-1.81,2.3,0,1.2,.6,2.19,1.8,2.19,.68,0,1.29-.43,1.53-1.13,.06-.19,.09-.4,.09-.59v-1.09Z"/>
      <path class="cls-2" d="M263.49,333.33c0-.72-.01-1.33-.05-1.9h.97l.04,1.19h.05c.28-.82,.94-1.33,1.68-1.33,.13,0,.21,.01,.31,.04v1.04c-.11-.03-.23-.04-.38-.04-.78,0-1.33,.59-1.48,1.42-.03,.15-.05,.33-.05,.52v3.24h-1.09v-4.19Z"/>
      <path class="cls-2" d="M268.47,334.68c.03,1.5,.98,2.11,2.09,2.11,.79,0,1.27-.14,1.68-.31l.19,.79c-.39,.18-1.06,.38-2.02,.38-1.87,0-2.99-1.23-2.99-3.07s1.08-3.28,2.85-3.28c1.99,0,2.51,1.75,2.51,2.87,0,.23-.03,.4-.04,.52h-4.28Zm3.24-.79c.01-.7-.29-1.8-1.53-1.8-1.12,0-1.61,1.03-1.7,1.8h3.23Z"/>
      <path class="cls-2" d="M274.38,336.39c.33,.21,.91,.44,1.46,.44,.8,0,1.18-.4,1.18-.91,0-.53-.31-.82-1.13-1.12-1.09-.39-1.61-.99-1.61-1.72,0-.98,.79-1.79,2.1-1.79,.62,0,1.16,.18,1.5,.38l-.28,.8c-.24-.15-.68-.35-1.25-.35-.65,0-1.02,.38-1.02,.83,0,.5,.36,.73,1.16,1.03,1.06,.4,1.6,.93,1.6,1.84,0,1.07-.83,1.82-2.28,1.82-.67,0-1.28-.16-1.71-.42l.28-.84Z"/>
      <path class="cls-2" d="M285.39,334.43c0,2.25-1.56,3.23-3.03,3.23-1.65,0-2.92-1.21-2.92-3.13,0-2.04,1.33-3.23,3.02-3.23s2.93,1.27,2.93,3.13Zm-4.83,.06c0,1.33,.77,2.34,1.85,2.34s1.85-.99,1.85-2.36c0-1.03-.52-2.34-1.82-2.34s-1.87,1.21-1.87,2.36Z"/>
    </g>
  </g>
  <g>
    <path class="cls-1" d="M70.44,234.33c-.52,.26-1.57,.52-2.91,.52-3.11,0-5.45-1.96-5.45-5.58s2.34-5.79,5.76-5.79c1.37,0,2.24,.29,2.62,.49l-.34,1.16c-.54-.26-1.31-.46-2.22-.46-2.58,0-4.3,1.65-4.3,4.55,0,2.7,1.55,4.43,4.24,4.43,.87,0,1.75-.18,2.32-.46l.29,1.13Z"/>
    <path class="cls-1" d="M73.28,230.99c.03,1.95,1.28,2.75,2.72,2.75,1.03,0,1.65-.18,2.19-.41l.25,1.03c-.51,.23-1.37,.49-2.63,.49-2.44,0-3.89-1.6-3.89-3.99s1.41-4.27,3.71-4.27c2.58,0,3.27,2.27,3.27,3.73,0,.29-.03,.52-.05,.67h-5.56Zm4.22-1.03c.02-.92-.38-2.34-2-2.34-1.46,0-2.09,1.34-2.21,2.34h4.2Z"/>
    <path class="cls-1" d="M81.17,229.24c0-.93-.02-1.73-.07-2.47h1.26l.05,1.55h.07c.36-1.06,1.23-1.73,2.19-1.73,.16,0,.28,.02,.41,.05v1.36c-.15-.03-.29-.05-.49-.05-1.01,0-1.73,.77-1.93,1.85-.03,.2-.07,.42-.07,.67v4.22h-1.42v-5.45Z"/>
    <path class="cls-1" d="M89.13,224.5v2.27h2.06v1.1h-2.06v4.27c0,.98,.28,1.54,1.08,1.54,.38,0,.65-.05,.83-.1l.07,1.08c-.28,.11-.72,.2-1.28,.2-.67,0-1.21-.21-1.55-.6-.41-.43-.56-1.13-.56-2.06v-4.32h-1.23v-1.1h1.23v-1.9l1.41-.38Z"/>
    <path class="cls-1" d="M94.91,224.55c.02,.49-.34,.88-.92,.88-.51,0-.87-.39-.87-.88s.38-.9,.9-.9,.88,.39,.88,.9Zm-1.6,10.14v-7.92h1.44v7.92h-1.44Z"/>
    <path class="cls-1" d="M97.77,234.69v-6.82h-1.11v-1.1h1.11v-.43c0-2.09,1.23-3.45,3.45-3.45,.74,0,1.6,.23,2.01,.52l-.41,1.1c-.34-.25-.97-.46-1.67-.46-1.52,0-1.96,1.06-1.96,2.32v.39h4.6v7.92h-1.42v-6.82h-3.17v6.82h-1.42Z"/>
    <path class="cls-1" d="M112.31,234.4c-.38,.2-1.21,.46-2.27,.46-2.39,0-3.94-1.62-3.94-4.04s1.67-4.2,4.25-4.2c.85,0,1.6,.21,2,.41l-.33,1.11c-.34-.2-.88-.38-1.67-.38-1.82,0-2.8,1.34-2.8,2.99,0,1.83,1.18,2.96,2.75,2.96,.82,0,1.36-.21,1.77-.39l.25,1.08Z"/>
    <path class="cls-1" d="M118.87,234.69l-.11-1h-.05c-.44,.62-1.29,1.18-2.42,1.18-1.6,0-2.42-1.13-2.42-2.27,0-1.91,1.7-2.96,4.76-2.94v-.16c0-.65-.18-1.83-1.8-1.83-.74,0-1.5,.23-2.06,.59l-.33-.95c.65-.43,1.6-.7,2.6-.7,2.42,0,3.01,1.65,3.01,3.24v2.96c0,.69,.03,1.36,.13,1.9h-1.31Zm-.21-4.04c-1.57-.03-3.35,.25-3.35,1.78,0,.93,.62,1.37,1.36,1.37,1.03,0,1.68-.65,1.91-1.32,.05-.15,.08-.31,.08-.46v-1.37Z"/>
    <path class="cls-1" d="M129.7,223.08v9.57c0,.7,.02,1.5,.07,2.04h-1.29l-.07-1.37h-.03c-.44,.88-1.41,1.55-2.7,1.55-1.91,0-3.39-1.62-3.39-4.02-.02-2.63,1.62-4.25,3.55-4.25,1.21,0,2.03,.57,2.39,1.21h.03v-4.73h1.44Zm-1.44,6.92c0-.18-.02-.43-.07-.61-.21-.92-1-1.67-2.08-1.67-1.49,0-2.37,1.31-2.37,3.06,0,1.6,.79,2.93,2.34,2.93,.96,0,1.85-.64,2.11-1.72,.05-.2,.07-.39,.07-.62v-1.37Z"/>
    <path class="cls-1" d="M139.74,230.67c0,2.93-2.03,4.2-3.94,4.2-2.14,0-3.79-1.57-3.79-4.07,0-2.65,1.73-4.2,3.93-4.2s3.81,1.65,3.81,4.07Zm-6.28,.08c0,1.73,1,3.04,2.4,3.04s2.4-1.29,2.4-3.08c0-1.34-.67-3.04-2.37-3.04s-2.44,1.57-2.44,3.08Z"/>
    <path class="cls-1" d="M146.06,223.81c.87-.13,1.9-.23,3.03-.23,2.04,0,3.5,.47,4.47,1.37,.98,.9,1.55,2.18,1.55,3.96s-.56,3.27-1.59,4.29c-1.03,1.03-2.73,1.59-4.87,1.59-1.01,0-1.86-.05-2.58-.13v-10.85Zm1.42,9.75c.36,.07,.88,.08,1.44,.08,3.04,0,4.69-1.7,4.69-4.68,.02-2.6-1.46-4.25-4.47-4.25-.74,0-1.29,.07-1.67,.15v8.7Z"/>
    <path class="cls-1" d="M158.99,224.55c.02,.49-.34,.88-.92,.88-.51,0-.87-.39-.87-.88s.38-.9,.9-.9,.88,.39,.88,.9Zm-1.6,10.14v-7.92h1.44v7.92h-1.44Z"/>
    <path class="cls-1" d="M168.53,226.77c-.03,.57-.07,1.21-.07,2.18v4.6c0,1.82-.36,2.93-1.13,3.61-.77,.72-1.88,.95-2.88,.95s-2-.23-2.63-.65l.36-1.1c.52,.33,1.34,.62,2.32,.62,1.47,0,2.55-.77,2.55-2.76v-.88h-.03c-.44,.74-1.29,1.32-2.52,1.32-1.96,0-3.37-1.67-3.37-3.86,0-2.68,1.75-4.2,3.57-4.2,1.37,0,2.13,.72,2.47,1.37h.03l.07-1.19h1.26Zm-1.49,3.12c0-.25-.02-.46-.08-.65-.26-.83-.97-1.52-2.01-1.52-1.37,0-2.36,1.16-2.36,2.99,0,1.55,.79,2.85,2.34,2.85,.88,0,1.69-.56,2-1.47,.08-.25,.11-.52,.11-.77v-1.42Z"/>
    <path class="cls-1" d="M172.85,224.55c.02,.49-.34,.88-.92,.88-.51,0-.87-.39-.87-.88s.38-.9,.9-.9,.88,.39,.88,.9Zm-1.6,10.14v-7.92h1.44v7.92h-1.44Z"/>
    <path class="cls-1" d="M177.3,224.5v2.27h2.06v1.1h-2.06v4.27c0,.98,.28,1.54,1.08,1.54,.38,0,.65-.05,.83-.1l.07,1.08c-.28,.11-.72,.2-1.28,.2-.67,0-1.21-.21-1.55-.6-.41-.43-.56-1.13-.56-2.06v-4.32h-1.23v-1.1h1.23v-1.9l1.41-.38Z"/>
    <path class="cls-1" d="M185.85,234.69l-.11-1h-.05c-.44,.62-1.29,1.18-2.42,1.18-1.6,0-2.42-1.13-2.42-2.27,0-1.91,1.7-2.96,4.76-2.94v-.16c0-.65-.18-1.83-1.8-1.83-.74,0-1.5,.23-2.06,.59l-.33-.95c.65-.43,1.6-.7,2.6-.7,2.42,0,3.01,1.65,3.01,3.24v2.96c0,.69,.03,1.36,.13,1.9h-1.31Zm-.21-4.04c-1.57-.03-3.35,.25-3.35,1.78,0,.93,.62,1.37,1.36,1.37,1.03,0,1.68-.65,1.91-1.32,.05-.15,.08-.31,.08-.46v-1.37Z"/>
    <path class="cls-1" d="M189.84,223.08h1.44v11.61h-1.44v-11.61Z"/>
  </g>
  <path class="cls-7" d="M36.59,94.99c3.31,0,6,2.69,6,6s-2.69,6-6,6-6-2.69-6-6,2.69-6,6-6Zm0-2.4c-4.64,0-8.4,3.76-8.4,8.4s3.76,8.4,8.4,8.4,8.4-3.76,8.4-8.4-3.76-8.4-8.4-8.4Zm7.65,15.62c-.6,.6-1.27,1.12-1.99,1.56,3.45,2.25,5.26,6.1,5.97,8.82H24.94c.69-2.75,2.47-6.61,5.97-8.84-.72-.45-1.4-.97-1.99-1.58-5.11,3.69-6.74,10.21-6.74,12.81h28.82c0-2.57-1.73-9.07-6.76-12.79Z"/>
  <path class="cls-7" d="M43.5,170.67v-4.46c0-3.31-2.21-6.34-5.45-7.04-4.54-.98-8.55,2.46-8.55,6.83v4.67h-3.5v16.33h21v-16.33h-3.5Zm-11.67-4.67c0-2.89,2.64-5.18,5.64-4.57,2.2,.45,3.69,2.51,3.69,4.75v4.48h-9.33v-4.67Zm12.83,18.67H28.33v-11.67h16.33v11.67Z"/>
  <path class="cls-2" d="M387.47,221.52c3.88,0,7.04,3.16,7.04,7.04s-3.16,7.04-7.04,7.04-7.04-3.16-7.04-7.04,3.16-7.04,7.04-7.04Zm0-1.41c-4.66,0-8.44,3.78-8.44,8.44s3.78,8.44,8.44,8.44,8.44-3.78,8.44-8.44-3.78-8.44-8.44-8.44Zm0,4.05c.49,0,.88,.39,.88,.88s-.39,.88-.88,.88-.88-.39-.88-.88,.39-.88,.88-.88Zm1.41,8.54h-2.81v-.7c.34-.13,.7-.14,.7-.52v-3.14c0-.38-.36-.43-.7-.56v-.7h2.11v4.41c0,.38,.36,.39,.7,.52v.7Z"/>
  <path class="cls-8" d="M395.28,162.37l-2.83,2.66c-1.08-.36-2.28-.59-3.59-.59-6.41,0-10.18,5.55-10.18,5.55,0,0,1.63,2.5,4.36,4.35l-2.47,2.46,1.2,1.2,14.72-14.43s-1.2-1.2-1.2-1.2Zm-5.1,4.9c-2.79-1.23-5.66,1.62-4.46,4.41l-1.46,1.45c-1.54-.98-2.73-2.25-3.44-3.1,1.26-1.4,4.08-3.89,8.03-3.89,.79,0,1.52,.1,2.21,.27,0,0-.88,.87-.88,.87Zm-2.44,6.3l4.31-4.23c.86,2.64-1.7,5.14-4.31,4.23Zm11.26-3.58s-3.6,6.31-10.15,6.31c-1.17,0-2.26-.25-3.26-.62l1.37-1.34c.61,.16,1.24,.27,1.9,.27,4.06,0,6.87-2.99,8.05-4.54-.62-.7-1.66-1.69-3.04-2.5l1.26-1.24c2.53,1.61,3.88,3.67,3.88,3.67Z"/>
  <line class="cls-5" x1="22" y1="64" x2="400" y2="64"/>
</svg>