<?xml version="1.0" encoding="UTF-8"?>
<svg id="Layer_1" data-name="Layer 1" xmlns="http://www.w3.org/2000/svg" viewBox="0 0 420 404">
  <defs>
    <style>
      .cls-1, .cls-2 {
        fill: #fff;
      }

      .cls-2 {
        opacity: .8;
      }

      .cls-3 {
        fill: #444;
      }

      .cls-4 {
        fill: #ccc;
      }

      .cls-5 {
        fill: none;
        stroke: #d3d3d3;
        stroke-miterlimit: 10;
      }

      .cls-6 {
        fill: #1947a9;
      }

      .cls-7 {
        fill: #31b4ee;
      }
    </style>
  </defs>
  <rect class="cls-2" y="3" width="420" height="397" rx="4" ry="4"/>
  <g>
    <path class="cls-6" d="M168.33,24.41v17.21h-2.22V24.41h2.22Z"/>
    <path class="cls-6" d="M173.16,32.6c0-1.28-.03-2.32-.1-3.34h1.99l.13,2.04h.05c.61-1.17,2.04-2.32,4.08-2.32,1.71,0,4.37,1.02,4.37,5.26v7.38h-2.25v-7.12c0-1.99-.74-3.65-2.86-3.65-1.48,0-2.63,1.05-3.01,2.3-.1,.28-.15,.66-.15,1.05v7.43h-2.25v-9.01Z"/>
    <path class="cls-6" d="M198.74,29.26c-.05,.89-.1,1.89-.1,3.4v7.17c0,2.83-.56,4.57-1.76,5.64-1.2,1.12-2.94,1.48-4.49,1.48s-3.12-.36-4.11-1.02l.56-1.71c.82,.51,2.09,.97,3.62,.97,2.3,0,3.98-1.2,3.98-4.31v-1.38h-.05c-.69,1.15-2.02,2.07-3.93,2.07-3.06,0-5.26-2.6-5.26-6.02,0-4.19,2.73-6.56,5.56-6.56,2.14,0,3.32,1.12,3.85,2.14h.05l.1-1.86h1.97Zm-2.32,4.88c0-.38-.03-.71-.13-1.02-.41-1.3-1.51-2.37-3.14-2.37-2.14,0-3.68,1.81-3.68,4.67,0,2.42,1.22,4.44,3.65,4.44,1.38,0,2.63-.87,3.11-2.3,.13-.38,.18-.82,.18-1.2v-2.22Z"/>
    <path class="cls-6" d="M202.98,33.12c0-1.46-.03-2.71-.1-3.85h1.96l.08,2.43h.1c.56-1.66,1.91-2.71,3.42-2.71,.26,0,.43,.03,.64,.08v2.12c-.23-.05-.46-.08-.77-.08-1.58,0-2.71,1.2-3.01,2.88-.05,.31-.1,.66-.1,1.05v6.59h-2.22v-8.5Z"/>
    <path class="cls-6" d="M213.09,35.85c.05,3.04,1.99,4.29,4.24,4.29,1.61,0,2.58-.28,3.42-.64l.38,1.61c-.79,.36-2.14,.77-4.11,.77-3.8,0-6.08-2.5-6.08-6.23s2.2-6.66,5.79-6.66c4.03,0,5.11,3.55,5.11,5.82,0,.46-.05,.82-.08,1.05h-8.68Zm6.59-1.61c.03-1.43-.59-3.65-3.11-3.65-2.27,0-3.27,2.09-3.45,3.65h6.56Z"/>
    <path class="cls-6" d="M225.1,39.32c.66,.43,1.84,.89,2.96,.89,1.63,0,2.4-.82,2.4-1.84,0-1.07-.64-1.66-2.3-2.27-2.22-.79-3.27-2.02-3.27-3.5,0-1.99,1.61-3.62,4.26-3.62,1.25,0,2.35,.36,3.04,.77l-.56,1.63c-.49-.31-1.38-.71-2.53-.71-1.33,0-2.07,.77-2.07,1.69,0,1.02,.74,1.48,2.35,2.09,2.14,.82,3.24,1.89,3.24,3.73,0,2.17-1.68,3.7-4.62,3.7-1.35,0-2.6-.33-3.47-.84l.56-1.71Z"/>
    <path class="cls-6" d="M243.12,41.62l-.18-1.56h-.08c-.69,.97-2.02,1.84-3.78,1.84-2.5,0-3.78-1.76-3.78-3.55,0-2.99,2.66-4.62,7.43-4.6v-.25c0-1.02-.28-2.86-2.81-2.86-1.15,0-2.35,.36-3.22,.92l-.51-1.48c1.02-.66,2.5-1.1,4.06-1.1,3.78,0,4.7,2.58,4.7,5.05v4.62c0,1.07,.05,2.12,.2,2.96h-2.04Zm-.33-6.31c-2.45-.05-5.23,.38-5.23,2.78,0,1.46,.97,2.14,2.12,2.14,1.61,0,2.63-1.02,2.99-2.07,.08-.23,.13-.48,.13-.71v-2.14Z"/>
    <path class="cls-6" d="M249.35,33.12c0-1.46-.03-2.71-.1-3.85h1.97l.08,2.43h.1c.56-1.66,1.91-2.71,3.42-2.71,.26,0,.43,.03,.64,.08v2.12c-.23-.05-.46-.08-.77-.08-1.58,0-2.71,1.2-3.01,2.88-.05,.31-.1,.66-.1,1.05v6.59h-2.22v-8.5Z"/>
  </g>
  <rect class="cls-4" x="125" y="347.75" width="170" height="31.25" rx="4" ry="4"/>
  <g>
    <path class="cls-1" d="M134.62,360.16c.55-.11,1.34-.18,2.1-.18,1.17,0,1.92,.21,2.45,.69,.43,.38,.67,.96,.67,1.61,0,1.12-.7,1.86-1.6,2.16v.04c.65,.23,1.04,.83,1.24,1.71,.28,1.18,.48,2,.65,2.33h-1.13c-.14-.24-.33-.97-.57-2.02-.25-1.17-.7-1.61-1.7-1.65h-1.03v3.67h-1.09v-8.36Zm1.09,3.86h1.12c1.17,0,1.91-.64,1.91-1.61,0-1.09-.79-1.57-1.95-1.58-.53,0-.91,.05-1.08,.1v3.09Z"/>
    <path class="cls-1" d="M142.38,365.68c.03,1.5,.98,2.11,2.09,2.11,.79,0,1.27-.14,1.68-.31l.19,.79c-.39,.18-1.06,.38-2.02,.38-1.87,0-2.99-1.23-2.99-3.07s1.08-3.28,2.85-3.28c1.99,0,2.51,1.75,2.51,2.87,0,.23-.03,.4-.04,.52h-4.27Zm3.24-.79c.01-.7-.29-1.8-1.53-1.8-1.12,0-1.61,1.03-1.7,1.8h3.23Z"/>
    <path class="cls-1" d="M152.78,368.29c-.29,.15-.93,.35-1.75,.35-1.83,0-3.03-1.25-3.03-3.11s1.28-3.23,3.27-3.23c.65,0,1.23,.16,1.53,.31l-.25,.85c-.26-.15-.68-.29-1.28-.29-1.4,0-2.15,1.03-2.15,2.3,0,1.41,.91,2.28,2.11,2.28,.63,0,1.04-.16,1.36-.3l.19,.83Z"/>
    <path class="cls-1" d="M159.54,366.86c0,.63,.01,1.18,.05,1.66h-.98l-.06-.99h-.03c-.29,.49-.93,1.13-2.01,1.13-.96,0-2.1-.53-2.1-2.67v-3.56h1.11v3.37c0,1.16,.35,1.94,1.36,1.94,.74,0,1.26-.52,1.46-1.01,.06-.16,.1-.37,.1-.57v-3.73h1.11v4.43Z"/>
    <path class="cls-1" d="M161.75,364.42c0-.78-.03-1.41-.05-1.99h.99l.05,1.04h.03c.45-.74,1.17-1.18,2.16-1.18,1.47,0,2.58,1.24,2.58,3.09,0,2.19-1.33,3.27-2.77,3.27-.8,0-1.51-.35-1.87-.96h-.03v3.31h-1.09v-6.59Zm1.09,1.62c0,.16,.03,.31,.05,.45,.2,.77,.87,1.29,1.66,1.29,1.17,0,1.85-.96,1.85-2.35,0-1.22-.64-2.26-1.81-2.26-.75,0-1.46,.54-1.67,1.37-.04,.14-.08,.3-.08,.45v1.04Z"/>
    <path class="cls-1" d="M169.89,365.68c.03,1.5,.98,2.11,2.09,2.11,.79,0,1.27-.14,1.68-.31l.19,.79c-.39,.18-1.06,.38-2.02,.38-1.87,0-2.99-1.23-2.99-3.07s1.08-3.28,2.85-3.28c1.99,0,2.51,1.75,2.51,2.87,0,.23-.03,.4-.04,.52h-4.27Zm3.24-.79c.01-.7-.29-1.8-1.53-1.8-1.12,0-1.61,1.03-1.7,1.8h3.23Z"/>
    <path class="cls-1" d="M175.95,364.33c0-.72-.01-1.33-.05-1.9h.97l.04,1.19h.05c.28-.82,.94-1.33,1.68-1.33,.13,0,.21,.01,.31,.04v1.04c-.11-.03-.23-.04-.38-.04-.78,0-1.33,.59-1.48,1.42-.03,.15-.05,.33-.05,.52v3.24h-1.09v-4.19Z"/>
    <path class="cls-1" d="M183.74,368.52l-.09-.77h-.04c-.34,.48-.99,.91-1.86,.91-1.23,0-1.86-.87-1.86-1.75,0-1.47,1.31-2.28,3.66-2.26v-.13c0-.5-.14-1.41-1.38-1.41-.57,0-1.16,.18-1.58,.45l-.25-.73c.5-.33,1.23-.54,2-.54,1.86,0,2.31,1.27,2.31,2.49v2.28c0,.53,.02,1.04,.1,1.46h-1.01Zm-.16-3.11c-1.21-.03-2.58,.19-2.58,1.37,0,.72,.48,1.06,1.04,1.06,.79,0,1.3-.5,1.47-1.02,.04-.11,.06-.24,.06-.35v-1.06Z"/>
    <path class="cls-1" d="M186.81,364.33c0-.72-.01-1.33-.05-1.9h.97l.04,1.19h.05c.28-.82,.94-1.33,1.68-1.33,.13,0,.21,.01,.31,.04v1.04c-.11-.03-.23-.04-.38-.04-.78,0-1.33,.59-1.48,1.42-.03,.15-.05,.33-.05,.52v3.24h-1.09v-4.19Z"/>
    <path class="cls-1" d="M199.59,359.59v7.36c0,.54,.01,1.16,.05,1.57h-.99l-.05-1.06h-.03c-.34,.68-1.08,1.19-2.07,1.19-1.47,0-2.6-1.25-2.6-3.09-.01-2.02,1.25-3.27,2.73-3.27,.93,0,1.56,.44,1.84,.93h.03v-3.63h1.11Zm-1.11,5.32c0-.14-.01-.33-.05-.46-.16-.71-.77-1.28-1.6-1.28-1.14,0-1.82,1.01-1.82,2.35,0,1.23,.6,2.25,1.8,2.25,.74,0,1.42-.49,1.62-1.32,.04-.15,.05-.3,.05-.48v-1.06Z"/>
    <path class="cls-1" d="M205.17,368.52l-.09-.77h-.04c-.34,.48-.99,.91-1.86,.91-1.23,0-1.86-.87-1.86-1.75,0-1.47,1.31-2.28,3.66-2.26v-.13c0-.5-.14-1.41-1.38-1.41-.57,0-1.16,.18-1.58,.45l-.25-.73c.5-.33,1.23-.54,2-.54,1.86,0,2.31,1.27,2.31,2.49v2.28c0,.53,.02,1.04,.1,1.46h-1.01Zm-.16-3.11c-1.21-.03-2.58,.19-2.58,1.37,0,.72,.48,1.06,1.04,1.06,.79,0,1.3-.5,1.47-1.02,.04-.11,.06-.24,.06-.35v-1.06Z"/>
    <path class="cls-1" d="M209.52,360.69v1.75h1.58v.84h-1.58v3.28c0,.75,.21,1.18,.83,1.18,.29,0,.5-.04,.64-.08l.05,.83c-.21,.09-.55,.15-.98,.15-.52,0-.93-.16-1.19-.47-.31-.33-.43-.87-.43-1.58v-3.32h-.94v-.84h.94v-1.46l1.08-.29Z"/>
    <path class="cls-1" d="M218.15,365.43c0,2.25-1.56,3.23-3.03,3.23-1.65,0-2.92-1.21-2.92-3.13,0-2.04,1.33-3.23,3.02-3.23s2.93,1.27,2.93,3.13Zm-4.83,.06c0,1.33,.77,2.34,1.85,2.34s1.85-.99,1.85-2.36c0-1.03-.52-2.34-1.82-2.34s-1.87,1.21-1.87,2.36Z"/>
    <path class="cls-1" d="M219.77,367.39c.33,.21,.91,.44,1.46,.44,.8,0,1.18-.4,1.18-.91,0-.53-.31-.82-1.13-1.12-1.09-.39-1.61-.99-1.61-1.72,0-.98,.79-1.79,2.1-1.79,.62,0,1.16,.18,1.5,.38l-.28,.8c-.24-.15-.68-.35-1.25-.35-.65,0-1.02,.38-1.02,.83,0,.5,.36,.73,1.16,1.03,1.06,.4,1.6,.93,1.6,1.84,0,1.07-.83,1.82-2.28,1.82-.67,0-1.28-.16-1.71-.42l.28-.84Z"/>
    <path class="cls-1" d="M233.57,359.59v7.36c0,.54,.01,1.16,.05,1.57h-.99l-.05-1.06h-.03c-.34,.68-1.08,1.19-2.07,1.19-1.47,0-2.6-1.25-2.6-3.09-.01-2.02,1.25-3.27,2.73-3.27,.93,0,1.56,.44,1.84,.93h.03v-3.63h1.11Zm-1.11,5.32c0-.14-.01-.33-.05-.46-.16-.71-.77-1.28-1.6-1.28-1.14,0-1.82,1.01-1.82,2.35,0,1.23,.6,2.25,1.8,2.25,.74,0,1.42-.49,1.62-1.32,.04-.15,.05-.3,.05-.48v-1.06Z"/>
    <path class="cls-1" d="M236.4,365.68c.03,1.5,.98,2.11,2.09,2.11,.79,0,1.27-.14,1.68-.31l.19,.79c-.39,.18-1.06,.38-2.02,.38-1.87,0-2.99-1.23-2.99-3.07s1.08-3.28,2.85-3.28c1.99,0,2.51,1.75,2.51,2.87,0,.23-.03,.4-.04,.52h-4.27Zm3.24-.79c.01-.7-.29-1.8-1.53-1.8-1.12,0-1.61,1.03-1.7,1.8h3.23Z"/>
    <path class="cls-1" d="M246.73,360.72c.01,.38-.26,.68-.7,.68-.39,0-.67-.3-.67-.68s.29-.69,.69-.69,.68,.3,.68,.69Zm-1.23,7.8v-6.08h1.11v6.08h-1.11Z"/>
    <path class="cls-1" d="M248.81,364.08c0-.63-.01-1.14-.05-1.65h.98l.06,1.01h.02c.3-.58,1.01-1.14,2.01-1.14,.84,0,2.15,.5,2.15,2.59v3.63h-1.11v-3.51c0-.98-.36-1.8-1.41-1.8-.73,0-1.29,.52-1.48,1.13-.05,.14-.08,.33-.08,.52v3.66h-1.11v-4.44Z"/>
    <path class="cls-1" d="M261.41,362.43c-.02,.44-.05,.93-.05,1.67v3.53c0,1.4-.28,2.25-.87,2.78-.59,.55-1.45,.73-2.21,.73s-1.53-.18-2.02-.5l.28-.84c.4,.25,1.03,.48,1.79,.48,1.13,0,1.96-.59,1.96-2.12v-.68h-.03c-.34,.57-.99,1.02-1.94,1.02-1.51,0-2.59-1.28-2.59-2.97,0-2.06,1.35-3.23,2.74-3.23,1.06,0,1.63,.55,1.9,1.06h.03l.05-.92h.97Zm-1.14,2.4c0-.19-.01-.35-.06-.5-.2-.64-.74-1.17-1.55-1.17-1.06,0-1.81,.89-1.81,2.3,0,1.2,.6,2.19,1.8,2.19,.68,0,1.29-.43,1.53-1.13,.06-.19,.09-.4,.09-.59v-1.09Z"/>
    <path class="cls-1" d="M263.49,364.33c0-.72-.01-1.33-.05-1.9h.97l.04,1.19h.05c.28-.82,.94-1.33,1.68-1.33,.13,0,.21,.01,.31,.04v1.04c-.11-.03-.23-.04-.38-.04-.78,0-1.33,.59-1.48,1.42-.03,.15-.05,.33-.05,.52v3.24h-1.09v-4.19Z"/>
    <path class="cls-1" d="M268.47,365.68c.03,1.5,.98,2.11,2.09,2.11,.79,0,1.27-.14,1.68-.31l.19,.79c-.39,.18-1.06,.38-2.02,.38-1.87,0-2.99-1.23-2.99-3.07s1.08-3.28,2.85-3.28c1.99,0,2.51,1.75,2.51,2.87,0,.23-.03,.4-.04,.52h-4.28Zm3.24-.79c.01-.7-.29-1.8-1.53-1.8-1.12,0-1.61,1.03-1.7,1.8h3.23Z"/>
    <path class="cls-1" d="M274.38,367.39c.33,.21,.91,.44,1.46,.44,.8,0,1.18-.4,1.18-.91,0-.53-.31-.82-1.13-1.12-1.09-.39-1.61-.99-1.61-1.72,0-.98,.79-1.79,2.1-1.79,.62,0,1.16,.18,1.5,.38l-.28,.8c-.24-.15-.68-.35-1.25-.35-.65,0-1.02,.38-1.02,.83,0,.5,.36,.73,1.16,1.03,1.06,.4,1.6,.93,1.6,1.84,0,1.07-.83,1.82-2.28,1.82-.67,0-1.28-.16-1.71-.42l.28-.84Z"/>
    <path class="cls-1" d="M285.39,365.43c0,2.25-1.56,3.23-3.03,3.23-1.65,0-2.92-1.21-2.92-3.13,0-2.04,1.33-3.23,3.02-3.23s2.93,1.27,2.93,3.13Zm-4.83,.06c0,1.33,.77,2.34,1.85,2.34s1.85-.99,1.85-2.36c0-1.03-.52-2.34-1.82-2.34s-1.87,1.21-1.87,2.36Z"/>
  </g>
  <path class="cls-6" d="M36.59,179.99c3.31,0,6,2.69,6,6s-2.69,6-6,6-6-2.69-6-6,2.69-6,6-6Zm0-2.4c-4.64,0-8.4,3.76-8.4,8.4s3.76,8.4,8.4,8.4,8.4-3.76,8.4-8.4-3.76-8.4-8.4-8.4Zm7.65,15.62c-.6,.6-1.27,1.12-1.99,1.56,3.45,2.25,5.26,6.1,5.97,8.82H24.94c.69-2.75,2.47-6.61,5.97-8.84-.72-.45-1.4-.97-1.99-1.58-5.11,3.69-6.74,10.21-6.74,12.81h28.82c0-2.57-1.73-9.07-6.76-12.79Z"/>
  <path class="cls-6" d="M43.5,255.67v-4.46c0-3.31-2.21-6.34-5.45-7.04-4.54-.98-8.55,2.46-8.55,6.83v4.67h-3.5v16.33h21v-16.33h-3.5Zm-11.67-4.67c0-2.89,2.64-5.18,5.64-4.57,2.2,.45,3.69,2.51,3.69,4.75v4.48h-9.33v-4.67Zm12.83,18.67H28.33v-11.67h16.33v11.67Z"/>
  <path class="cls-7" d="M395.28,247.37l-2.83,2.66c-1.08-.36-2.28-.59-3.59-.59-6.41,0-10.18,5.55-10.18,5.55,0,0,1.63,2.5,4.36,4.35l-2.47,2.46,1.2,1.2,14.72-14.43s-1.2-1.2-1.2-1.2Zm-5.1,4.9c-2.79-1.23-5.66,1.62-4.46,4.41l-1.46,1.45c-1.54-.98-2.73-2.25-3.44-3.1,1.26-1.4,4.08-3.89,8.03-3.89,.79,0,1.52,.1,2.21,.27,0,0-.88,.87-.88,.87Zm-2.44,6.3l4.31-4.23c.86,2.64-1.7,5.14-4.31,4.23Zm11.26-3.58s-3.6,6.31-10.15,6.31c-1.17,0-2.26-.25-3.26-.62l1.37-1.34c.61,.16,1.24,.27,1.9,.27,4.06,0,6.87-2.99,8.05-4.54-.62-.7-1.66-1.69-3.04-2.5l1.26-1.24c2.53,1.61,3.88,3.67,3.88,3.67Z"/>
  <line class="cls-5" x1="22" y1="64" x2="400" y2="64"/>
  <path class="cls-6" d="M195,80v23h30.67v-23h-30.67Zm28.06,2.56l-12.16,9.86-12.16-9.86s24.32,0,24.32,0Zm-25.51,17.89v-15.1l12.78,10.36,12.78-10.36v15.1h-25.56Z"/>
  <g>
    <path class="cls-3" d="M84.83,113.97c.59-.1,1.36-.18,2.34-.18,1.21,0,2.09,.28,2.65,.78,.52,.45,.83,1.13,.83,1.98s-.25,1.53-.73,2.02c-.64,.69-1.7,1.04-2.89,1.04-.36,0-.7-.01-.98-.08v3.78h-1.22v-9.33Zm1.22,4.55c.27,.07,.6,.1,1.01,.1,1.47,0,2.37-.71,2.37-2.02s-.88-1.85-2.23-1.85c-.53,0-.94,.04-1.15,.1v3.67Z"/>
    <path class="cls-3" d="M96.04,123.3l-.1-.85h-.04c-.38,.53-1.11,1.01-2.07,1.01-1.37,0-2.07-.97-2.07-1.95,0-1.64,1.46-2.54,4.08-2.52v-.14c0-.56-.15-1.57-1.54-1.57-.63,0-1.29,.2-1.76,.5l-.28-.81c.56-.36,1.37-.6,2.23-.6,2.07,0,2.58,1.41,2.58,2.77v2.54c0,.59,.03,1.16,.11,1.62h-1.12Zm-.18-3.46c-1.35-.03-2.87,.21-2.87,1.53,0,.8,.53,1.18,1.16,1.18,.88,0,1.44-.56,1.64-1.13,.04-.13,.07-.27,.07-.39v-1.18Z"/>
    <path class="cls-3" d="M99.46,118.63c0-.8-.01-1.48-.06-2.12h1.08l.04,1.33h.06c.31-.91,1.05-1.48,1.88-1.48,.14,0,.24,.01,.35,.04v1.16c-.13-.03-.25-.04-.42-.04-.87,0-1.49,.66-1.65,1.58-.03,.17-.05,.36-.05,.57v3.61h-1.22v-4.66Z"/>
    <path class="cls-3" d="M108.14,123.3l-.1-.85h-.04c-.38,.53-1.11,1.01-2.07,1.01-1.37,0-2.07-.97-2.07-1.95,0-1.64,1.46-2.54,4.08-2.52v-.14c0-.56-.15-1.57-1.54-1.57-.63,0-1.29,.2-1.77,.5l-.28-.81c.56-.36,1.37-.6,2.23-.6,2.07,0,2.58,1.41,2.58,2.77v2.54c0,.59,.03,1.16,.11,1.62h-1.12Zm-.18-3.46c-1.34-.03-2.87,.21-2.87,1.53,0,.8,.53,1.18,1.16,1.18,.88,0,1.44-.56,1.64-1.13,.04-.13,.07-.27,.07-.39v-1.18Z"/>
    <path class="cls-3" d="M119.77,123.04c-.32,.17-1.04,.39-1.95,.39-2.04,0-3.38-1.39-3.38-3.46s1.43-3.6,3.64-3.6c.73,0,1.37,.18,1.71,.35l-.28,.95c-.29-.17-.76-.32-1.43-.32-1.55,0-2.39,1.15-2.39,2.56,0,1.57,1.01,2.54,2.35,2.54,.7,0,1.16-.18,1.51-.34l.21,.92Z"/>
    <path class="cls-3" d="M127.68,119.85c0,2.51-1.74,3.6-3.38,3.6-1.84,0-3.25-1.34-3.25-3.49,0-2.27,1.48-3.6,3.36-3.6s3.26,1.41,3.26,3.49Zm-5.38,.07c0,1.48,.86,2.61,2.06,2.61s2.06-1.11,2.06-2.63c0-1.15-.57-2.61-2.03-2.61s-2.09,1.34-2.09,2.63Z"/>
    <path class="cls-3" d="M129.65,118.35c0-.7-.01-1.27-.05-1.83h1.09l.07,1.12h.03c.34-.64,1.12-1.27,2.24-1.27,.94,0,2.39,.56,2.39,2.89v4.05h-1.23v-3.91c0-1.09-.41-2-1.57-2-.81,0-1.44,.57-1.65,1.26-.05,.15-.08,.36-.08,.57v4.08h-1.23v-4.94Z"/>
    <path class="cls-3" d="M139.27,114.57v1.95h1.77v.94h-1.77v3.66c0,.84,.24,1.32,.92,1.32,.32,0,.56-.04,.71-.08l.06,.92c-.24,.1-.62,.17-1.09,.17-.57,0-1.04-.18-1.33-.52-.35-.36-.48-.97-.48-1.76v-3.7h-1.05v-.94h1.05v-1.62l1.21-.32Z"/>
    <path class="cls-3" d="M144.21,114.61c.01,.42-.29,.76-.78,.76-.44,0-.74-.34-.74-.76s.32-.77,.77-.77,.76,.34,.76,.77Zm-1.37,8.68v-6.78h1.23v6.78h-1.23Z"/>
    <path class="cls-3" d="M146.54,118.35c0-.7-.01-1.27-.06-1.83h1.09l.07,1.12h.03c.34-.64,1.12-1.27,2.24-1.27,.94,0,2.4,.56,2.4,2.89v4.05h-1.23v-3.91c0-1.09-.41-2-1.57-2-.81,0-1.44,.57-1.65,1.26-.06,.15-.08,.36-.08,.57v4.08h-1.23v-4.94Z"/>
    <path class="cls-3" d="M160.4,121.45c0,.7,.02,1.32,.06,1.85h-1.09l-.07-1.11h-.03c-.32,.55-1.04,1.26-2.24,1.26-1.06,0-2.34-.59-2.34-2.97v-3.96h1.23v3.75c0,1.29,.39,2.16,1.51,2.16,.83,0,1.4-.57,1.62-1.12,.07-.18,.11-.41,.11-.63v-4.16h1.23v4.93Z"/>
    <path class="cls-3" d="M166.62,123.3l-.1-.85h-.04c-.38,.53-1.11,1.01-2.07,1.01-1.37,0-2.07-.97-2.07-1.95,0-1.64,1.46-2.54,4.08-2.52v-.14c0-.56-.15-1.57-1.54-1.57-.63,0-1.29,.2-1.77,.5l-.28-.81c.56-.36,1.37-.6,2.23-.6,2.07,0,2.58,1.41,2.58,2.77v2.54c0,.59,.03,1.16,.11,1.62h-1.12Zm-.18-3.46c-1.34-.03-2.87,.21-2.87,1.53,0,.8,.53,1.18,1.16,1.18,.88,0,1.44-.56,1.64-1.13,.04-.13,.07-.27,.07-.39v-1.18Z"/>
    <path class="cls-3" d="M170.03,118.63c0-.8-.01-1.48-.05-2.12h1.08l.04,1.33h.06c.31-.91,1.05-1.48,1.88-1.48,.14,0,.24,.01,.35,.04v1.16c-.12-.03-.25-.04-.42-.04-.87,0-1.48,.66-1.65,1.58-.03,.17-.06,.36-.06,.57v3.61h-1.22v-4.66Z"/>
    <path class="cls-3" d="M184.09,121.45c0,.7,.02,1.32,.06,1.85h-1.09l-.07-1.11h-.03c-.32,.55-1.04,1.26-2.24,1.26-1.06,0-2.34-.59-2.34-2.97v-3.96h1.23v3.75c0,1.29,.39,2.16,1.51,2.16,.83,0,1.4-.57,1.62-1.12,.07-.18,.11-.41,.11-.63v-4.16h1.23v4.93Z"/>
    <path class="cls-3" d="M188.04,114.57v1.95h1.77v.94h-1.77v3.66c0,.84,.24,1.32,.92,1.32,.32,0,.56-.04,.71-.08l.06,.92c-.24,.1-.62,.17-1.09,.17-.57,0-1.04-.18-1.33-.52-.35-.36-.48-.97-.48-1.76v-3.7h-1.05v-.94h1.05v-1.62l1.21-.32Z"/>
    <path class="cls-3" d="M192.98,114.61c.01,.42-.29,.76-.78,.76-.44,0-.74-.34-.74-.76s.32-.77,.77-.77,.76,.34,.76,.77Zm-1.37,8.68v-6.78h1.23v6.78h-1.23Z"/>
    <path class="cls-3" d="M195.3,113.35h1.23v9.95h-1.23v-9.95Z"/>
    <path class="cls-3" d="M200.4,114.61c.01,.42-.29,.76-.78,.76-.44,0-.74-.34-.74-.76s.32-.77,.77-.77,.76,.34,.76,.77Zm-1.37,8.68v-6.78h1.23v6.78h-1.23Z"/>
    <path class="cls-3" d="M201.95,122.58l3.07-3.99c.29-.36,.58-.69,.88-1.05v-.03h-3.67v-.99h5.17v.77s-3.04,3.94-3.04,3.94c-.28,.38-.56,.71-.87,1.06v.03h3.96v.98h-5.5v-.71Z"/>
    <path class="cls-3" d="M212.88,123.3l-.1-.85h-.04c-.38,.53-1.11,1.01-2.07,1.01-1.37,0-2.07-.97-2.07-1.95,0-1.64,1.46-2.54,4.08-2.52v-.14c0-.56-.15-1.57-1.54-1.57-.63,0-1.29,.2-1.77,.5l-.28-.81c.56-.36,1.37-.6,2.23-.6,2.07,0,2.58,1.41,2.58,2.77v2.54c0,.59,.03,1.16,.11,1.62h-1.12Zm-.18-3.46c-1.34-.03-2.87,.21-2.87,1.53,0,.8,.53,1.18,1.16,1.18,.88,0,1.44-.56,1.64-1.13,.04-.13,.07-.27,.07-.39v-1.18Z"/>
    <path class="cls-3" d="M216.3,118.35c0-.7-.01-1.27-.05-1.83h1.09l.07,1.12h.03c.34-.64,1.12-1.27,2.24-1.27,.94,0,2.39,.56,2.39,2.89v4.05h-1.23v-3.91c0-1.09-.41-2-1.57-2-.81,0-1.44,.57-1.65,1.26-.05,.15-.08,.36-.08,.57v4.08h-1.23v-4.94Z"/>
    <path class="cls-3" d="M230.34,113.35v8.19c0,.6,.01,1.29,.06,1.75h-1.11l-.05-1.18h-.03c-.38,.76-1.21,1.33-2.31,1.33-1.64,0-2.9-1.39-2.9-3.45-.01-2.25,1.39-3.64,3.04-3.64,1.04,0,1.74,.49,2.04,1.04h.03v-4.05h1.23Zm-1.23,5.93c0-.15-.01-.36-.06-.52-.18-.78-.85-1.43-1.78-1.43-1.27,0-2.03,1.12-2.03,2.62,0,1.37,.67,2.51,2,2.51,.83,0,1.58-.55,1.81-1.47,.04-.17,.06-.34,.06-.53v-1.18Z"/>
    <path class="cls-3" d="M238.94,119.85c0,2.51-1.74,3.6-3.38,3.6-1.83,0-3.25-1.34-3.25-3.49,0-2.27,1.48-3.6,3.36-3.6s3.26,1.41,3.26,3.49Zm-5.38,.07c0,1.48,.85,2.61,2.06,2.61s2.06-1.11,2.06-2.63c0-1.15-.57-2.61-2.03-2.61s-2.09,1.34-2.09,2.63Z"/>
    <path class="cls-3" d="M244.3,113.35h1.23v9.95h-1.23v-9.95Z"/>
    <path class="cls-3" d="M254.16,119.85c0,2.51-1.74,3.6-3.38,3.6-1.84,0-3.25-1.34-3.25-3.49,0-2.27,1.48-3.6,3.36-3.6s3.26,1.41,3.26,3.49Zm-5.38,.07c0,1.48,.86,2.61,2.06,2.61s2.06-1.11,2.06-2.63c0-1.15-.57-2.61-2.03-2.61s-2.09,1.34-2.09,2.63Z"/>
    <path class="cls-3" d="M255.96,122.04c.36,.24,1.01,.49,1.62,.49,.9,0,1.32-.45,1.32-1.01,0-.59-.35-.91-1.26-1.25-1.22-.43-1.79-1.11-1.79-1.92,0-1.09,.88-1.99,2.34-1.99,.69,0,1.29,.2,1.67,.42l-.31,.9c-.27-.17-.76-.39-1.39-.39-.73,0-1.13,.42-1.13,.92,0,.56,.41,.81,1.29,1.15,1.18,.45,1.78,1.04,1.78,2.04,0,1.19-.92,2.03-2.54,2.03-.74,0-1.43-.18-1.9-.46l.31-.94Z"/>
    <path class="cls-3" d="M265.31,122.04c.37,.24,1.01,.49,1.62,.49,.9,0,1.32-.45,1.32-1.01,0-.59-.35-.91-1.26-1.25-1.22-.43-1.79-1.11-1.79-1.92,0-1.09,.88-1.99,2.34-1.99,.69,0,1.29,.2,1.67,.42l-.31,.9c-.27-.17-.76-.39-1.39-.39-.73,0-1.13,.42-1.13,.92,0,.56,.41,.81,1.29,1.15,1.18,.45,1.78,1.04,1.78,2.04,0,1.19-.92,2.03-2.54,2.03-.74,0-1.43-.18-1.91-.46l.31-.94Z"/>
    <path class="cls-3" d="M272.13,120.13c.03,1.67,1.09,2.35,2.33,2.35,.88,0,1.41-.15,1.88-.35l.21,.88c-.43,.2-1.18,.42-2.25,.42-2.09,0-3.33-1.37-3.33-3.42s1.21-3.66,3.18-3.66c2.21,0,2.8,1.95,2.8,3.19,0,.25-.03,.45-.04,.57h-4.76Zm3.62-.88c.01-.78-.32-2-1.71-2-1.25,0-1.79,1.15-1.89,2h3.6Z"/>
    <path class="cls-3" d="M278.88,118.63c0-.8-.01-1.48-.06-2.12h1.08l.04,1.33h.06c.31-.91,1.05-1.48,1.88-1.48,.14,0,.24,.01,.35,.04v1.16c-.13-.03-.25-.04-.42-.04-.87,0-1.49,.66-1.65,1.58-.03,.17-.05,.36-.05,.57v3.61h-1.22v-4.66Z"/>
    <path class="cls-3" d="M284.7,116.52l1.33,3.81c.22,.62,.41,1.18,.55,1.74h.04c.15-.56,.35-1.12,.57-1.74l1.32-3.81h1.29l-2.66,6.78h-1.18l-2.58-6.78h1.32Z"/>
    <path class="cls-3" d="M292.75,114.61c.01,.42-.29,.76-.79,.76-.43,0-.74-.34-.74-.76s.32-.77,.77-.77,.76,.34,.76,.77Zm-1.37,8.68v-6.78h1.23v6.78h-1.23Z"/>
    <path class="cls-3" d="M299.91,123.04c-.32,.17-1.04,.39-1.95,.39-2.04,0-3.38-1.39-3.38-3.46s1.43-3.6,3.64-3.6c.73,0,1.37,.18,1.71,.35l-.28,.95c-.29-.17-.76-.32-1.43-.32-1.55,0-2.39,1.15-2.39,2.56,0,1.57,1.01,2.54,2.35,2.54,.7,0,1.16-.18,1.51-.34l.21,.92Z"/>
    <path class="cls-3" d="M303.14,114.61c.01,.42-.29,.76-.78,.76-.44,0-.74-.34-.74-.76s.32-.77,.77-.77,.76,.34,.76,.77Zm-1.37,8.68v-6.78h1.23v6.78h-1.23Z"/>
    <path class="cls-3" d="M311.6,119.85c0,2.51-1.74,3.6-3.38,3.6-1.84,0-3.25-1.34-3.25-3.49,0-2.27,1.48-3.6,3.36-3.6s3.26,1.41,3.26,3.49Zm-5.38,.07c0,1.48,.86,2.61,2.06,2.61s2.06-1.11,2.06-2.63c0-1.15-.57-2.61-2.03-2.61s-2.09,1.34-2.09,2.63Z"/>
    <path class="cls-3" d="M313.4,122.04c.36,.24,1.01,.49,1.62,.49,.9,0,1.32-.45,1.32-1.01,0-.59-.35-.91-1.26-1.25-1.22-.43-1.79-1.11-1.79-1.92,0-1.09,.88-1.99,2.34-1.99,.69,0,1.29,.2,1.67,.42l-.31,.9c-.27-.17-.76-.39-1.39-.39-.73,0-1.13,.42-1.13,.92,0,.56,.41,.81,1.29,1.15,1.18,.45,1.78,1.04,1.78,2.04,0,1.19-.92,2.03-2.54,2.03-.74,0-1.43-.18-1.9-.46l.31-.94Z"/>
    <path class="cls-3" d="M328.78,113.35v8.19c0,.6,.01,1.29,.05,1.75h-1.11l-.06-1.18h-.03c-.38,.76-1.21,1.33-2.31,1.33-1.64,0-2.9-1.39-2.9-3.45-.01-2.25,1.39-3.64,3.04-3.64,1.04,0,1.74,.49,2.04,1.04h.03v-4.05h1.23Zm-1.23,5.93c0-.15-.02-.36-.06-.52-.18-.78-.86-1.43-1.78-1.43-1.28,0-2.03,1.12-2.03,2.62,0,1.37,.67,2.51,2,2.51,.83,0,1.58-.55,1.81-1.47,.04-.17,.06-.34,.06-.53v-1.18Z"/>
    <path class="cls-3" d="M331.92,120.13c.03,1.67,1.09,2.35,2.33,2.35,.88,0,1.41-.15,1.88-.35l.21,.88c-.43,.2-1.18,.42-2.25,.42-2.09,0-3.33-1.37-3.33-3.42s1.21-3.66,3.18-3.66c2.21,0,2.8,1.95,2.8,3.19,0,.25-.03,.45-.04,.57h-4.76Zm3.62-.88c.01-.78-.32-2-1.71-2-1.25,0-1.79,1.15-1.89,2h3.6Z"/>
    <path class="cls-3" d="M68.62,130.15h1.23v9.95h-1.23v-9.95Z"/>
    <path class="cls-3" d="M76.09,140.1l-.1-.85h-.04c-.38,.53-1.11,1.01-2.07,1.01-1.37,0-2.07-.97-2.07-1.95,0-1.64,1.46-2.54,4.08-2.52v-.14c0-.56-.15-1.57-1.54-1.57-.63,0-1.29,.2-1.76,.5l-.28-.81c.56-.36,1.37-.6,2.23-.6,2.07,0,2.58,1.41,2.58,2.77v2.54c0,.59,.03,1.16,.11,1.62h-1.12Zm-.18-3.46c-1.35-.03-2.87,.21-2.87,1.53,0,.8,.53,1.18,1.16,1.18,.88,0,1.44-.56,1.64-1.13,.04-.13,.07-.27,.07-.39v-1.18Z"/>
    <path class="cls-3" d="M82.84,140.1c.03-.46,.05-1.15,.05-1.75v-8.19h1.22v4.26h.03c.43-.76,1.22-1.25,2.31-1.25,1.68,0,2.87,1.4,2.86,3.46,0,2.42-1.53,3.63-3.04,3.63-.98,0-1.77-.38-2.27-1.27h-.04l-.05,1.12h-1.06Zm1.27-2.72c0,.15,.03,.31,.06,.45,.24,.85,.95,1.44,1.85,1.44,1.29,0,2.06-1.05,2.06-2.6,0-1.36-.7-2.52-2.02-2.52-.84,0-1.62,.57-1.88,1.51-.03,.14-.07,.31-.07,.5v1.22Z"/>
    <path class="cls-3" d="M95.04,140.1l-.1-.85h-.04c-.38,.53-1.11,1.01-2.07,1.01-1.37,0-2.07-.97-2.07-1.95,0-1.64,1.46-2.54,4.08-2.52v-.14c0-.56-.15-1.57-1.54-1.57-.63,0-1.29,.2-1.76,.5l-.28-.81c.56-.36,1.37-.6,2.23-.6,2.07,0,2.58,1.41,2.58,2.77v2.54c0,.59,.03,1.16,.11,1.62h-1.12Zm-.18-3.46c-1.35-.03-2.87,.21-2.87,1.53,0,.8,.53,1.18,1.16,1.18,.88,0,1.44-.56,1.64-1.13,.04-.13,.07-.27,.07-.39v-1.18Z"/>
    <path class="cls-3" d="M98.45,135.15c0-.7-.01-1.27-.06-1.83h1.09l.07,1.12h.03c.34-.64,1.12-1.27,2.24-1.27,.94,0,2.4,.56,2.4,2.89v4.05h-1.23v-3.91c0-1.09-.41-2-1.57-2-.81,0-1.44,.57-1.65,1.26-.06,.15-.08,.36-.08,.57v4.08h-1.23v-4.94Z"/>
    <path class="cls-3" d="M111.47,139.84c-.32,.17-1.04,.39-1.95,.39-2.04,0-3.38-1.39-3.38-3.46s1.43-3.6,3.64-3.6c.73,0,1.37,.18,1.71,.35l-.28,.95c-.29-.17-.76-.32-1.43-.32-1.55,0-2.39,1.15-2.39,2.56,0,1.57,1.01,2.54,2.35,2.54,.7,0,1.16-.18,1.51-.34l.21,.92Z"/>
    <path class="cls-3" d="M117.08,140.1l-.1-.85h-.04c-.38,.53-1.11,1.01-2.07,1.01-1.37,0-2.07-.97-2.07-1.95,0-1.64,1.46-2.54,4.08-2.52v-.14c0-.56-.15-1.57-1.54-1.57-.63,0-1.29,.2-1.77,.5l-.28-.81c.56-.36,1.37-.6,2.23-.6,2.07,0,2.58,1.41,2.58,2.77v2.54c0,.59,.03,1.16,.11,1.62h-1.12Zm-.18-3.46c-1.34-.03-2.87,.21-2.87,1.53,0,.8,.53,1.18,1.16,1.18,.88,0,1.44-.56,1.64-1.13,.04-.13,.07-.27,.07-.39v-1.18Z"/>
    <path class="cls-3" d="M129.74,130.15v8.19c0,.6,.01,1.29,.06,1.75h-1.11l-.05-1.18h-.03c-.38,.76-1.21,1.33-2.31,1.33-1.64,0-2.9-1.39-2.9-3.45-.01-2.25,1.39-3.64,3.04-3.64,1.04,0,1.74,.49,2.04,1.04h.03v-4.05h1.23Zm-1.23,5.93c0-.15-.01-.36-.06-.52-.18-.78-.85-1.43-1.78-1.43-1.27,0-2.03,1.12-2.03,2.62,0,1.37,.67,2.51,2,2.51,.83,0,1.58-.55,1.81-1.47,.04-.17,.06-.34,.06-.53v-1.18Z"/>
    <path class="cls-3" d="M133.58,131.41c.01,.42-.29,.76-.79,.76-.43,0-.74-.34-.74-.76s.32-.77,.77-.77,.76,.34,.76,.77Zm-1.37,8.68v-6.78h1.23v6.78h-1.23Z"/>
    <path class="cls-3" d="M141.74,133.32c-.03,.49-.06,1.04-.06,1.86v3.94c0,1.55-.31,2.51-.97,3.1-.66,.62-1.61,.81-2.46,.81s-1.71-.2-2.26-.56l.31-.94c.45,.28,1.15,.53,1.99,.53,1.26,0,2.18-.66,2.18-2.37v-.76h-.03c-.38,.63-1.11,1.13-2.16,1.13-1.68,0-2.89-1.43-2.89-3.31,0-2.3,1.5-3.6,3.05-3.6,1.18,0,1.82,.62,2.12,1.18h.03l.06-1.02h1.08Zm-1.28,2.68c0-.21-.01-.39-.07-.56-.22-.71-.83-1.3-1.72-1.3-1.18,0-2.02,.99-2.02,2.56,0,1.33,.67,2.44,2,2.44,.76,0,1.44-.48,1.71-1.26,.07-.21,.1-.45,.1-.66v-1.22Z"/>
    <path class="cls-3" d="M145.43,131.41c.01,.42-.29,.76-.79,.76-.43,0-.74-.34-.74-.76s.32-.77,.77-.77,.76,.34,.76,.77Zm-1.37,8.68v-6.78h1.23v6.78h-1.23Z"/>
    <path class="cls-3" d="M149.24,131.37v1.95h1.76v.94h-1.76v3.66c0,.84,.24,1.32,.92,1.32,.32,0,.56-.04,.71-.08l.05,.92c-.24,.1-.62,.17-1.09,.17-.57,0-1.04-.18-1.33-.52-.35-.36-.48-.97-.48-1.76v-3.7h-1.05v-.94h1.05v-1.62l1.21-.32Z"/>
    <path class="cls-3" d="M156.56,140.1l-.1-.85h-.04c-.38,.53-1.11,1.01-2.07,1.01-1.37,0-2.07-.97-2.07-1.95,0-1.64,1.46-2.54,4.08-2.52v-.14c0-.56-.15-1.57-1.54-1.57-.63,0-1.29,.2-1.76,.5l-.28-.81c.56-.36,1.37-.6,2.23-.6,2.07,0,2.58,1.41,2.58,2.77v2.54c0,.59,.03,1.16,.11,1.62h-1.12Zm-.18-3.46c-1.35-.03-2.87,.21-2.87,1.53,0,.8,.53,1.18,1.16,1.18,.88,0,1.44-.56,1.64-1.13,.04-.13,.07-.27,.07-.39v-1.18Z"/>
    <path class="cls-3" d="M159.98,130.15h1.23v9.95h-1.23v-9.95Z"/>
    <path class="cls-3" d="M162.76,141.82c.31-.83,.69-2.33,.84-3.35l1.37-.14c-.32,1.19-.94,2.75-1.33,3.4l-.88,.08Z"/>
    <path class="cls-3" d="M170.96,136.93c.03,1.67,1.09,2.35,2.32,2.35,.88,0,1.42-.15,1.88-.35l.21,.88c-.43,.2-1.18,.42-2.26,.42-2.09,0-3.33-1.37-3.33-3.42s1.21-3.66,3.18-3.66c2.21,0,2.8,1.95,2.8,3.19,0,.25-.03,.45-.04,.57h-4.76Zm3.61-.88c.01-.78-.32-2-1.71-2-1.25,0-1.79,1.15-1.89,2h3.6Z"/>
    <path class="cls-3" d="M177.53,138.84c.37,.24,1.01,.49,1.62,.49,.9,0,1.32-.45,1.32-1.01,0-.59-.35-.91-1.26-1.25-1.22-.43-1.79-1.11-1.79-1.92,0-1.09,.88-1.99,2.34-1.99,.69,0,1.29,.2,1.67,.42l-.31,.9c-.27-.17-.76-.39-1.39-.39-.73,0-1.13,.42-1.13,.92,0,.56,.41,.81,1.29,1.15,1.18,.45,1.78,1.04,1.78,2.04,0,1.19-.92,2.03-2.54,2.03-.74,0-1.43-.18-1.91-.46l.31-.94Z"/>
    <path class="cls-3" d="M187.05,135.15c0-.7-.01-1.27-.05-1.83h1.09l.07,1.12h.03c.34-.64,1.12-1.27,2.24-1.27,.94,0,2.39,.56,2.39,2.89v4.05h-1.23v-3.91c0-1.09-.41-2-1.57-2-.81,0-1.44,.57-1.65,1.26-.05,.15-.08,.36-.08,.57v4.08h-1.23v-4.94Z"/>
    <path class="cls-3" d="M195.93,136.93c.03,1.67,1.09,2.35,2.33,2.35,.88,0,1.41-.15,1.88-.35l.21,.88c-.43,.2-1.18,.42-2.25,.42-2.09,0-3.33-1.37-3.33-3.42s1.21-3.66,3.18-3.66c2.21,0,2.8,1.95,2.8,3.19,0,.25-.03,.45-.04,.57h-4.76Zm3.62-.88c.01-.78-.32-2-1.71-2-1.25,0-1.79,1.15-1.89,2h3.6Z"/>
    <path class="cls-3" d="M207.51,139.84c-.32,.17-1.04,.39-1.95,.39-2.04,0-3.38-1.39-3.38-3.46s1.43-3.6,3.64-3.6c.73,0,1.37,.18,1.71,.35l-.28,.95c-.29-.17-.76-.32-1.43-.32-1.55,0-2.39,1.15-2.39,2.56,0,1.57,1.01,2.54,2.35,2.54,.7,0,1.16-.18,1.51-.34l.21,.92Z"/>
    <path class="cls-3" d="M209.97,136.93c.03,1.67,1.09,2.35,2.32,2.35,.88,0,1.42-.15,1.88-.35l.21,.88c-.43,.2-1.18,.42-2.26,.42-2.09,0-3.33-1.37-3.33-3.42s1.21-3.66,3.18-3.66c2.21,0,2.8,1.95,2.8,3.19,0,.25-.03,.45-.04,.57h-4.76Zm3.61-.88c.01-.78-.32-2-1.71-2-1.25,0-1.79,1.15-1.89,2h3.6Z"/>
    <path class="cls-3" d="M216.55,138.84c.37,.24,1.01,.49,1.62,.49,.9,0,1.32-.45,1.32-1.01,0-.59-.35-.91-1.26-1.25-1.22-.43-1.79-1.11-1.79-1.92,0-1.09,.88-1.99,2.34-1.99,.69,0,1.29,.2,1.67,.42l-.31,.9c-.27-.17-.76-.39-1.39-.39-.73,0-1.13,.42-1.13,.92,0,.56,.41,.81,1.29,1.15,1.18,.45,1.78,1.04,1.78,2.04,0,1.19-.92,2.03-2.54,2.03-.74,0-1.43-.18-1.91-.46l.31-.94Z"/>
    <path class="cls-3" d="M226.44,140.1l-.1-.85h-.04c-.38,.53-1.11,1.01-2.07,1.01-1.37,0-2.07-.97-2.07-1.95,0-1.64,1.46-2.54,4.08-2.52v-.14c0-.56-.15-1.57-1.54-1.57-.63,0-1.29,.2-1.76,.5l-.28-.81c.56-.36,1.37-.6,2.23-.6,2.07,0,2.58,1.41,2.58,2.77v2.54c0,.59,.03,1.16,.11,1.62h-1.12Zm-.18-3.46c-1.35-.03-2.87,.21-2.87,1.53,0,.8,.53,1.18,1.16,1.18,.88,0,1.44-.56,1.64-1.13,.04-.13,.07-.27,.07-.39v-1.18Z"/>
    <path class="cls-3" d="M229.85,135.43c0-.8-.01-1.48-.06-2.12h1.08l.04,1.33h.06c.31-.91,1.05-1.48,1.88-1.48,.14,0,.24,.01,.35,.04v1.16c-.13-.03-.25-.04-.42-.04-.87,0-1.49,.66-1.65,1.58-.03,.17-.05,.36-.05,.57v3.61h-1.22v-4.66Z"/>
    <path class="cls-3" d="M236.28,131.41c.01,.42-.29,.76-.78,.76-.44,0-.74-.34-.74-.76s.32-.77,.77-.77,.76,.34,.76,.77Zm-1.37,8.68v-6.78h1.23v6.78h-1.23Z"/>
    <path class="cls-3" d="M244.74,136.65c0,2.51-1.74,3.6-3.38,3.6-1.84,0-3.25-1.34-3.25-3.49,0-2.27,1.48-3.6,3.36-3.6s3.26,1.41,3.26,3.49Zm-5.38,.07c0,1.48,.86,2.61,2.06,2.61s2.06-1.11,2.06-2.63c0-1.15-.57-2.61-2.03-2.61s-2.09,1.34-2.09,2.63Z"/>
    <path class="cls-3" d="M250.57,133.32l1.33,3.81c.22,.62,.41,1.18,.55,1.74h.04c.15-.56,.35-1.12,.57-1.74l1.32-3.81h1.29l-2.66,6.78h-1.18l-2.58-6.78h1.32Z"/>
    <path class="cls-3" d="M258.62,131.41c.01,.42-.29,.76-.78,.76-.44,0-.74-.34-.74-.76s.32-.77,.77-.77,.76,.34,.76,.77Zm-1.37,8.68v-6.78h1.23v6.78h-1.23Z"/>
    <path class="cls-3" d="M260.95,135.15c0-.7-.01-1.27-.06-1.83h1.09l.07,1.12h.03c.34-.64,1.12-1.27,2.24-1.27,.94,0,2.4,.56,2.4,2.89v4.05h-1.23v-3.91c0-1.09-.41-2-1.57-2-.81,0-1.44,.57-1.65,1.26-.06,.15-.08,.36-.08,.57v4.08h-1.23v-4.94Z"/>
    <path class="cls-3" d="M273.97,139.84c-.32,.17-1.04,.39-1.95,.39-2.04,0-3.38-1.39-3.38-3.46s1.43-3.6,3.64-3.6c.73,0,1.37,.18,1.71,.35l-.28,.95c-.29-.17-.76-.32-1.43-.32-1.55,0-2.39,1.15-2.39,2.56,0,1.57,1.01,2.54,2.35,2.54,.7,0,1.16-.18,1.51-.34l.21,.92Z"/>
    <path class="cls-3" d="M281.5,138.25c0,.7,.01,1.32,.06,1.85h-1.09l-.07-1.11h-.03c-.32,.55-1.04,1.26-2.24,1.26-1.06,0-2.34-.59-2.34-2.97v-3.96h1.23v3.75c0,1.29,.39,2.16,1.51,2.16,.83,0,1.4-.57,1.62-1.12,.07-.18,.11-.41,.11-.63v-4.16h1.23v4.93Z"/>
    <path class="cls-3" d="M283.96,130.15h1.23v9.95h-1.23v-9.95Z"/>
    <path class="cls-3" d="M291.44,140.1l-.1-.85h-.04c-.38,.53-1.11,1.01-2.07,1.01-1.37,0-2.07-.97-2.07-1.95,0-1.64,1.46-2.54,4.08-2.52v-.14c0-.56-.15-1.57-1.54-1.57-.63,0-1.29,.2-1.77,.5l-.28-.81c.56-.36,1.37-.6,2.23-.6,2.07,0,2.58,1.41,2.58,2.77v2.54c0,.59,.03,1.16,.11,1.62h-1.12Zm-.18-3.46c-1.34-.03-2.87,.21-2.87,1.53,0,.8,.53,1.18,1.16,1.18,.88,0,1.44-.56,1.64-1.13,.04-.13,.07-.27,.07-.39v-1.18Z"/>
    <path class="cls-3" d="M294.85,135.43c0-.8-.01-1.48-.05-2.12h1.08l.04,1.33h.06c.31-.91,1.05-1.48,1.88-1.48,.14,0,.24,.01,.35,.04v1.16c-.12-.03-.25-.04-.42-.04-.87,0-1.48,.66-1.65,1.58-.03,.17-.06,.36-.06,.57v3.61h-1.22v-4.66Z"/>
    <path class="cls-3" d="M303.07,138.84c.36,.24,1.01,.49,1.62,.49,.9,0,1.32-.45,1.32-1.01,0-.59-.35-.91-1.26-1.25-1.22-.43-1.79-1.11-1.79-1.92,0-1.09,.88-1.99,2.34-1.99,.69,0,1.29,.2,1.67,.42l-.31,.9c-.27-.17-.76-.39-1.39-.39-.73,0-1.13,.42-1.13,.92,0,.56,.41,.81,1.29,1.15,1.18,.45,1.78,1.04,1.78,2.04,0,1.19-.92,2.03-2.54,2.03-.74,0-1.43-.18-1.9-.46l.31-.94Z"/>
    <path class="cls-3" d="M314.88,138.25c0,.7,.01,1.32,.06,1.85h-1.09l-.07-1.11h-.03c-.32,.55-1.04,1.26-2.24,1.26-1.06,0-2.34-.59-2.34-2.97v-3.96h1.23v3.75c0,1.29,.39,2.16,1.51,2.16,.83,0,1.4-.57,1.62-1.12,.07-.18,.11-.41,.11-.63v-4.16h1.23v4.93Z"/>
    <path class="cls-3" d="M321.41,136.93c.03,1.67,1.09,2.35,2.33,2.35,.88,0,1.41-.15,1.88-.35l.21,.88c-.43,.2-1.18,.42-2.25,.42-2.09,0-3.33-1.37-3.33-3.42s1.21-3.66,3.18-3.66c2.21,0,2.8,1.95,2.8,3.19,0,.25-.03,.45-.04,.57h-4.76Zm3.62-.88c.01-.78-.32-2-1.71-2-1.25,0-1.79,1.15-1.89,2h3.6Z"/>
    <path class="cls-3" d="M328.16,135.15c0-.7-.01-1.27-.06-1.83h1.08l.06,1.09h.04c.38-.64,1.01-1.25,2.13-1.25,.92,0,1.62,.56,1.92,1.36h.03c.21-.38,.47-.67,.76-.88,.41-.31,.85-.48,1.5-.48,.9,0,2.23,.59,2.23,2.94v3.99h-1.21v-3.84c0-1.3-.48-2.09-1.47-2.09-.7,0-1.25,.52-1.46,1.12-.06,.17-.1,.39-.1,.62v4.19h-1.21v-4.06c0-1.08-.48-1.86-1.41-1.86-.77,0-1.33,.62-1.53,1.23-.07,.18-.1,.39-.1,.6v4.09h-1.21v-4.94Z"/>
    <path class="cls-3" d="M344.01,140.1l-.1-.85h-.04c-.38,.53-1.11,1.01-2.07,1.01-1.37,0-2.07-.97-2.07-1.95,0-1.64,1.46-2.54,4.08-2.52v-.14c0-.56-.15-1.57-1.54-1.57-.63,0-1.29,.2-1.76,.5l-.28-.81c.56-.36,1.37-.6,2.23-.6,2.07,0,2.58,1.41,2.58,2.77v2.54c0,.59,.03,1.16,.11,1.62h-1.12Zm-.18-3.46c-1.35-.03-2.87,.21-2.87,1.53,0,.8,.53,1.18,1.16,1.18,.88,0,1.44-.56,1.64-1.13,.04-.13,.07-.27,.07-.39v-1.18Z"/>
    <path class="cls-3" d="M348.79,131.41c.01,.42-.29,.76-.79,.76-.43,0-.74-.34-.74-.76s.32-.77,.77-.77,.76,.34,.76,.77Zm-1.37,8.68v-6.78h1.23v6.78h-1.23Z"/>
    <path class="cls-3" d="M351.12,130.15h1.23v9.95h-1.23v-9.95Z"/>
  </g>
</svg>