<?xml version="1.0" encoding="UTF-8"?>
<svg id="Layer_1" data-name="Layer 1" xmlns="http://www.w3.org/2000/svg" viewBox="0 0 420 404">
  <defs>
    <style>
      .cls-1, .cls-2 {
        fill: #fff;
      }

      .cls-2 {
        opacity: .8;
      }

      .cls-3 {
        fill: #444;
      }

      .cls-4 {
        fill: #ccc;
      }

      .cls-5 {
        fill: none;
        stroke: #d3d3d3;
        stroke-miterlimit: 10;
      }

      .cls-6 {
        fill: #1947a9;
      }
    </style>
  </defs>
  <rect class="cls-2" x="1" y="3" width="420" height="397" rx="4" ry="4"/>
  <rect class="cls-4" x="125" y="347.75" width="170" height="31.25" rx="4" ry="4"/>
  <g>
    <path class="cls-1" d="M134.62,360.16c.55-.11,1.34-.18,2.1-.18,1.17,0,1.92,.21,2.45,.69,.43,.38,.67,.96,.67,1.61,0,1.12-.7,1.86-1.6,2.16v.04c.65,.23,1.04,.83,1.24,1.71,.28,1.18,.48,2,.65,2.33h-1.13c-.14-.24-.33-.97-.57-2.02-.25-1.17-.7-1.61-1.7-1.65h-1.03v3.67h-1.09v-8.36Zm1.09,3.86h1.12c1.17,0,1.91-.64,1.91-1.61,0-1.09-.79-1.57-1.95-1.58-.53,0-.91,.05-1.08,.1v3.09Z"/>
    <path class="cls-1" d="M142.38,365.68c.03,1.5,.98,2.11,2.09,2.11,.79,0,1.27-.14,1.68-.31l.19,.79c-.39,.18-1.06,.38-2.02,.38-1.87,0-2.99-1.23-2.99-3.07s1.08-3.28,2.85-3.28c1.99,0,2.51,1.75,2.51,2.87,0,.23-.03,.4-.04,.52h-4.27Zm3.24-.79c.01-.7-.29-1.8-1.53-1.8-1.12,0-1.61,1.03-1.7,1.8h3.23Z"/>
    <path class="cls-1" d="M152.78,368.29c-.29,.15-.93,.35-1.75,.35-1.83,0-3.03-1.25-3.03-3.11s1.28-3.23,3.27-3.23c.65,0,1.23,.16,1.53,.31l-.25,.85c-.26-.15-.68-.29-1.28-.29-1.4,0-2.15,1.03-2.15,2.3,0,1.41,.91,2.28,2.11,2.28,.63,0,1.04-.16,1.36-.3l.19,.83Z"/>
    <path class="cls-1" d="M159.54,366.86c0,.63,.01,1.18,.05,1.66h-.98l-.06-.99h-.03c-.29,.49-.93,1.13-2.01,1.13-.96,0-2.1-.53-2.1-2.67v-3.56h1.11v3.37c0,1.16,.35,1.94,1.36,1.94,.74,0,1.26-.52,1.46-1.01,.06-.16,.1-.37,.1-.57v-3.73h1.11v4.43Z"/>
    <path class="cls-1" d="M161.75,364.42c0-.78-.03-1.41-.05-1.99h.99l.05,1.04h.03c.45-.74,1.17-1.18,2.16-1.18,1.47,0,2.58,1.24,2.58,3.09,0,2.19-1.33,3.27-2.77,3.27-.8,0-1.51-.35-1.87-.96h-.03v3.31h-1.09v-6.59Zm1.09,1.62c0,.16,.03,.31,.05,.45,.2,.77,.87,1.29,1.66,1.29,1.17,0,1.85-.96,1.85-2.35,0-1.22-.64-2.26-1.81-2.26-.75,0-1.46,.54-1.67,1.37-.04,.14-.08,.3-.08,.45v1.04Z"/>
    <path class="cls-1" d="M169.89,365.68c.03,1.5,.98,2.11,2.09,2.11,.79,0,1.27-.14,1.68-.31l.19,.79c-.39,.18-1.06,.38-2.02,.38-1.87,0-2.99-1.23-2.99-3.07s1.08-3.28,2.85-3.28c1.99,0,2.51,1.75,2.51,2.87,0,.23-.03,.4-.04,.52h-4.27Zm3.24-.79c.01-.7-.29-1.8-1.53-1.8-1.12,0-1.61,1.03-1.7,1.8h3.23Z"/>
    <path class="cls-1" d="M175.95,364.33c0-.72-.01-1.33-.05-1.9h.97l.04,1.19h.05c.28-.82,.94-1.33,1.68-1.33,.13,0,.21,.01,.31,.04v1.04c-.11-.03-.23-.04-.38-.04-.78,0-1.33,.59-1.48,1.42-.03,.15-.05,.33-.05,.52v3.24h-1.09v-4.19Z"/>
    <path class="cls-1" d="M183.74,368.52l-.09-.77h-.04c-.34,.48-.99,.91-1.86,.91-1.23,0-1.86-.87-1.86-1.75,0-1.47,1.31-2.28,3.66-2.26v-.13c0-.5-.14-1.41-1.38-1.41-.57,0-1.16,.18-1.58,.45l-.25-.73c.5-.33,1.23-.54,2-.54,1.86,0,2.31,1.27,2.31,2.49v2.28c0,.53,.02,1.04,.1,1.46h-1.01Zm-.16-3.11c-1.21-.03-2.58,.19-2.58,1.37,0,.72,.48,1.06,1.04,1.06,.79,0,1.3-.5,1.47-1.02,.04-.11,.06-.24,.06-.35v-1.06Z"/>
    <path class="cls-1" d="M186.81,364.33c0-.72-.01-1.33-.05-1.9h.97l.04,1.19h.05c.28-.82,.94-1.33,1.68-1.33,.13,0,.21,.01,.31,.04v1.04c-.11-.03-.23-.04-.38-.04-.78,0-1.33,.59-1.48,1.42-.03,.15-.05,.33-.05,.52v3.24h-1.09v-4.19Z"/>
    <path class="cls-1" d="M199.59,359.59v7.36c0,.54,.01,1.16,.05,1.57h-.99l-.05-1.06h-.03c-.34,.68-1.08,1.19-2.07,1.19-1.47,0-2.6-1.25-2.6-3.09-.01-2.02,1.25-3.27,2.73-3.27,.93,0,1.56,.44,1.84,.93h.03v-3.63h1.11Zm-1.11,5.32c0-.14-.01-.33-.05-.46-.16-.71-.77-1.28-1.6-1.28-1.14,0-1.82,1.01-1.82,2.35,0,1.23,.6,2.25,1.8,2.25,.74,0,1.42-.49,1.62-1.32,.04-.15,.05-.3,.05-.48v-1.06Z"/>
    <path class="cls-1" d="M205.17,368.52l-.09-.77h-.04c-.34,.48-.99,.91-1.86,.91-1.23,0-1.86-.87-1.86-1.75,0-1.47,1.31-2.28,3.66-2.26v-.13c0-.5-.14-1.41-1.38-1.41-.57,0-1.16,.18-1.58,.45l-.25-.73c.5-.33,1.23-.54,2-.54,1.86,0,2.31,1.27,2.31,2.49v2.28c0,.53,.02,1.04,.1,1.46h-1.01Zm-.16-3.11c-1.21-.03-2.58,.19-2.58,1.37,0,.72,.48,1.06,1.04,1.06,.79,0,1.3-.5,1.47-1.02,.04-.11,.06-.24,.06-.35v-1.06Z"/>
    <path class="cls-1" d="M209.52,360.69v1.75h1.58v.84h-1.58v3.28c0,.75,.21,1.18,.83,1.18,.29,0,.5-.04,.64-.08l.05,.83c-.21,.09-.55,.15-.98,.15-.52,0-.93-.16-1.19-.47-.31-.33-.43-.87-.43-1.58v-3.32h-.94v-.84h.94v-1.46l1.08-.29Z"/>
    <path class="cls-1" d="M218.15,365.43c0,2.25-1.56,3.23-3.03,3.23-1.65,0-2.92-1.21-2.92-3.13,0-2.04,1.33-3.23,3.02-3.23s2.93,1.27,2.93,3.13Zm-4.83,.06c0,1.33,.77,2.34,1.85,2.34s1.85-.99,1.85-2.36c0-1.03-.52-2.34-1.82-2.34s-1.87,1.21-1.87,2.36Z"/>
    <path class="cls-1" d="M219.77,367.39c.33,.21,.91,.44,1.46,.44,.8,0,1.18-.4,1.18-.91,0-.53-.31-.82-1.13-1.12-1.09-.39-1.61-.99-1.61-1.72,0-.98,.79-1.79,2.1-1.79,.62,0,1.16,.18,1.5,.38l-.28,.8c-.24-.15-.68-.35-1.25-.35-.65,0-1.02,.38-1.02,.83,0,.5,.36,.73,1.16,1.03,1.06,.4,1.6,.93,1.6,1.84,0,1.07-.83,1.82-2.28,1.82-.67,0-1.28-.16-1.71-.42l.28-.84Z"/>
    <path class="cls-1" d="M233.57,359.59v7.36c0,.54,.01,1.16,.05,1.57h-.99l-.05-1.06h-.03c-.34,.68-1.08,1.19-2.07,1.19-1.47,0-2.6-1.25-2.6-3.09-.01-2.02,1.25-3.27,2.73-3.27,.93,0,1.56,.44,1.84,.93h.03v-3.63h1.11Zm-1.11,5.32c0-.14-.01-.33-.05-.46-.16-.71-.77-1.28-1.6-1.28-1.14,0-1.82,1.01-1.82,2.35,0,1.23,.6,2.25,1.8,2.25,.74,0,1.42-.49,1.62-1.32,.04-.15,.05-.3,.05-.48v-1.06Z"/>
    <path class="cls-1" d="M236.4,365.68c.03,1.5,.98,2.11,2.09,2.11,.79,0,1.27-.14,1.68-.31l.19,.79c-.39,.18-1.06,.38-2.02,.38-1.87,0-2.99-1.23-2.99-3.07s1.08-3.28,2.85-3.28c1.99,0,2.51,1.75,2.51,2.87,0,.23-.03,.4-.04,.52h-4.27Zm3.24-.79c.01-.7-.29-1.8-1.53-1.8-1.12,0-1.61,1.03-1.7,1.8h3.23Z"/>
    <path class="cls-1" d="M246.73,360.72c.01,.38-.26,.68-.7,.68-.39,0-.67-.3-.67-.68s.29-.69,.69-.69,.68,.3,.68,.69Zm-1.23,7.8v-6.08h1.11v6.08h-1.11Z"/>
    <path class="cls-1" d="M248.81,364.08c0-.63-.01-1.14-.05-1.65h.98l.06,1.01h.02c.3-.58,1.01-1.14,2.01-1.14,.84,0,2.15,.5,2.15,2.59v3.63h-1.11v-3.51c0-.98-.36-1.8-1.41-1.8-.73,0-1.29,.52-1.48,1.13-.05,.14-.08,.33-.08,.52v3.66h-1.11v-4.44Z"/>
    <path class="cls-1" d="M261.41,362.43c-.02,.44-.05,.93-.05,1.67v3.53c0,1.4-.28,2.25-.87,2.78-.59,.55-1.45,.73-2.21,.73s-1.53-.18-2.02-.5l.28-.84c.4,.25,1.03,.48,1.79,.48,1.13,0,1.96-.59,1.96-2.12v-.68h-.03c-.34,.57-.99,1.02-1.94,1.02-1.51,0-2.59-1.28-2.59-2.97,0-2.06,1.35-3.23,2.74-3.23,1.06,0,1.63,.55,1.9,1.06h.03l.05-.92h.97Zm-1.14,2.4c0-.19-.01-.35-.06-.5-.2-.64-.74-1.17-1.55-1.17-1.06,0-1.81,.89-1.81,2.3,0,1.2,.6,2.19,1.8,2.19,.68,0,1.29-.43,1.53-1.13,.06-.19,.09-.4,.09-.59v-1.09Z"/>
    <path class="cls-1" d="M263.49,364.33c0-.72-.01-1.33-.05-1.9h.97l.04,1.19h.05c.28-.82,.94-1.33,1.68-1.33,.13,0,.21,.01,.31,.04v1.04c-.11-.03-.23-.04-.38-.04-.78,0-1.33,.59-1.48,1.42-.03,.15-.05,.33-.05,.52v3.24h-1.09v-4.19Z"/>
    <path class="cls-1" d="M268.47,365.68c.03,1.5,.98,2.11,2.09,2.11,.79,0,1.27-.14,1.68-.31l.19,.79c-.39,.18-1.06,.38-2.02,.38-1.87,0-2.99-1.23-2.99-3.07s1.08-3.28,2.85-3.28c1.99,0,2.51,1.75,2.51,2.87,0,.23-.03,.4-.04,.52h-4.28Zm3.24-.79c.01-.7-.29-1.8-1.53-1.8-1.12,0-1.61,1.03-1.7,1.8h3.23Z"/>
    <path class="cls-1" d="M274.38,367.39c.33,.21,.91,.44,1.46,.44,.8,0,1.18-.4,1.18-.91,0-.53-.31-.82-1.13-1.12-1.09-.39-1.61-.99-1.61-1.72,0-.98,.79-1.79,2.1-1.79,.62,0,1.16,.18,1.5,.38l-.28,.8c-.24-.15-.68-.35-1.25-.35-.65,0-1.02,.38-1.02,.83,0,.5,.36,.73,1.16,1.03,1.06,.4,1.6,.93,1.6,1.84,0,1.07-.83,1.82-2.28,1.82-.67,0-1.28-.16-1.71-.42l.28-.84Z"/>
    <path class="cls-1" d="M285.39,365.43c0,2.25-1.56,3.23-3.03,3.23-1.65,0-2.92-1.21-2.92-3.13,0-2.04,1.33-3.23,3.02-3.23s2.93,1.27,2.93,3.13Zm-4.83,.06c0,1.33,.77,2.34,1.85,2.34s1.85-.99,1.85-2.36c0-1.03-.52-2.34-1.82-2.34s-1.87,1.21-1.87,2.36Z"/>
  </g>
  <line class="cls-5" x1="22" y1="64" x2="400" y2="64"/>
  <g>
    <path class="cls-6" d="M140.24,29.46c-1.34,0-2.4,.48-3.16,1.43s-1.15,2.26-1.15,3.94,.37,3.08,1.11,3.97,1.81,1.35,3.21,1.35c.61,0,1.19-.06,1.76-.18s1.16-.28,1.77-.46v2c-1.12,.42-2.39,.63-3.81,.63-2.09,0-3.69-.63-4.81-1.9s-1.68-3.08-1.68-5.43c0-1.48,.27-2.78,.82-3.9s1.33-1.97,2.36-2.56,2.24-.89,3.62-.89c1.46,0,2.81,.31,4.04,.92l-.84,1.94c-.48-.23-.99-.43-1.53-.6s-1.1-.26-1.69-.26Z"/>
    <path class="cls-6" d="M149.49,41.94h-2.29v-15.2h2.29v15.2Z"/>
    <path class="cls-6" d="M160.13,41.94l-.46-1.5h-.08c-.52,.66-1.04,1.11-1.57,1.34s-1.2,.36-2.03,.36c-1.06,0-1.89-.29-2.49-.86s-.89-1.38-.89-2.43c0-1.11,.41-1.95,1.24-2.52s2.09-.88,3.78-.93l1.87-.06v-.58c0-.69-.16-1.21-.48-1.55s-.82-.51-1.5-.51c-.55,0-1.08,.08-1.59,.24s-1,.35-1.46,.58l-.74-1.64c.59-.31,1.23-.54,1.92-.7s1.35-.24,1.97-.24c1.37,0,2.41,.3,3.11,.9s1.05,1.54,1.05,2.82v7.28h-1.64Zm-3.42-1.56c.83,0,1.5-.23,2.01-.7s.76-1.12,.76-1.96v-.94l-1.39,.06c-1.08,.04-1.87,.22-2.36,.54s-.74,.82-.74,1.48c0,.48,.14,.85,.43,1.12s.72,.4,1.29,.4Z"/>
    <path class="cls-6" d="M168.03,41.94l-4.1-10.8h2.42l2.2,6.28c.38,1.05,.61,1.91,.68,2.56h.08c.06-.47,.29-1.32,.68-2.56l2.2-6.28h2.44l-4.12,10.8h-2.48Z"/>
    <path class="cls-6" d="M181.59,42.13c-1.68,0-2.99-.49-3.94-1.47s-1.42-2.33-1.42-4.05,.44-3.15,1.32-4.16,2.09-1.51,3.62-1.51c1.43,0,2.55,.43,3.38,1.3s1.24,2.06,1.24,3.57v1.24h-7.2c.03,1.05,.32,1.85,.85,2.42s1.29,.84,2.26,.84c.64,0,1.23-.06,1.78-.18s1.14-.32,1.77-.6v1.87c-.56,.27-1.13,.46-1.7,.57s-1.23,.17-1.96,.17Zm-.42-9.45c-.73,0-1.31,.23-1.75,.69s-.7,1.14-.79,2.02h4.9c-.01-.89-.23-1.57-.64-2.03s-.99-.69-1.72-.69Z"/>
    <path class="cls-6" d="M206.65,34.66c0,2.36-.65,4.16-1.96,5.41s-3.19,1.87-5.65,1.87h-3.99v-14.28h4.41c2.27,0,4.04,.61,5.3,1.84s1.89,2.95,1.89,5.17Zm-2.46,.08c0-3.42-1.6-5.13-4.79-5.13h-2.02v10.36h1.66c3.44,0,5.16-1.75,5.16-5.23Z"/>
    <path class="cls-6" d="M209.93,28.27c0-.41,.11-.73,.34-.95s.55-.33,.96-.33,.72,.11,.94,.33,.34,.54,.34,.95-.11,.7-.34,.92-.54,.34-.94,.34-.74-.11-.96-.34-.34-.53-.34-.92Zm2.43,13.66h-2.29v-10.8h2.29v10.8Z"/>
    <path class="cls-6" d="M225.75,41.94h-2.3v-6.64c0-.83-.17-1.46-.5-1.87s-.87-.62-1.6-.62c-.97,0-1.68,.29-2.13,.86s-.67,1.53-.67,2.88v5.38h-2.29v-10.8h1.8l.32,1.42h.12c.33-.51,.79-.91,1.39-1.19s1.26-.42,1.99-.42c2.59,0,3.89,1.32,3.89,3.96v7.04Z"/>
    <path class="cls-6" d="M236.3,41.94l-.46-1.5h-.08c-.52,.66-1.04,1.11-1.57,1.34s-1.21,.36-2.03,.36c-1.06,0-1.89-.29-2.49-.86s-.89-1.38-.89-2.43c0-1.11,.41-1.95,1.24-2.52,.83-.57,2.09-.88,3.78-.93l1.87-.06v-.58c0-.69-.16-1.21-.48-1.55s-.82-.51-1.5-.51c-.55,0-1.08,.08-1.59,.24s-1,.35-1.46,.58l-.74-1.64c.59-.31,1.23-.54,1.92-.7,.7-.16,1.35-.24,1.97-.24,1.37,0,2.41,.3,3.11,.9,.7,.6,1.05,1.54,1.05,2.82v7.28h-1.64Zm-3.42-1.56c.83,0,1.5-.23,2.01-.7,.5-.47,.76-1.12,.76-1.96v-.94l-1.39,.06c-1.08,.04-1.87,.22-2.36,.54-.49,.32-.74,.82-.74,1.48,0,.48,.14,.85,.43,1.12,.29,.26,.72,.4,1.29,.4Z"/>
    <path class="cls-6" d="M250.85,41.94h-2.3v-6.66c0-.83-.16-1.44-.47-1.85s-.8-.61-1.46-.61c-.88,0-1.54,.29-1.95,.86s-.62,1.54-.62,2.88v5.38h-2.29v-10.8h1.8l.32,1.42h.12c.3-.51,.73-.91,1.3-1.19s1.2-.42,1.88-.42c1.66,0,2.76,.57,3.3,1.7h.16c.32-.53,.77-.95,1.35-1.25s1.24-.45,1.99-.45c1.29,0,2.23,.33,2.82,.98s.88,1.64,.88,2.98v7.04h-2.29v-6.66c0-.83-.16-1.44-.47-1.85s-.81-.61-1.47-.61c-.89,0-1.54,.28-1.96,.83s-.62,1.41-.62,2.56v5.72Z"/>
    <path class="cls-6" d="M261.33,28.27c0-.41,.11-.73,.34-.95s.54-.33,.96-.33,.72,.11,.94,.33,.34,.54,.34,.95-.11,.7-.34,.92-.54,.34-.94,.34-.74-.11-.96-.34-.34-.53-.34-.92Zm2.43,13.66h-2.29v-10.8h2.29v10.8Z"/>
    <path class="cls-6" d="M272,42.13c-1.63,0-2.88-.48-3.72-1.43s-1.28-2.32-1.28-4.11,.45-3.21,1.33-4.19,2.17-1.46,3.85-1.46c1.14,0,2.17,.21,3.08,.63l-.69,1.85c-.97-.38-1.77-.57-2.4-.57-1.87,0-2.8,1.24-2.8,3.72,0,1.21,.23,2.12,.7,2.73,.46,.61,1.15,.91,2.04,.91,1.02,0,1.99-.25,2.9-.76v2c-.41,.24-.85,.41-1.31,.52-.47,.1-1.03,.16-1.7,.16Z"/>
    <path class="cls-6" d="M284.9,41.94l-.46-1.5h-.08c-.52,.66-1.04,1.11-1.57,1.34s-1.21,.36-2.03,.36c-1.06,0-1.89-.29-2.49-.86s-.89-1.38-.89-2.43c0-1.11,.41-1.95,1.24-2.52,.83-.57,2.09-.88,3.78-.93l1.87-.06v-.58c0-.69-.16-1.21-.48-1.55s-.82-.51-1.5-.51c-.55,0-1.08,.08-1.59,.24s-1,.35-1.46,.58l-.74-1.64c.59-.31,1.23-.54,1.92-.7,.7-.16,1.35-.24,1.97-.24,1.37,0,2.41,.3,3.11,.9,.7,.6,1.05,1.54,1.05,2.82v7.28h-1.64Zm-3.42-1.56c.83,0,1.5-.23,2.01-.7,.51-.47,.76-1.12,.76-1.96v-.94l-1.39,.06c-1.08,.04-1.87,.22-2.36,.54-.49,.32-.74,.82-.74,1.48,0,.48,.14,.85,.43,1.12,.29,.26,.71,.4,1.29,.4Z"/>
  </g>
  <g>
    <path class="cls-3" d="M87.19,137.63c.59-.1,1.36-.19,2.35-.19,1.2,0,2.08,.28,2.65,.79,.51,.45,.83,1.14,.83,1.98s-.25,1.53-.73,2.02c-.65,.69-1.69,1.03-2.88,1.03-.37,0-.7-.01-.99-.09v3.79h-1.22v-9.33Zm1.22,4.55c.27,.08,.61,.11,1.01,.11,1.48,0,2.37-.73,2.37-2.02s-.89-1.86-2.23-1.86c-.54,0-.94,.05-1.15,.1v3.67Z"/>
    <path class="cls-3" d="M98.42,146.96l-.11-.86h-.04c-.37,.53-1.1,1.01-2.07,1.01-1.37,0-2.07-.97-2.07-1.94,0-1.64,1.45-2.54,4.07-2.52v-.14c0-.55-.15-1.57-1.54-1.56-.63,0-1.29,.19-1.76,.5l-.28-.82c.56-.36,1.38-.59,2.24-.59,2.07,0,2.58,1.42,2.58,2.77v2.53c0,.58,.03,1.16,.1,1.62h-1.11Zm-.19-3.46c-1.33-.03-2.86,.21-2.86,1.52,0,.81,.53,1.18,1.15,1.18,.89,0,1.45-.56,1.65-1.13,.04-.13,.06-.27,.06-.39v-1.18Z"/>
    <path class="cls-3" d="M101.83,142.29c0-.8-.02-1.48-.06-2.11h1.08l.05,1.33h.04c.32-.91,1.06-1.48,1.89-1.48,.13,0,.23,0,.34,.04v1.16c-.13-.03-.25-.04-.42-.04-.87,0-1.48,.65-1.65,1.58-.03,.17-.05,.38-.05,.58v3.62h-1.23v-4.66Z"/>
    <path class="cls-3" d="M110.51,146.96l-.11-.86h-.04c-.37,.53-1.1,1.01-2.07,1.01-1.37,0-2.07-.97-2.07-1.94,0-1.64,1.45-2.54,4.07-2.52v-.14c0-.55-.15-1.57-1.54-1.56-.63,0-1.29,.19-1.76,.5l-.28-.82c.56-.36,1.38-.59,2.24-.59,2.07,0,2.58,1.42,2.58,2.77v2.53c0,.58,.03,1.16,.1,1.62h-1.11Zm-.19-3.46c-1.33-.03-2.86,.21-2.86,1.52,0,.81,.53,1.18,1.15,1.18,.89,0,1.45-.56,1.65-1.13,.04-.13,.06-.27,.06-.39v-1.18Z"/>
    <path class="cls-3" d="M122.14,146.71c-.32,.16-1.03,.39-1.94,.39-2.04,0-3.38-1.39-3.38-3.46s1.42-3.61,3.64-3.61c.73,0,1.38,.18,1.71,.36l-.27,.95c-.3-.16-.76-.33-1.44-.33-1.55,0-2.39,1.16-2.39,2.57,0,1.57,1.01,2.54,2.36,2.54,.69,0,1.16-.17,1.51-.33l.21,.92Z"/>
    <path class="cls-3" d="M130.05,143.5c0,2.51-1.74,3.61-3.37,3.61-1.84,0-3.26-1.34-3.26-3.49,0-2.27,1.49-3.59,3.36-3.59s3.26,1.41,3.26,3.48Zm-5.37,.08c0,1.49,.85,2.6,2.05,2.6s2.06-1.1,2.06-2.64c0-1.15-.58-2.59-2.04-2.59s-2.08,1.35-2.08,2.63Z"/>
    <path class="cls-3" d="M132.03,142.01c0-.71-.02-1.27-.06-1.83h1.07l.06,1.09h.03c.38-.64,1.01-1.25,2.14-1.25,.92,0,1.62,.56,1.91,1.36h.03c.22-.39,.48-.68,.76-.88,.41-.31,.85-.48,1.49-.48,.9,0,2.24,.58,2.24,2.94v3.99h-1.2v-3.83c0-1.31-.48-2.09-1.47-2.09-.71,0-1.25,.51-1.47,1.11-.06,.18-.1,.4-.1,.62v4.19h-1.2v-4.07c0-1.08-.48-1.85-1.41-1.85-.77,0-1.33,.61-1.54,1.23-.06,.18-.09,.4-.09,.61v4.08h-1.2v-4.94Z"/>
    <path class="cls-3" d="M144.12,142.39c0-.86-.02-1.57-.06-2.21h1.1l.07,1.16h.03c.49-.83,1.3-1.31,2.4-1.31,1.64,0,2.88,1.38,2.88,3.44,0,2.44-1.49,3.65-3.08,3.65-.91,0-1.68-.39-2.09-1.07h-.03v3.69h-1.22v-7.34Zm1.22,1.81c0,.17,.02,.34,.05,.5,.22,.86,.97,1.44,1.84,1.44,1.31,0,2.06-1.07,2.06-2.62,0-1.35-.71-2.51-2.01-2.51-.84,0-1.63,.59-1.86,1.52-.04,.16-.08,.34-.08,.5v1.17Z"/>
    <path class="cls-3" d="M152.51,137.01h1.23v9.95h-1.23v-9.95Z"/>
    <path class="cls-3" d="M156.92,143.79c.02,1.67,1.08,2.35,2.32,2.35,.88,0,1.42-.16,1.88-.35l.22,.88c-.43,.2-1.18,.43-2.26,.43-2.08,0-3.33-1.39-3.33-3.42s1.21-3.66,3.19-3.66c2.21,0,2.79,1.94,2.79,3.19,0,.26-.01,.44-.04,.58h-4.75Zm3.61-.89c.01-.78-.32-1.99-1.7-1.99-1.26,0-1.79,1.14-1.89,1.99h3.59Z"/>
    <path class="cls-3" d="M165.14,138.23v1.95h1.77v.93h-1.77v3.65c0,.84,.24,1.32,.93,1.32,.32,0,.55-.04,.71-.09l.06,.94c-.24,.09-.62,.17-1.1,.17-.57,0-1.04-.19-1.33-.52-.34-.37-.48-.97-.48-1.77v-3.7h-1.05v-.93h1.05v-1.63l1.21-.32Z"/>
    <path class="cls-3" d="M172.48,146.96l-.11-.86h-.04c-.37,.53-1.1,1.01-2.07,1.01-1.37,0-2.07-.97-2.07-1.94,0-1.64,1.45-2.54,4.07-2.52v-.14c0-.55-.15-1.57-1.54-1.56-.63,0-1.29,.19-1.76,.5l-.28-.82c.56-.36,1.38-.59,2.24-.59,2.07,0,2.58,1.42,2.58,2.77v2.53c0,.58,.03,1.16,.1,1.62h-1.11Zm-.19-3.46c-1.33-.03-2.86,.21-2.86,1.52,0,.81,.53,1.18,1.15,1.18,.89,0,1.45-.56,1.65-1.13,.04-.13,.06-.27,.06-.39v-1.18Z"/>
    <path class="cls-3" d="M175.88,142.29c0-.8-.02-1.48-.06-2.11h1.08l.05,1.33h.04c.32-.91,1.06-1.48,1.89-1.48,.13,0,.23,0,.34,.04v1.16c-.13-.03-.25-.04-.42-.04-.87,0-1.48,.65-1.65,1.58-.03,.17-.05,.38-.05,.58v3.62h-1.23v-4.66Z"/>
    <path class="cls-3" d="M184.27,137.01h1.23v9.95h-1.23v-9.95Z"/>
    <path class="cls-3" d="M191.75,146.96l-.11-.86h-.04c-.37,.53-1.1,1.01-2.07,1.01-1.37,0-2.07-.97-2.07-1.94,0-1.64,1.45-2.54,4.07-2.52v-.14c0-.55-.15-1.57-1.54-1.56-.63,0-1.29,.19-1.76,.5l-.28-.82c.56-.36,1.38-.59,2.24-.59,2.07,0,2.58,1.42,2.58,2.77v2.53c0,.58,.03,1.16,.1,1.62h-1.11Zm-.19-3.46c-1.33-.03-2.86,.21-2.86,1.52,0,.81,.53,1.18,1.15,1.18,.89,0,1.45-.56,1.65-1.13,.04-.13,.06-.27,.06-.39v-1.18Z"/>
    <path class="cls-3" d="M199.03,140.18l1.33,3.8c.23,.63,.4,1.19,.55,1.75h.04c.15-.56,.35-1.13,.57-1.75l1.33-3.8h1.29l-2.67,6.77h-1.17l-2.58-6.77h1.32Z"/>
    <path class="cls-3" d="M206.26,143.79c.02,1.67,1.08,2.35,2.32,2.35,.88,0,1.42-.16,1.88-.35l.22,.88c-.43,.2-1.18,.43-2.26,.43-2.08,0-3.33-1.39-3.33-3.42s1.21-3.66,3.19-3.66c2.21,0,2.79,1.94,2.79,3.19,0,.26-.01,.44-.04,.58h-4.75Zm3.61-.89c.01-.78-.32-1.99-1.7-1.99-1.26,0-1.79,1.14-1.89,1.99h3.59Z"/>
    <path class="cls-3" d="M213,142.29c0-.8-.02-1.48-.06-2.11h1.08l.05,1.33h.04c.32-.91,1.06-1.48,1.89-1.48,.13,0,.23,0,.34,.04v1.16c-.13-.03-.25-.04-.42-.04-.87,0-1.48,.65-1.65,1.58-.03,.17-.05,.38-.05,.58v3.62h-1.23v-4.66Z"/>
    <path class="cls-3" d="M219.43,138.27c0,.42-.29,.77-.78,.77-.45,0-.74-.35-.74-.77,0-.42,.31-.77,.77-.77s.76,.34,.76,.77Zm-1.38,8.69v-6.77h1.22v6.77h-1.22Z"/>
    <path class="cls-3" d="M221.87,146.96v-5.84h-.95v-.93h.95v-.38c0-1.78,1.05-2.95,2.96-2.95,.64,0,1.37,.2,1.72,.45l-.35,.93c-.3-.2-.83-.39-1.43-.39-1.3,0-1.69,.91-1.69,2v.33h3.94v6.77h-1.23v-5.84h-2.71v5.84h-1.23Z"/>
    <path class="cls-3" d="M234.32,146.71c-.32,.16-1.03,.39-1.94,.39-2.04,0-3.38-1.39-3.38-3.46s1.42-3.61,3.64-3.61c.73,0,1.38,.18,1.71,.36l-.27,.95c-.3-.16-.76-.33-1.44-.33-1.55,0-2.39,1.16-2.39,2.57,0,1.57,1.01,2.54,2.36,2.54,.69,0,1.16-.17,1.51-.33l.21,.92Z"/>
    <path class="cls-3" d="M239.95,146.96l-.11-.86h-.04c-.37,.53-1.1,1.01-2.07,1.01-1.37,0-2.07-.97-2.07-1.94,0-1.64,1.46-2.54,4.07-2.52v-.14c0-.55-.16-1.57-1.54-1.56-.63,0-1.29,.19-1.76,.5l-.28-.82c.56-.36,1.38-.59,2.24-.59,2.07,0,2.58,1.42,2.58,2.77v2.53c0,.58,.03,1.16,.1,1.62h-1.11Zm-.19-3.46c-1.33-.03-2.86,.21-2.86,1.52,0,.81,.53,1.18,1.15,1.18,.89,0,1.46-.56,1.65-1.13,.04-.13,.06-.27,.06-.39v-1.18Z"/>
    <path class="cls-3" d="M248.2,146.71c-.32,.16-1.03,.39-1.94,.39-2.04,0-3.38-1.39-3.38-3.46s1.42-3.61,3.64-3.61c.73,0,1.38,.18,1.71,.36l-.27,.95c-.3-.16-.76-.33-1.44-.33-1.55,0-2.39,1.16-2.39,2.57,0,1.57,1.01,2.54,2.36,2.54,.69,0,1.16-.17,1.51-.33l.21,.92Z"/>
    <path class="cls-3" d="M251.43,138.27c0,.42-.29,.77-.78,.77-.45,0-.74-.35-.74-.77,0-.42,.31-.77,.77-.77s.76,.34,.76,.77Zm-1.38,8.69v-6.77h1.22v6.77h-1.22Z"/>
    <path class="cls-3" d="M259.89,143.5c0,2.51-1.74,3.61-3.37,3.61-1.84,0-3.26-1.34-3.26-3.49,0-2.27,1.49-3.59,3.36-3.59s3.26,1.41,3.26,3.48Zm-5.37,.08c0,1.49,.85,2.6,2.05,2.6s2.06-1.1,2.06-2.64c0-1.15-.58-2.59-2.04-2.59s-2.08,1.35-2.08,2.63Zm3.9-6.34l-1.71,2.01h-.87l1.23-2.01h1.35Z"/>
    <path class="cls-3" d="M261.86,142.01c0-.71-.02-1.27-.06-1.83h1.09l.07,1.11h.03c.33-.64,1.12-1.27,2.24-1.27,.93,0,2.39,.56,2.39,2.89v4.04h-1.23v-3.91c0-1.09-.41-2.01-1.57-2.01-.81,0-1.44,.57-1.66,1.26-.05,.15-.08,.37-.08,.57v4.08h-1.23v-4.94Z"/>
    <path class="cls-3" d="M273.26,145.7c.37,.23,1.02,.48,1.63,.48,.9,0,1.32-.44,1.32-1.01s-.36-.9-1.26-1.24c-1.22-.44-1.8-1.11-1.8-1.92,0-1.09,.89-1.99,2.34-1.99,.69,0,1.28,.19,1.66,.42l-.31,.9c-.26-.16-.76-.4-1.39-.4-.73,0-1.12,.42-1.12,.93,0,.56,.4,.81,1.29,1.16,1.17,.44,1.77,1.02,1.78,2.04,0,1.2-.93,2.04-2.53,2.04-.74,0-1.43-.19-1.9-.47l.3-.93Z"/>
    <path class="cls-3" d="M285.07,145.1c0,.71,.02,1.32,.05,1.85h-1.09l-.07-1.11h-.03c-.31,.54-1.03,1.26-2.24,1.26-1.06,0-2.33-.59-2.33-2.97v-3.96h1.23v3.74c0,1.29,.4,2.17,1.51,2.17,.83,0,1.4-.58,1.63-1.13,.06-.18,.11-.4,.11-.63v-4.15h1.23v4.92Z"/>
    <path class="cls-3" d="M287.48,146.96c.03-.47,.06-1.14,.06-1.75v-8.2h1.22v4.26h.03c.43-.76,1.22-1.24,2.31-1.24,1.68,0,2.87,1.4,2.86,3.45,0,2.43-1.54,3.63-3.05,3.63-.98,0-1.76-.38-2.27-1.27h-.03l-.06,1.11h-1.06Zm1.28-2.71c0,.15,.02,.31,.05,.45,.23,.86,.96,1.44,1.85,1.44,1.3,0,2.06-1.05,2.06-2.6,0-1.36-.7-2.53-2.02-2.53-.83,0-1.62,.58-1.86,1.51-.04,.15-.07,.32-.07,.51v1.22Z"/>
    <path class="cls-3" d="M299.68,146.96l-.11-.86h-.04c-.37,.53-1.1,1.01-2.07,1.01-1.37,0-2.07-.97-2.07-1.94,0-1.64,1.45-2.54,4.07-2.52v-.14c0-.55-.15-1.57-1.54-1.56-.63,0-1.29,.19-1.76,.5l-.28-.82c.56-.36,1.38-.59,2.24-.59,2.07,0,2.58,1.42,2.58,2.77v2.53c0,.58,.03,1.16,.1,1.62h-1.11Zm-.19-3.46c-1.33-.03-2.86,.21-2.86,1.52,0,.81,.53,1.18,1.15,1.18,.89,0,1.45-.56,1.65-1.13,.04-.13,.06-.27,.06-.39v-1.18Z"/>
    <path class="cls-3" d="M312.14,145.1c0,.71,.02,1.32,.06,1.85h-1.09l-.07-1.11h-.03c-.31,.54-1.03,1.26-2.24,1.26-1.06,0-2.33-.59-2.33-2.97v-3.96h1.23v3.74c0,1.29,.4,2.17,1.51,2.17,.83,0,1.4-.58,1.63-1.13,.06-.18,.11-.4,.11-.63v-4.15h1.23v4.92Z"/>
    <path class="cls-3" d="M314.61,142.01c0-.71-.02-1.27-.06-1.83h1.09l.07,1.11h.03c.33-.64,1.12-1.27,2.24-1.27,.93,0,2.39,.56,2.39,2.89v4.04h-1.23v-3.91c0-1.09-.41-2.01-1.57-2.01-.81,0-1.44,.57-1.66,1.26-.05,.15-.08,.37-.08,.57v4.08h-1.23v-4.94Z"/>
    <path class="cls-3" d="M326.56,146.96l-.11-.86h-.04c-.37,.53-1.1,1.01-2.07,1.01-1.37,0-2.07-.97-2.07-1.94,0-1.64,1.46-2.54,4.07-2.52v-.14c0-.55-.15-1.57-1.54-1.56-.63,0-1.29,.19-1.76,.5l-.28-.82c.56-.36,1.38-.59,2.24-.59,2.07,0,2.58,1.42,2.58,2.77v2.53c0,.58,.03,1.16,.1,1.62h-1.11Zm-.19-3.46c-1.33-.03-2.86,.21-2.86,1.52,0,.81,.53,1.18,1.15,1.18,.89,0,1.45-.56,1.65-1.13,.04-.13,.06-.27,.06-.39v-1.18Z"/>
    <path class="cls-3" d="M40.33,163.76v-5.84h-.95v-.93h.95v-.33c0-.96,.22-1.82,.79-2.37,.46-.45,1.08-.62,1.65-.62,.45,0,.82,.09,1.05,.2l-.16,.95c-.19-.08-.43-.15-.79-.15-1.04,0-1.31,.92-1.31,1.97v.37h1.64v.93h-1.63v5.84h-1.23Z"/>
    <path class="cls-3" d="M50.67,160.3c0,2.51-1.74,3.61-3.37,3.61-1.84,0-3.26-1.34-3.26-3.49,0-2.27,1.49-3.59,3.36-3.59s3.26,1.41,3.26,3.48Zm-5.37,.08c0,1.49,.85,2.6,2.05,2.6s2.06-1.1,2.06-2.64c0-1.15-.58-2.59-2.04-2.59s-2.08,1.35-2.08,2.63Z"/>
    <path class="cls-3" d="M54.12,155.03v1.95h1.77v.93h-1.77v3.65c0,.84,.24,1.32,.93,1.32,.32,0,.55-.04,.71-.09l.06,.94c-.24,.09-.62,.17-1.1,.17-.57,0-1.04-.19-1.33-.52-.34-.37-.48-.97-.48-1.77v-3.7h-1.05v-.93h1.05v-1.63l1.21-.32Z"/>
    <path class="cls-3" d="M63.74,160.3c0,2.51-1.74,3.61-3.37,3.61-1.84,0-3.26-1.34-3.26-3.49,0-2.27,1.49-3.59,3.36-3.59s3.26,1.41,3.26,3.48Zm-5.37,.08c0,1.49,.85,2.6,2.05,2.6s2.06-1.1,2.06-2.64c0-1.15-.58-2.59-2.04-2.59s-2.08,1.35-2.08,2.63Z"/>
    <path class="cls-3" d="M74.95,153.81v8.2c0,.6,.02,1.28,.06,1.75h-1.1l-.06-1.17h-.03c-.38,.76-1.19,1.33-2.3,1.33-1.64,0-2.91-1.39-2.91-3.44-.01-2.26,1.39-3.64,3.04-3.64,1.04,0,1.74,.49,2.04,1.03h.03v-4.04h1.23Zm-1.23,5.93c0-.16-.01-.37-.05-.53-.19-.78-.86-1.42-1.78-1.42-1.28,0-2.04,1.12-2.04,2.61,0,1.38,.68,2.52,2.01,2.52,.82,0,1.57-.56,1.8-1.48,.04-.16,.06-.34,.06-.53v-1.17Z"/>
    <path class="cls-3" d="M78.11,160.59c.02,1.67,1.08,2.35,2.32,2.35,.88,0,1.42-.16,1.88-.35l.22,.88c-.43,.2-1.18,.43-2.26,.43-2.08,0-3.33-1.39-3.33-3.42s1.21-3.66,3.19-3.66c2.21,0,2.79,1.94,2.79,3.19,0,.26-.02,.44-.04,.58h-4.75Zm3.61-.89c.01-.78-.32-1.99-1.7-1.99-1.26,0-1.79,1.14-1.89,1.99h3.59Z"/>
    <path class="cls-3" d="M88.07,162.5c.37,.23,1.02,.48,1.63,.48,.9,0,1.32-.44,1.32-1.01s-.36-.9-1.26-1.24c-1.22-.44-1.8-1.11-1.8-1.92,0-1.09,.89-1.99,2.34-1.99,.69,0,1.28,.19,1.66,.42l-.31,.9c-.26-.16-.76-.4-1.39-.4-.73,0-1.12,.42-1.12,.93,0,.56,.4,.81,1.29,1.16,1.17,.44,1.77,1.02,1.78,2.04,0,1.2-.93,2.04-2.53,2.04-.74,0-1.43-.19-1.9-.47l.3-.93Z"/>
    <path class="cls-3" d="M99.87,161.9c0,.71,.02,1.32,.06,1.85h-1.09l-.07-1.11h-.03c-.31,.54-1.03,1.26-2.24,1.26-1.06,0-2.33-.59-2.33-2.97v-3.96h1.23v3.74c0,1.29,.4,2.17,1.51,2.17,.83,0,1.4-.58,1.63-1.13,.06-.18,.11-.4,.11-.63v-4.15h1.23v4.92Z"/>
    <path class="cls-3" d="M110.56,163.51c-.32,.16-1.03,.39-1.94,.39-2.04,0-3.38-1.39-3.38-3.46s1.42-3.61,3.64-3.61c.73,0,1.38,.18,1.71,.36l-.27,.95c-.3-.16-.76-.33-1.44-.33-1.55,0-2.39,1.16-2.39,2.57,0,1.57,1.01,2.54,2.36,2.54,.69,0,1.16-.17,1.51-.33l.21,.92Z"/>
    <path class="cls-3" d="M112.42,153.81h1.23v9.95h-1.23v-9.95Z"/>
    <path class="cls-3" d="M119.9,163.76l-.11-.86h-.04c-.37,.53-1.1,1.01-2.07,1.01-1.37,0-2.07-.97-2.07-1.94,0-1.64,1.45-2.54,4.07-2.52v-.14c0-.55-.15-1.57-1.54-1.56-.63,0-1.29,.19-1.76,.5l-.28-.82c.56-.36,1.38-.59,2.24-.59,2.07,0,2.58,1.42,2.58,2.77v2.53c0,.58,.03,1.16,.1,1.62h-1.11Zm-.19-3.46c-1.33-.03-2.86,.21-2.86,1.52,0,.81,.53,1.18,1.15,1.18,.89,0,1.45-.56,1.65-1.13,.04-.13,.06-.27,.06-.39v-1.18Z"/>
    <path class="cls-3" d="M123.67,156.98l1.33,3.8c.23,.63,.4,1.19,.55,1.75h.04c.16-.56,.35-1.13,.57-1.75l1.33-3.8h1.29l-2.67,6.77h-1.18l-2.58-6.77h1.32Z"/>
    <path class="cls-3" d="M130.9,160.59c.02,1.67,1.08,2.35,2.32,2.35,.88,0,1.42-.16,1.88-.35l.22,.88c-.43,.2-1.18,.43-2.26,.43-2.08,0-3.33-1.39-3.33-3.42s1.21-3.66,3.19-3.66c2.21,0,2.79,1.94,2.79,3.19,0,.26-.02,.44-.04,.58h-4.75Zm3.61-.89c.01-.78-.32-1.99-1.7-1.99-1.26,0-1.79,1.14-1.89,1.99h3.59Z"/>
    <path class="cls-3" d="M146.88,153.81v8.2c0,.6,.02,1.28,.06,1.75h-1.1l-.06-1.17h-.03c-.38,.76-1.19,1.33-2.3,1.33-1.64,0-2.91-1.39-2.91-3.44-.01-2.26,1.39-3.64,3.04-3.64,1.04,0,1.74,.49,2.04,1.03h.03v-4.04h1.23Zm-1.23,5.93c0-.16-.01-.37-.05-.53-.19-.78-.86-1.42-1.78-1.42-1.28,0-2.04,1.12-2.04,2.61,0,1.38,.68,2.52,2.01,2.52,.82,0,1.57-.56,1.8-1.48,.04-.16,.06-.34,.06-.53v-1.17Z"/>
    <path class="cls-3" d="M150.73,155.07c0,.42-.29,.77-.78,.77-.45,0-.74-.35-.74-.77,0-.42,.31-.77,.77-.77s.76,.34,.76,.77Zm-1.38,8.69v-6.77h1.23v6.77h-1.23Z"/>
    <path class="cls-3" d="M153.05,158.81c0-.71-.02-1.27-.06-1.83h1.09l.07,1.11h.03c.33-.64,1.12-1.27,2.24-1.27,.93,0,2.39,.56,2.39,2.89v4.04h-1.23v-3.91c0-1.09-.41-2.01-1.57-2.01-.81,0-1.44,.57-1.66,1.26-.05,.15-.08,.37-.08,.57v4.08h-1.23v-4.94Z"/>
    <path class="cls-3" d="M164.99,163.76l-.11-.86h-.04c-.37,.53-1.1,1.01-2.07,1.01-1.37,0-2.07-.97-2.07-1.94,0-1.64,1.45-2.54,4.07-2.52v-.14c0-.55-.15-1.57-1.54-1.56-.63,0-1.29,.19-1.76,.5l-.28-.82c.56-.36,1.38-.59,2.24-.59,2.07,0,2.58,1.42,2.58,2.77v2.53c0,.58,.03,1.16,.1,1.62h-1.11Zm-.19-3.46c-1.33-.03-2.86,.21-2.86,1.52,0,.81,.53,1.18,1.15,1.18,.89,0,1.45-.56,1.65-1.13,.04-.13,.06-.27,.06-.39v-1.18Z"/>
    <path class="cls-3" d="M168.4,158.81c0-.71-.02-1.27-.06-1.83h1.07l.06,1.09h.03c.38-.64,1.01-1.25,2.14-1.25,.92,0,1.62,.56,1.91,1.36h.03c.22-.39,.48-.68,.76-.88,.41-.31,.85-.48,1.49-.48,.9,0,2.24,.58,2.24,2.94v3.99h-1.2v-3.83c0-1.31-.48-2.09-1.47-2.09-.71,0-1.25,.51-1.47,1.11-.06,.18-.1,.4-.1,.62v4.19h-1.2v-4.07c0-1.08-.48-1.85-1.41-1.85-.77,0-1.33,.61-1.54,1.23-.06,.18-.09,.4-.09,.61v4.08h-1.2v-4.94Z"/>
    <path class="cls-3" d="M181.88,155.07c0,.42-.29,.77-.78,.77-.45,0-.74-.35-.74-.77,0-.42,.31-.77,.77-.77s.76,.34,.76,.77Zm-1.38,8.69v-6.77h1.23v6.77h-1.23Z"/>
    <path class="cls-3" d="M189.03,163.51c-.32,.16-1.03,.39-1.94,.39-2.04,0-3.38-1.39-3.38-3.46s1.42-3.61,3.64-3.61c.73,0,1.38,.18,1.71,.36l-.27,.95c-.3-.16-.76-.33-1.44-.33-1.55,0-2.39,1.16-2.39,2.57,0,1.57,1.01,2.54,2.36,2.54,.69,0,1.16-.17,1.51-.33l.21,.92Z"/>
    <path class="cls-3" d="M194.66,163.76l-.11-.86h-.04c-.37,.53-1.1,1.01-2.07,1.01-1.37,0-2.07-.97-2.07-1.94,0-1.64,1.45-2.54,4.07-2.52v-.14c0-.55-.15-1.57-1.54-1.56-.63,0-1.29,.19-1.76,.5l-.28-.82c.56-.36,1.38-.59,2.24-.59,2.07,0,2.58,1.42,2.58,2.77v2.53c0,.58,.03,1.16,.1,1.62h-1.11Zm-.19-3.46c-1.33-.03-2.86,.21-2.86,1.52,0,.81,.53,1.18,1.15,1.18,.89,0,1.45-.56,1.65-1.13,.04-.13,.06-.27,.06-.39v-1.18Z"/>
    <path class="cls-3" d="M201.9,156.98l1.48,4c.16,.45,.32,.98,.44,1.38h.03c.12-.4,.27-.92,.43-1.41l1.34-3.98h1.31l-1.85,4.83c-.88,2.33-1.48,3.52-2.32,4.25-.61,.53-1.21,.74-1.51,.79l-.31-1.03c.31-.1,.71-.29,1.08-.6,.33-.27,.74-.75,1.03-1.37,.06-.13,.1-.22,.1-.3,0-.07-.02-.17-.09-.32l-2.5-6.25h1.34Z"/>
    <path class="cls-3" d="M211.86,153.81h1.23v9.95h-1.23v-9.95Z"/>
    <path class="cls-3" d="M221.25,161.9c0,.71,.02,1.32,.05,1.85h-1.09l-.07-1.11h-.03c-.31,.54-1.03,1.26-2.24,1.26-1.06,0-2.33-.59-2.33-2.97v-3.96h1.23v3.74c0,1.29,.4,2.17,1.51,2.17,.83,0,1.4-.58,1.63-1.13,.06-.18,.11-.4,.11-.63v-4.15h1.23v4.92Z"/>
    <path class="cls-3" d="M224.41,160.59c.02,1.67,1.08,2.35,2.32,2.35,.88,0,1.42-.16,1.88-.35l.21,.88c-.43,.2-1.18,.43-2.26,.43-2.08,0-3.33-1.39-3.33-3.42s1.21-3.66,3.19-3.66c2.21,0,2.79,1.94,2.79,3.19,0,.26-.02,.44-.04,.58h-4.75Zm3.61-.89c.01-.78-.32-1.99-1.7-1.99-1.26,0-1.79,1.14-1.89,1.99h3.59Z"/>
    <path class="cls-3" d="M237,156.98c-.03,.48-.06,1.03-.06,1.85v3.93c0,1.57-.32,2.51-.97,3.1-.67,.61-1.61,.81-2.47,.81s-1.71-.19-2.26-.56l.31-.95c.45,.28,1.15,.54,1.99,.54,1.26,0,2.18-.66,2.18-2.37v-.75h-.03c-.37,.64-1.11,1.14-2.15,1.14-1.69,0-2.89-1.44-2.89-3.31,0-2.3,1.49-3.59,3.06-3.59,1.18,0,1.81,.61,2.11,1.17h.03l.05-1.01h1.09Zm-1.28,2.67c0-.2-.02-.39-.07-.55-.23-.72-.82-1.31-1.73-1.31-1.18,0-2.02,.99-2.02,2.57,0,1.33,.68,2.44,2.01,2.44,.76,0,1.45-.48,1.71-1.27,.07-.2,.1-.44,.1-.66v-1.22Z"/>
    <path class="cls-3" d="M245.53,160.3c0,2.51-1.74,3.61-3.37,3.61-1.84,0-3.26-1.34-3.26-3.49,0-2.27,1.49-3.59,3.36-3.59s3.26,1.41,3.26,3.48Zm-5.37,.08c0,1.49,.85,2.6,2.05,2.6s2.06-1.1,2.06-2.64c0-1.15-.58-2.59-2.04-2.59s-2.08,1.35-2.08,2.63Z"/>
    <path class="cls-3" d="M256.74,153.81v8.2c0,.6,.02,1.28,.06,1.75h-1.1l-.06-1.17h-.03c-.38,.76-1.19,1.33-2.3,1.33-1.64,0-2.91-1.39-2.91-3.44,0-2.26,1.39-3.64,3.04-3.64,1.04,0,1.74,.49,2.04,1.03h.03v-4.04h1.23Zm-1.23,5.93c0-.16-.01-.37-.05-.53-.19-.78-.86-1.42-1.78-1.42-1.28,0-2.04,1.12-2.04,2.61,0,1.38,.68,2.52,2.01,2.52,.83,0,1.57-.56,1.8-1.48,.04-.16,.06-.34,.06-.53v-1.17Z"/>
    <path class="cls-3" d="M259.9,160.59c.02,1.67,1.08,2.35,2.32,2.35,.88,0,1.42-.16,1.88-.35l.22,.88c-.43,.2-1.18,.43-2.26,.43-2.08,0-3.33-1.39-3.33-3.42s1.21-3.66,3.19-3.66c2.21,0,2.79,1.94,2.79,3.19,0,.26-.01,.44-.04,.58h-4.75Zm3.61-.89c.01-.78-.32-1.99-1.7-1.99-1.26,0-1.79,1.14-1.89,1.99h3.59Z"/>
    <path class="cls-3" d="M274.86,163.51c-.32,.16-1.03,.39-1.94,.39-2.04,0-3.38-1.39-3.38-3.46s1.42-3.61,3.64-3.61c.73,0,1.38,.18,1.71,.36l-.27,.95c-.3-.16-.76-.33-1.44-.33-1.54,0-2.39,1.16-2.39,2.57,0,1.57,1.01,2.54,2.36,2.54,.69,0,1.16-.17,1.51-.33l.21,.92Z"/>
    <path class="cls-3" d="M276.72,153.81h1.22v9.95h-1.22v-9.95Z"/>
    <path class="cls-3" d="M281.82,155.07c0,.42-.29,.77-.78,.77-.45,0-.74-.35-.74-.77s.31-.77,.77-.77,.76,.34,.76,.77Zm-1.38,8.69v-6.77h1.23v6.77h-1.23Z"/>
    <path class="cls-3" d="M288.97,163.51c-.32,.16-1.03,.39-1.94,.39-2.04,0-3.38-1.39-3.38-3.46s1.42-3.61,3.64-3.61c.73,0,1.38,.18,1.71,.36l-.27,.95c-.3-.16-.76-.33-1.44-.33-1.54,0-2.39,1.16-2.39,2.57,0,1.57,1.01,2.54,2.36,2.54,.69,0,1.16-.17,1.51-.33l.21,.92Z"/>
    <path class="cls-3" d="M292.05,160.09h.03c.17-.24,.4-.54,.59-.77l2-2.33h1.48l-2.62,2.79,2.98,3.99h-1.5l-2.33-3.26-.63,.71v2.55h-1.22v-9.95h1.22v6.28Z"/>
    <path class="cls-3" d="M301.89,160.59c.03,1.67,1.08,2.35,2.32,2.35,.88,0,1.42-.16,1.88-.35l.22,.88c-.43,.2-1.18,.43-2.26,.43-2.08,0-3.33-1.39-3.33-3.42s1.21-3.66,3.19-3.66c2.21,0,2.79,1.94,2.79,3.19,0,.26-.01,.44-.04,.58h-4.75Zm3.61-.89c.01-.78-.32-1.99-1.7-1.99-1.26,0-1.79,1.14-1.89,1.99h3.59Z"/>
    <path class="cls-3" d="M308.64,158.81c0-.71-.02-1.27-.06-1.83h1.09l.07,1.11h.03c.33-.64,1.12-1.27,2.24-1.27,.93,0,2.39,.56,2.39,2.89v4.04h-1.23v-3.91c0-1.09-.41-2.01-1.57-2.01-.81,0-1.44,.57-1.66,1.26-.05,.15-.08,.37-.08,.57v4.08h-1.23v-4.94Z"/>
    <path class="cls-3" d="M325.05,163.51c-.32,.16-1.03,.39-1.94,.39-2.04,0-3.38-1.39-3.38-3.46s1.42-3.61,3.64-3.61c.73,0,1.38,.18,1.71,.36l-.27,.95c-.3-.16-.76-.33-1.44-.33-1.55,0-2.39,1.16-2.39,2.57,0,1.57,1.01,2.54,2.36,2.54,.69,0,1.16-.17,1.51-.33l.21,.92Z"/>
    <path class="cls-3" d="M332.96,160.3c0,2.51-1.74,3.61-3.37,3.61-1.84,0-3.26-1.34-3.26-3.49,0-2.27,1.49-3.59,3.36-3.59s3.26,1.41,3.26,3.48Zm-5.37,.08c0,1.49,.85,2.6,2.05,2.6s2.06-1.1,2.06-2.64c0-1.15-.58-2.59-2.04-2.59s-2.08,1.35-2.08,2.63Z"/>
    <path class="cls-3" d="M334.93,158.81c0-.71-.02-1.27-.06-1.83h1.09l.07,1.11h.03c.33-.64,1.12-1.27,2.24-1.27,.93,0,2.39,.56,2.39,2.89v4.04h-1.23v-3.91c0-1.09-.41-2.01-1.57-2.01-.81,0-1.44,.57-1.66,1.26-.05,.15-.08,.37-.08,.57v4.08h-1.23v-4.94Z"/>
    <path class="cls-3" d="M344.54,155.03v1.95h1.77v.93h-1.77v3.65c0,.84,.24,1.32,.93,1.32,.32,0,.55-.04,.71-.09l.06,.94c-.24,.09-.62,.17-1.1,.17-.57,0-1.04-.19-1.33-.52-.34-.37-.48-.97-.48-1.77v-3.7h-1.05v-.93h1.05v-1.63l1.21-.32Z"/>
    <path class="cls-3" d="M349.5,155.07c0,.42-.29,.77-.78,.77-.45,0-.74-.35-.74-.77,0-.42,.31-.77,.77-.77s.76,.34,.76,.77Zm-1.38,8.69v-6.77h1.23v6.77h-1.23Z"/>
    <path class="cls-3" d="M351.81,158.81c0-.71-.02-1.27-.06-1.83h1.09l.07,1.11h.03c.33-.64,1.12-1.27,2.24-1.27,.93,0,2.39,.56,2.39,2.89v4.04h-1.23v-3.91c0-1.09-.41-2.01-1.57-2.01-.81,0-1.44,.57-1.66,1.26-.05,.15-.08,.37-.08,.57v4.08h-1.23v-4.94Z"/>
    <path class="cls-3" d="M365.67,161.9c0,.71,.02,1.32,.06,1.85h-1.09l-.07-1.11h-.03c-.31,.54-1.03,1.26-2.24,1.26-1.06,0-2.33-.59-2.33-2.97v-3.96h1.23v3.74c0,1.29,.4,2.17,1.51,2.17,.83,0,1.4-.58,1.63-1.13,.06-.18,.11-.4,.11-.63v-4.15h1.23v4.92Z"/>
    <path class="cls-3" d="M371.89,163.76l-.11-.86h-.04c-.37,.53-1.1,1.01-2.07,1.01-1.37,0-2.07-.97-2.07-1.94,0-1.64,1.46-2.54,4.07-2.52v-.14c0-.55-.15-1.57-1.54-1.56-.63,0-1.29,.19-1.76,.5l-.28-.82c.56-.36,1.38-.59,2.24-.59,2.07,0,2.58,1.42,2.58,2.77v2.53c0,.58,.03,1.16,.1,1.62h-1.11Zm-.19-3.46c-1.33-.03-2.86,.21-2.86,1.52,0,.81,.53,1.18,1.15,1.18,.89,0,1.45-.56,1.65-1.13,.04-.13,.06-.27,.06-.39v-1.18Z"/>
    <path class="cls-3" d="M375.3,159.09c0-.8-.02-1.48-.06-2.11h1.08l.05,1.33h.04c.32-.91,1.06-1.48,1.89-1.48,.13,0,.23,0,.34,.04v1.16c-.13-.03-.25-.04-.42-.04-.87,0-1.48,.65-1.65,1.58-.03,.17-.05,.38-.05,.58v3.62h-1.23v-4.66Z"/>
  </g>
  <path class="cls-6" d="M227,93.88v24.75c0,.62-.5,1.12-1.12,1.12h-42.75c-.62,0-1.12-.5-1.12-1.12v-24.75c0-.62,.5-1.12,1.12-1.12h42.75c.62,0,1.12,.5,1.12,1.12Zm0-5.62h-45c-2.49,0-4.5,2.01-4.5,4.5v27c0,2.49,2.01,4.5,4.5,4.5h45c2.49,0,4.5-2.01,4.5-4.5v-27c0-2.49-2.01-4.5-4.5-4.5Z"/>
  <g>
    <rect class="cls-6" x="187.38" y="95.75" width="7" height="2"/>
    <rect class="cls-6" x="196.38" y="95.75" width="7" height="2"/>
    <rect class="cls-6" x="205.38" y="95.75" width="7" height="2"/>
    <rect class="cls-6" x="214.38" y="95.75" width="7" height="2"/>
  </g>
  <g>
    <rect class="cls-6" x="187.38" y="101.83" width="7" height="2"/>
    <rect class="cls-6" x="196.38" y="101.83" width="7" height="2"/>
    <rect class="cls-6" x="205.38" y="101.83" width="7" height="2"/>
    <rect class="cls-6" x="214.38" y="101.83" width="7" height="2"/>
  </g>
  <g>
    <rect class="cls-6" x="187.38" y="107.92" width="7" height="2"/>
    <rect class="cls-6" x="196.38" y="107.92" width="7" height="2"/>
    <rect class="cls-6" x="205.38" y="107.92" width="7" height="2"/>
    <rect class="cls-6" x="214.38" y="107.92" width="7" height="2"/>
  </g>
  <g>
    <rect class="cls-6" x="187.38" y="114" width="7" height="2"/>
    <rect class="cls-6" x="196.38" y="114" width="7" height="2"/>
    <rect class="cls-6" x="205.38" y="114" width="7" height="2"/>
    <rect class="cls-6" x="214.38" y="114" width="7" height="2"/>
  </g>
</svg>