<?xml version="1.0" encoding="utf-8"?>
<!-- Generator: Adobe Illustrator 26.4.1, SVG Export Plug-In . SVG Version: 6.00 Build 0)  -->
<svg version="1.1" id="Capa_1" xmlns="http://www.w3.org/2000/svg" xmlns:xlink="http://www.w3.org/1999/xlink" x="0px" y="0px"
	 viewBox="0 0 735 324" style="enable-background:new 0 0 735 324;" xml:space="preserve">
<style type="text/css">
	.st0{fill:#FFFFFF;}
	.st1{fill:#17479E;}
	.st2{fill:#ED1C24;}
</style>
<g>
	<rect x="-0.4" y="0.7" class="st0" width="737.9" height="329.6"/>
	<path class="st1" d="M598.5,88.7c-9.9-5.8-20.4-8.4-33.2-8.4c-20.3,0-40.3,6.4-56.3,18c-16.4,11.9-27.2,28.2-30.4,45.9
		c-2.8,15.8,1.1,30.8,10.8,42.5c11.8,14,31.1,22.1,53.1,22.1c12.1,0,24.9-3,37.1-8.6l2.1-1l0.4-2.2l4.4-23.6l2-10.5l-8.8,6
		c-13.1,9-23.7,13-34.2,13c-13.4,0-24.4-4.4-31.2-12.5c-5.6-6.7-7.8-15.2-6.2-24.2c3.7-21.2,27.3-38.4,52.6-38.4
		c10.4,0,20.1,3.9,28.7,11.7l5.9,5.3l1.4-7.8l4-22.7l0.5-3L598.5,88.7z M380.9,205.4l21.6-122.6h22.3c9.9,0,17.7,0.6,23.4,1.9
		c5.7,1.3,10.4,3.4,14,6.4c3.6,3.1,6.2,7,7.8,11.7c1.7,4.7,2.1,9.5,1.2,14.3c-1.5,8.8-6.9,16.2-16.1,22.3c7.5,2.2,13,6.1,16.6,11.7
		c3.6,5.5,4.8,11.9,3.5,19.2c-1.7,9.6-7.2,17.7-16.6,24.3c-5.6,4.1-11.7,6.9-18.1,8.5c-7,1.5-15.6,2.3-25.7,2.3L380.9,205.4
		L380.9,205.4z M423.1,131.5h3.9c4.6,0,8.2-1,10.7-2.9c2.5-2,4.2-4.9,5-8.7c0.8-3.7,0.2-6.6-1.6-8.5c-1.8-1.9-4.8-2.9-9-2.9h-4.4
		L423.1,131.5z M414.6,180.1h9.1c6.7,0,11.8-1.1,15.3-3.2c3.7-2.3,5.9-5.3,6.5-8.9c0.6-3.5-0.4-6.4-3.2-8.8c-2.7-2.3-8-3.5-15.9-3.5
		h-7.5L414.6,180.1z M655.6,156.1c32.9-11.7,31.9-40.3,31.9-40.3c0-34.6-43.1-33.1-43.1-33.1h-34l-21.6,122.7h29.2l7.6-42.9
		l26.9,42.9h35.7L655.6,156.1z M635.4,135H631l5.1-26.5h4.9c12.8,0,18.4,4.3,16.7,12.8C656,130.4,648.6,135,635.4,135z"/>
	<g>
		<g>
			<g>
				<g>
					<path class="st2" d="M229.8,229l-3,1.6c-0.3-0.9-0.7-1.5-1.1-1.7c-0.4-0.3-1-0.5-1.8-0.5c-0.9,0-1.7,0.3-2.5,0.8
						c-0.7,0.5-1.1,1.2-1.3,2c-0.2,1.1,0.5,2,2,2.6l2.1,0.9c1.7,0.7,2.8,1.6,3.5,2.7c0.7,1,0.8,2.3,0.6,3.9c-0.4,2.1-1.4,3.8-3,5.1
						c-1.6,1.3-3.4,2-5.5,2c-1.9,0-3.4-0.6-4.5-1.7c-1-1.1-1.5-2.8-1.5-4.8l3.5-0.7c-0.1,1.3,0,2.2,0.3,2.7c0.5,1,1.4,1.5,2.8,1.5
						c1.1,0,2-0.4,2.8-1.1c0.8-0.7,1.3-1.6,1.5-2.7c0.1-0.4,0.1-0.8,0-1.2c-0.1-0.3-0.2-0.7-0.4-1c-0.2-0.3-0.5-0.6-0.8-0.8
						c-0.4-0.3-0.8-0.5-1.3-0.8l-2-0.9c-2.8-1.3-4-3.2-3.6-5.7c0.3-1.7,1.2-3.1,2.7-4.2c1.5-1.1,3.2-1.7,5.1-1.7
						C227,225.3,228.8,226.5,229.8,229z"/>
					<path class="st2" d="M230.6,236.7c0.6-3.1,2.2-5.8,4.9-8.1c2.7-2.3,5.6-3.4,8.9-3.4c3.2,0,5.7,1.1,7.6,3.4c1.9,2.3,2.5,5,2,8.2
						c-0.6,3.2-2.2,5.9-4.9,8.1c-2.7,2.2-5.7,3.4-8.9,3.4c-2.9,0-5.3-1-7.2-3C230.7,243.2,229.9,240.3,230.6,236.7z M234,236.8
						c-0.4,2.5,0,4.5,1.4,6.1c1.4,1.6,3.1,2.4,5.3,2.4c2.3,0,4.5-0.8,6.3-2.4c1.9-1.6,3.1-3.6,3.5-6c0.4-2.4,0-4.4-1.3-6
						c-1.3-1.6-3.1-2.4-5.4-2.4c-2.3,0-4.4,0.8-6.3,2.4C235.5,232.4,234.4,234.4,234,236.8z"/>
					<path class="st2" d="M254,248l8.9-23.9l4.6,17.3l11-17.3l0,23.9H275l0.2-13.4l-9.2,14.5l-3.8-14.5l-4.8,13.5H254z"/>
					<path class="st2" d="M282.7,236.7c0.6-3.1,2.2-5.8,4.9-8.1c2.7-2.3,5.6-3.4,8.9-3.4c3.2,0,5.7,1.1,7.6,3.4c1.9,2.3,2.5,5,2,8.2
						c-0.6,3.2-2.2,5.9-4.9,8.1c-2.7,2.2-5.7,3.4-8.9,3.4c-2.9,0-5.3-1-7.2-3C282.8,243.2,282.1,240.3,282.7,236.7z M286.1,236.8
						c-0.4,2.5,0,4.5,1.4,6.1c1.4,1.6,3.1,2.4,5.3,2.4c2.3,0,4.4-0.8,6.3-2.4c1.9-1.6,3.1-3.6,3.5-6c0.4-2.4,0-4.4-1.3-6
						c-1.3-1.6-3.1-2.4-5.4-2.4c-2.3,0-4.4,0.8-6.3,2.4C287.7,232.4,286.5,234.4,286.1,236.8z"/>
					<path class="st2" d="M322.9,229l-3,1.6c-0.4-0.9-0.7-1.5-1.1-1.7c-0.4-0.3-1-0.5-1.8-0.5c-0.9,0-1.7,0.3-2.5,0.8
						c-0.7,0.5-1.1,1.2-1.3,2c-0.2,1.1,0.5,2,2,2.6l2.1,0.9c1.7,0.7,2.8,1.6,3.5,2.7c0.7,1,0.8,2.3,0.6,3.9c-0.4,2.1-1.3,3.8-3,5.1
						c-1.6,1.3-3.4,2-5.5,2c-1.9,0-3.4-0.6-4.5-1.7c-1-1.1-1.5-2.8-1.5-4.8l3.5-0.7c-0.1,1.3,0,2.2,0.3,2.7c0.5,1,1.4,1.5,2.8,1.5
						c1,0,2-0.4,2.8-1.1c0.8-0.7,1.3-1.6,1.5-2.7c0.1-0.4,0.1-0.8,0-1.2c-0.1-0.3-0.2-0.7-0.4-1c-0.2-0.3-0.5-0.6-0.8-0.8
						c-0.4-0.3-0.8-0.5-1.3-0.8l-2-0.9c-2.8-1.3-4-3.2-3.6-5.7c0.3-1.7,1.2-3.1,2.7-4.2c1.5-1.1,3.2-1.7,5.1-1.7
						C320.1,225.3,321.9,226.5,322.9,229z"/>
					<path class="st2" d="M346.3,228.8h-8.9l-1,5.4h8.7l-0.6,3.2h-8.7l-1.3,7.4h8.9l-0.6,3.2h-12.3l4-22.3h12.3L346.3,228.8z"/>
					<path class="st2" d="M353.3,225.7l-3.4,19.1h6.5l-0.6,3.2h-9.9l4-22.3H353.3z"/>
				</g>
			</g>
		</g>
	</g>
	<g>
		<path class="st1" d="M374.4,247.7l3.9-21.9h3.3c1.5,0,2.6,0.1,3.4,0.3c0.8,0.2,1.5,0.6,2,1.1c0.5,0.6,0.9,1.3,1.1,2.1
			c0.2,0.8,0.2,1.7,0.1,2.5c-0.3,1.6-1.1,2.9-2.5,4c1.1,0.4,1.9,1.1,2.4,2.1c0.5,1,0.6,2.1,0.4,3.4c-0.3,1.7-1.2,3.2-2.6,4.3
			c-0.9,0.7-1.8,1.2-2.7,1.5c-1,0.3-2.3,0.4-3.8,0.4L374.4,247.7L374.4,247.7z M379.9,235.2h1c1.2,0,2.2-0.3,2.9-0.8
			c0.7-0.5,1.1-1.3,1.3-2.4c0.2-1,0-1.8-0.5-2.3c-0.5-0.5-1.3-0.8-2.4-0.8h-1.2L379.9,235.2z M378.3,244.6h2c1.5,0,2.6-0.3,3.4-0.9
			c0.8-0.6,1.4-1.4,1.5-2.4c0.2-0.9-0.1-1.7-0.6-2.4c-0.6-0.6-1.8-0.9-3.5-0.9h-1.7L378.3,244.6z"/>
		<path class="st1" d="M403.8,242.4h-9.4l-3.4,5.3h-3.6l15-23.2l6.3,23.2h-3.6L403.8,242.4z M403,239.3l-1.9-7.4l-4.7,7.4H403z"/>
		<path class="st1" d="M410.1,247.7l4.1-23.4l13,16.7l2.7-15.2h3.3l-4.1,23.2l-13-16.6l-2.7,15.3L410.1,247.7L410.1,247.7z"/>
		<path class="st1" d="M453.4,227l-0.7,3.9c-1.6-1.6-3.4-2.4-5.5-2.4c-2.2,0-4.3,0.8-6.1,2.4c-1.8,1.6-3,3.6-3.4,5.9
			c-0.4,2.3,0,4.2,1.3,5.8c1.3,1.6,3,2.4,5.3,2.4c1.1,0,2.2-0.2,3.1-0.6c0.5-0.2,1-0.4,1.5-0.8c0.6-0.3,1.1-0.7,1.8-1.2l-0.7,4
			c-2.1,1.1-4.1,1.6-6.2,1.6c-3.1,0-5.6-1.1-7.4-3.3c-1.8-2.2-2.4-4.9-1.9-8c0.5-2.8,1.9-5.3,4.1-7.4c2.8-2.7,5.9-4,9.5-4
			C449.9,225.4,451.7,226,453.4,227z"/>
		<path class="st1" d="M453.3,236.7c0.6-3.1,2.1-5.7,4.8-7.9c2.6-2.2,5.5-3.3,8.7-3.3c3.1,0,5.6,1.1,7.4,3.3c1.8,2.2,2.5,4.9,1.9,8
			c-0.6,3.2-2.2,5.8-4.8,8c-2.7,2.2-5.6,3.3-8.8,3.3c-2.8,0-5.2-1-7.1-2.9C453.4,243,452.7,240.2,453.3,236.7z M456.6,236.7
			c-0.4,2.4,0,4.4,1.4,6c1.3,1.5,3.1,2.3,5.2,2.3c2.3,0,4.4-0.8,6.2-2.4c1.9-1.6,3-3.6,3.4-5.9c0.4-2.3,0-4.3-1.3-5.9
			c-1.3-1.6-3-2.4-5.3-2.4c-2.3,0-4.3,0.8-6.2,2.4C458.1,232.5,457,234.4,456.6,236.7z"/>
		<path class="st1" d="M484.7,247.7l3.9-21.9h4.6c2.2,0,3.9,0.2,5.1,0.6c1.3,0.4,2.4,1.1,3.3,2.2c1.9,2.1,2.5,4.8,1.9,8.1
			c-0.6,3.4-2.2,6.1-5,8.2c-1.4,1.1-2.7,1.8-4.1,2.2c-1.3,0.4-3,0.6-5.3,0.6L484.7,247.7L484.7,247.7z M488.5,244.6h1.5
			c1.5,0,2.7-0.2,3.8-0.5c1-0.3,2-0.8,2.9-1.6c1.9-1.5,3-3.4,3.5-5.8c0.4-2.4,0-4.3-1.4-5.8c-1.2-1.3-3.2-2-6-2h-1.5L488.5,244.6z"
			/>
		<path class="st1" d="M519.9,228.9h-8.8l-0.9,5.3h8.5l-0.5,3.1h-8.5l-1.3,7.3h8.8l-0.6,3.1h-12.1l3.9-21.9h12.1L519.9,228.9z"/>
		<path class="st1" d="M547,227l-0.7,3.9c-1.6-1.6-3.5-2.4-5.5-2.4c-2.2,0-4.3,0.8-6.1,2.4c-1.8,1.6-3,3.6-3.4,5.9
			c-0.4,2.3,0,4.2,1.3,5.8c1.3,1.6,3,2.4,5.3,2.4c1.1,0,2.2-0.2,3.1-0.6c0.5-0.2,1-0.4,1.5-0.8c0.5-0.3,1.1-0.7,1.7-1.2l-0.7,4
			c-2.1,1.1-4.1,1.6-6.2,1.6c-3.1,0-5.6-1.1-7.4-3.3c-1.8-2.2-2.4-4.9-1.9-8c0.5-2.8,1.9-5.3,4.1-7.4c2.7-2.7,5.9-4,9.5-4
			C543.6,225.4,545.4,226,547,227z"/>
		<path class="st1" d="M547,236.7c0.5-3.1,2.1-5.7,4.8-7.9c2.6-2.2,5.5-3.3,8.7-3.3c3.1,0,5.6,1.1,7.4,3.3c1.8,2.2,2.4,4.9,1.9,8
			c-0.6,3.2-2.2,5.8-4.8,8c-2.7,2.2-5.6,3.3-8.8,3.3c-2.8,0-5.2-1-7.1-2.9C547.1,243,546.3,240.2,547,236.7z M550.3,236.7
			c-0.4,2.4,0,4.4,1.4,6c1.3,1.5,3.1,2.3,5.2,2.3c2.3,0,4.4-0.8,6.2-2.4c1.8-1.6,3-3.6,3.4-5.9c0.4-2.3,0-4.3-1.3-5.9
			c-1.3-1.6-3-2.4-5.3-2.4c-2.3,0-4.3,0.8-6.2,2.4C551.8,232.5,550.7,234.4,550.3,236.7z"/>
		<path class="st1" d="M586.4,229.1l-3,1.6c-0.3-0.9-0.7-1.4-1.1-1.7c-0.4-0.3-1-0.4-1.7-0.4c-0.9,0-1.7,0.3-2.4,0.8
			c-0.7,0.5-1.1,1.2-1.3,1.9c-0.2,1.1,0.4,1.9,1.9,2.6l2,0.9c1.6,0.7,2.8,1.6,3.4,2.6c0.6,1,0.8,2.3,0.6,3.8c-0.4,2-1.3,3.7-2.9,5
			c-1.6,1.3-3.4,2-5.4,2c-1.9,0-3.4-0.6-4.4-1.7c-1-1.1-1.5-2.7-1.4-4.7l3.5-0.7c-0.1,1.3,0,2.2,0.3,2.7c0.5,0.9,1.4,1.4,2.7,1.4
			c1,0,1.9-0.3,2.7-1c0.8-0.7,1.3-1.6,1.5-2.6c0.1-0.4,0.1-0.8,0-1.2c-0.1-0.4-0.2-0.7-0.4-1c-0.2-0.3-0.5-0.6-0.8-0.8
			c-0.3-0.2-0.8-0.5-1.3-0.8l-1.9-0.9c-2.8-1.3-3.9-3.1-3.5-5.6c0.3-1.6,1.2-3,2.6-4.1c1.5-1.1,3.1-1.7,5-1.7
			C583.6,225.4,585.4,226.6,586.4,229.1z"/>
		<path class="st1" d="M596.1,228.9l-3.3,18.8h-3.3l3.3-18.8h-5l0.5-3.1h13.4l-0.6,3.1H596.1z"/>
		<path class="st1" d="M612,242.4h-9.4l-3.4,5.3h-3.6l15-23.2l6.3,23.2h-3.6L612,242.4z M611.2,239.3l-1.9-7.4l-4.7,7.4H611.2z"/>
		<path class="st1" d="M635.1,238.4l5.1,9.3h-4l-4.6-9H631l-1.6,9h-3.3l3.9-21.9h3.9c2.9,0,4.9,0.6,6,1.6c1.2,1.2,1.6,2.8,1.3,4.8
			c-0.3,1.5-0.9,2.9-2,4C637.9,237.4,636.6,238.1,635.1,238.4z M631.5,235.9h1.1c3.1,0,4.9-1.2,5.3-3.6c0.4-2.2-0.9-3.4-4-3.4h-1.2
			L631.5,235.9z"/>
		<path class="st1" d="M649.4,225.8l-3.9,21.9h-3.3l3.9-21.9H649.4z"/>
		<path class="st1" d="M669.3,227l-0.7,3.9c-1.6-1.6-3.5-2.4-5.5-2.4c-2.2,0-4.3,0.8-6.1,2.4c-1.8,1.6-3,3.6-3.4,5.9
			c-0.4,2.3,0,4.2,1.3,5.8c1.3,1.6,3,2.4,5.3,2.4c1.2,0,2.2-0.2,3.1-0.6c0.5-0.2,1-0.4,1.5-0.8c0.5-0.3,1.1-0.7,1.7-1.2l-0.7,4
			c-2.1,1.1-4.1,1.6-6.2,1.6c-3.1,0-5.6-1.1-7.4-3.3c-1.8-2.2-2.4-4.9-1.9-8c0.5-2.8,1.9-5.3,4.1-7.4c2.7-2.7,5.9-4,9.5-4
			C665.9,225.4,667.7,226,669.3,227z"/>
		<path class="st1" d="M682.8,242.4h-9.4l-3.4,5.3h-3.6l15-23.2l6.3,23.2h-3.6L682.8,242.4z M682,239.3l-1.9-7.4l-4.7,7.4H682z"/>
	</g>
	<g>
		<polygon class="st2" points="384,82.8 68.9,82.8 47.3,205.4 362.2,205.4 		"/>
	</g>
</g>
</svg>
