<?xml version="1.0" encoding="UTF-8"?>
<svg id="Layer_1" data-name="Layer 1" xmlns="http://www.w3.org/2000/svg" viewBox="0 0 420 21">
  <defs>
    <style>
      .cls-1 {
        fill: #fff;
      }
    </style>
  </defs>
  <path class="cls-1" d="M18.94,7.97c.38-.08,.98-.14,1.59-.14,.87,0,1.43,.15,1.85,.49,.35,.26,.56,.66,.56,1.19,0,.65-.43,1.22-1.14,1.48v.02c.64,.16,1.39,.69,1.39,1.69,0,.58-.23,1.02-.57,1.35-.47,.43-1.23,.63-2.33,.63-.6,0-1.06-.04-1.35-.08V7.97Zm.87,2.76h.79c.92,0,1.46-.48,1.46-1.13,0-.79-.6-1.1-1.48-1.1-.4,0-.63,.03-.77,.06v2.17Zm0,3.23c.17,.03,.42,.04,.73,.04,.9,0,1.73-.33,1.73-1.31,0-.92-.79-1.3-1.74-1.3h-.72v2.57Z"/>
  <path class="cls-1" d="M29.36,14.39c-.32,.16-.96,.32-1.78,.32-1.9,0-3.33-1.2-3.33-3.41s1.43-3.54,3.52-3.54c.84,0,1.37,.18,1.6,.3l-.21,.71c-.33-.16-.8-.28-1.36-.28-1.58,0-2.63,1.01-2.63,2.78,0,1.65,.95,2.71,2.59,2.71,.53,0,1.07-.11,1.42-.28l.18,.69Z"/>
  <path class="cls-1" d="M30.76,7.97c.44-.09,1.07-.14,1.67-.14,.93,0,1.53,.17,1.95,.55,.34,.3,.53,.76,.53,1.28,0,.89-.56,1.48-1.27,1.72v.03c.52,.18,.83,.66,.99,1.36,.22,.94,.38,1.59,.52,1.85h-.9c-.11-.19-.26-.77-.45-1.61-.2-.93-.56-1.28-1.35-1.31h-.82v2.92h-.87V7.97Zm.87,3.07h.89c.93,0,1.52-.51,1.52-1.28,0-.87-.63-1.25-1.55-1.26-.42,0-.72,.04-.86,.08v2.46Z"/>
  <path class="cls-1" d="M44.5,11.21c0,1.72-1.32,3.1-3.01,3.1s-3.04-1.38-3.04-3.1,1.34-3.08,3.04-3.08,3.01,1.38,3.01,3.08Zm-5.55,.03c0,1.49,1.1,2.66,2.54,2.66s2.51-1.17,2.51-2.69-1.1-2.67-2.51-2.67-2.54,1.18-2.54,2.7Zm3.76-1.17c-.13-.07-.5-.23-.97-.23-.94,0-1.4,.6-1.4,1.4s.49,1.41,1.41,1.41c.4,0,.78-.11,1.01-.26l.12,.38c-.35,.23-.81,.31-1.23,.31-1.16,0-1.83-.8-1.83-1.81,0-1.14,.9-1.86,1.91-1.86,.52,0,.97,.15,1.1,.27l-.12,.39Z"/>
  <path class="cls-1" d="M48.35,7.97c.53-.08,1.16-.14,1.85-.14,1.25,0,2.14,.29,2.73,.84,.6,.55,.95,1.33,.95,2.42s-.34,2-.97,2.62c-.63,.63-1.67,.97-2.98,.97-.62,0-1.14-.03-1.58-.08V7.97Zm.87,5.96c.22,.04,.54,.05,.88,.05,1.86,0,2.87-1.04,2.87-2.86,.01-1.59-.89-2.6-2.73-2.6-.45,0-.79,.04-1.02,.09v5.32Z"/>
  <path class="cls-1" d="M55.81,12.35c.02,1.19,.78,1.68,1.66,1.68,.63,0,1.01-.11,1.34-.25l.15,.63c-.31,.14-.84,.3-1.61,.3-1.49,0-2.38-.98-2.38-2.44s.86-2.61,2.27-2.61c1.58,0,2,1.39,2,2.28,0,.18-.02,.32-.03,.41h-3.4Zm2.58-.63c.01-.56-.23-1.43-1.22-1.43-.89,0-1.28,.82-1.35,1.43h2.57Z"/>
  <path class="cls-1" d="M60.63,11.29c0-.57,0-1.06-.04-1.51h.77l.03,.95h.04c.22-.65,.75-1.06,1.34-1.06,.1,0,.17,0,.25,.03v.83c-.09-.02-.18-.03-.3-.03-.62,0-1.06,.47-1.18,1.13-.02,.12-.04,.26-.04,.41v2.58h-.87v-3.33Z"/>
  <path class="cls-1" d="M64.59,12.35c.02,1.19,.78,1.68,1.66,1.68,.63,0,1.01-.11,1.34-.25l.15,.63c-.31,.14-.84,.3-1.61,.3-1.49,0-2.38-.98-2.38-2.44s.86-2.61,2.27-2.61c1.58,0,2,1.39,2,2.28,0,.18-.02,.32-.03,.41h-3.4Zm2.58-.63c.01-.56-.23-1.43-1.22-1.43-.89,0-1.28,.82-1.35,1.43h2.57Z"/>
  <path class="cls-1" d="M72.85,14.43c-.23,.12-.74,.28-1.39,.28-1.46,0-2.41-.99-2.41-2.47s1.02-2.57,2.6-2.57c.52,0,.98,.13,1.22,.25l-.2,.68c-.21-.12-.54-.23-1.02-.23-1.11,0-1.71,.82-1.71,1.83,0,1.12,.72,1.81,1.68,1.81,.5,0,.83-.13,1.08-.24l.15,.66Z"/>
  <path class="cls-1" d="M74.19,7.52h.88v3.02h.02c.14-.25,.36-.47,.63-.62,.26-.15,.57-.25,.9-.25,.65,0,1.69,.4,1.69,2.07v2.88h-.88v-2.78c0-.78-.29-1.44-1.12-1.44-.57,0-1.02,.4-1.18,.88-.05,.12-.06,.25-.06,.42v2.92h-.88V7.52Z"/>
  <path class="cls-1" d="M84.41,12.15c0,1.79-1.24,2.57-2.41,2.57-1.31,0-2.32-.96-2.32-2.49,0-1.62,1.06-2.57,2.4-2.57s2.33,1.01,2.33,2.49Zm-3.84,.05c0,1.06,.61,1.86,1.47,1.86s1.47-.79,1.47-1.88c0-.82-.41-1.86-1.45-1.86s-1.49,.96-1.49,1.88Z"/>
  <path class="cls-1" d="M85.71,13.71c.26,.17,.72,.35,1.16,.35,.64,0,.94-.32,.94-.72s-.25-.65-.9-.89c-.87-.31-1.28-.79-1.28-1.37,0-.78,.63-1.42,1.67-1.42,.49,0,.92,.14,1.19,.3l-.22,.64c-.19-.12-.54-.28-.99-.28-.52,0-.81,.3-.81,.66,0,.4,.29,.58,.92,.82,.84,.32,1.27,.74,1.27,1.46,0,.85-.66,1.45-1.81,1.45-.53,0-1.02-.13-1.36-.33l.22-.67Z"/>
  <path class="cls-1" d="M92.54,7.97c.44-.09,1.07-.14,1.67-.14,.93,0,1.53,.17,1.95,.55,.34,.3,.53,.76,.53,1.28,0,.89-.56,1.48-1.27,1.72v.03c.52,.18,.83,.66,.99,1.36,.22,.94,.38,1.59,.52,1.85h-.9c-.11-.19-.26-.77-.45-1.61-.2-.93-.56-1.28-1.35-1.31h-.82v2.92h-.87V7.97Zm.87,3.07h.89c.93,0,1.52-.51,1.52-1.28,0-.87-.63-1.25-1.55-1.26-.42,0-.72,.04-.86,.08v2.46Z"/>
  <path class="cls-1" d="M98.72,12.35c.02,1.19,.78,1.68,1.66,1.68,.63,0,1.01-.11,1.34-.25l.15,.63c-.31,.14-.84,.3-1.61,.3-1.49,0-2.38-.98-2.38-2.44s.86-2.61,2.27-2.61c1.58,0,2,1.39,2,2.28,0,.18-.02,.32-.03,.41h-3.4Zm2.58-.63c.01-.56-.23-1.43-1.22-1.43-.89,0-1.28,.82-1.35,1.43h2.57Z"/>
  <path class="cls-1" d="M103.42,13.71c.26,.17,.72,.35,1.16,.35,.64,0,.94-.32,.94-.72s-.25-.65-.9-.89c-.87-.31-1.28-.79-1.28-1.37,0-.78,.63-1.42,1.67-1.42,.49,0,.92,.14,1.19,.3l-.22,.64c-.19-.12-.54-.28-.99-.28-.52,0-.81,.3-.81,.66,0,.4,.29,.58,.92,.82,.84,.32,1.27,.74,1.27,1.46,0,.85-.66,1.45-1.81,1.45-.53,0-1.02-.13-1.36-.33l.22-.67Z"/>
  <path class="cls-1" d="M108.29,12.35c.02,1.19,.78,1.68,1.66,1.68,.63,0,1.01-.11,1.34-.25l.15,.63c-.31,.14-.84,.3-1.61,.3-1.49,0-2.38-.98-2.38-2.44s.86-2.61,2.27-2.61c1.58,0,2,1.39,2,2.28,0,.18-.02,.32-.03,.41h-3.4Zm2.58-.63c.01-.56-.23-1.43-1.22-1.43-.89,0-1.28,.82-1.35,1.43h2.57Z"/>
  <path class="cls-1" d="M113.11,11.29c0-.57,0-1.06-.04-1.51h.77l.03,.95h.04c.22-.65,.75-1.06,1.34-1.06,.1,0,.17,0,.25,.03v.83c-.09-.02-.18-.03-.3-.03-.62,0-1.06,.47-1.18,1.13-.02,.12-.04,.26-.04,.41v2.58h-.87v-3.33Z"/>
  <path class="cls-1" d="M117.27,9.78l.95,2.72c.16,.44,.29,.84,.39,1.24h.03c.11-.4,.25-.8,.41-1.24l.94-2.72h.92l-1.9,4.84h-.84l-1.84-4.84h.94Z"/>
  <path class="cls-1" d="M124.67,14.61l-.07-.61h-.03c-.27,.38-.79,.72-1.48,.72-.98,0-1.48-.69-1.48-1.39,0-1.17,1.04-1.81,2.91-1.8v-.1c0-.4-.11-1.12-1.1-1.12-.45,0-.92,.14-1.26,.36l-.2-.58c.4-.26,.98-.43,1.59-.43,1.48,0,1.84,1.01,1.84,1.98v1.81c0,.42,.02,.83,.08,1.16h-.8Zm-.13-2.47c-.96-.02-2.05,.15-2.05,1.09,0,.57,.38,.84,.83,.84,.63,0,1.03-.4,1.17-.81,.03-.09,.05-.19,.05-.28v-.84Z"/>
  <path class="cls-1" d="M131.29,7.52v5.85c0,.43,.01,.92,.04,1.25h-.79l-.04-.84h-.02c-.27,.54-.86,.95-1.65,.95-1.17,0-2.07-.99-2.07-2.46-.01-1.61,.99-2.6,2.17-2.6,.74,0,1.24,.35,1.46,.74h.02v-2.89h.88Zm-.88,4.23c0-.11-.01-.26-.04-.37-.13-.56-.61-1.02-1.27-1.02-.91,0-1.45,.8-1.45,1.87,0,.98,.48,1.79,1.43,1.79,.59,0,1.13-.39,1.29-1.05,.03-.12,.04-.24,.04-.38v-.84Z"/>
  <path class="cls-1" d="M137.43,12.15c0,1.79-1.24,2.57-2.41,2.57-1.31,0-2.32-.96-2.32-2.49,0-1.62,1.06-2.57,2.4-2.57s2.33,1.01,2.33,2.49Zm-3.84,.05c0,1.06,.61,1.86,1.47,1.86s1.47-.79,1.47-1.88c0-.82-.41-1.86-1.45-1.86s-1.49,.96-1.49,1.88Z"/>
  <path class="cls-1" d="M138.73,13.71c.26,.17,.72,.35,1.16,.35,.64,0,.94-.32,.94-.72s-.25-.65-.9-.89c-.87-.31-1.28-.79-1.28-1.37,0-.78,.63-1.42,1.67-1.42,.49,0,.92,.14,1.19,.3l-.22,.64c-.19-.12-.54-.28-.99-.28-.52,0-.81,.3-.81,.66,0,.4,.29,.58,.92,.82,.84,.32,1.27,.74,1.27,1.46,0,.85-.66,1.45-1.81,1.45-.53,0-1.02-.13-1.36-.33l.22-.67Z"/>
  <path class="cls-1" d="M145.25,14.61v-.54l.69-.67c1.66-1.58,2.41-2.42,2.42-3.4,0-.66-.32-1.27-1.29-1.27-.59,0-1.08,.3-1.38,.55l-.28-.62c.45-.38,1.09-.66,1.84-.66,1.4,0,1.99,.96,1.99,1.89,0,1.2-.87,2.17-2.24,3.49l-.52,.48v.02h2.92v.73h-4.15Z"/>
  <path class="cls-1" d="M154.99,11.29c0,2.21-.82,3.43-2.26,3.43-1.27,0-2.13-1.19-2.15-3.34,0-2.18,.94-3.38,2.26-3.38s2.15,1.22,2.15,3.29Zm-3.53,.1c0,1.69,.52,2.65,1.32,2.65,.9,0,1.33-1.05,1.33-2.71s-.41-2.65-1.32-2.65c-.77,0-1.33,.94-1.33,2.71Z"/>
  <path class="cls-1" d="M156.1,14.61v-.54l.69-.67c1.66-1.58,2.41-2.42,2.42-3.4,0-.66-.32-1.27-1.29-1.27-.59,0-1.08,.3-1.38,.55l-.28-.62c.45-.38,1.09-.66,1.84-.66,1.4,0,1.99,.96,1.99,1.89,0,1.2-.87,2.17-2.24,3.49l-.52,.48v.02h2.92v.73h-4.15Z"/>
  <path class="cls-1" d="M161.75,13.6c.25,.16,.83,.41,1.44,.41,1.13,0,1.48-.72,1.47-1.26,0-.91-.83-1.3-1.68-1.3h-.49v-.66h.49c.64,0,1.45-.33,1.45-1.1,0-.52-.33-.98-1.14-.98-.52,0-1.02,.23-1.3,.43l-.23-.64c.34-.25,1-.5,1.7-.5,1.28,0,1.86,.76,1.86,1.55,0,.67-.4,1.24-1.2,1.53v.02c.8,.16,1.45,.76,1.45,1.67,0,1.04-.81,1.95-2.37,1.95-.73,0-1.37-.23-1.69-.44l.24-.68Z"/>
  <path class="cls-1" d="M167.03,14.09c0-.37,.25-.63,.6-.63s.59,.26,.59,.63-.23,.63-.6,.63c-.35,0-.59-.27-.59-.63Z"/>
  <path class="cls-1" d="M184.03,14.39c-.32,.16-.96,.32-1.78,.32-1.9,0-3.33-1.2-3.33-3.41s1.43-3.54,3.52-3.54c.84,0,1.37,.18,1.6,.3l-.21,.71c-.33-.16-.8-.28-1.36-.28-1.58,0-2.63,1.01-2.63,2.78,0,1.65,.95,2.71,2.59,2.71,.53,0,1.07-.11,1.42-.28l.18,.69Z"/>
  <path class="cls-1" d="M189.66,12.15c0,1.79-1.24,2.57-2.41,2.57-1.31,0-2.32-.96-2.32-2.49,0-1.62,1.06-2.57,2.4-2.57s2.33,1.01,2.33,2.49Zm-3.84,.05c0,1.06,.61,1.86,1.47,1.86s1.47-.79,1.47-1.88c0-.82-.41-1.86-1.45-1.86s-1.49,.96-1.49,1.88Z"/>
  <path class="cls-1" d="M191.07,11.08c0-.5,0-.91-.04-1.31h.78l.05,.8h.02c.24-.46,.8-.91,1.6-.91,.67,0,1.71,.4,1.71,2.06v2.89h-.88v-2.79c0-.78-.29-1.43-1.12-1.43-.58,0-1.03,.41-1.18,.9-.04,.11-.06,.26-.06,.41v2.91h-.88v-3.53Z"/>
  <path class="cls-1" d="M197.94,8.39v1.39h1.26v.67h-1.26v2.61c0,.6,.17,.94,.66,.94,.23,0,.4-.03,.51-.06l.04,.66c-.17,.07-.44,.12-.78,.12-.41,0-.74-.13-.95-.37-.25-.26-.34-.69-.34-1.26v-2.64h-.75v-.67h.75v-1.16l.86-.23Z"/>
  <path class="cls-1" d="M203.17,14.61l-.07-.61h-.03c-.27,.38-.79,.72-1.48,.72-.98,0-1.48-.69-1.48-1.39,0-1.17,1.04-1.81,2.91-1.8v-.1c0-.4-.11-1.12-1.1-1.12-.45,0-.92,.14-1.26,.36l-.2-.58c.4-.26,.98-.43,1.59-.43,1.48,0,1.84,1.01,1.84,1.98v1.81c0,.42,.02,.83,.08,1.16h-.8Zm-.13-2.47c-.96-.02-2.05,.15-2.05,1.09,0,.57,.38,.84,.83,.84,.63,0,1.03-.4,1.17-.81,.03-.09,.05-.19,.05-.28v-.84Zm.44-4.46l-1.22,1.43h-.63l.88-1.43h.97Z"/>
  <path class="cls-1" d="M209.06,14.43c-.23,.12-.74,.28-1.39,.28-1.46,0-2.41-.99-2.41-2.47s1.02-2.57,2.6-2.57c.52,0,.98,.13,1.22,.25l-.2,.68c-.21-.12-.54-.23-1.02-.23-1.11,0-1.71,.82-1.71,1.83,0,1.12,.72,1.81,1.68,1.81,.5,0,.83-.13,1.08-.24l.15,.66Z"/>
  <path class="cls-1" d="M211.58,8.39v1.39h1.26v.67h-1.26v2.61c0,.6,.17,.94,.66,.94,.23,0,.4-.03,.51-.06l.04,.66c-.17,.07-.44,.12-.78,.12-.41,0-.74-.13-.95-.37-.25-.26-.34-.69-.34-1.26v-2.64h-.75v-.67h.75v-1.16l.86-.23Z"/>
  <path class="cls-1" d="M214.56,12.35c.02,1.19,.78,1.68,1.66,1.68,.63,0,1.01-.11,1.34-.25l.15,.63c-.31,.14-.84,.3-1.61,.3-1.49,0-2.38-.98-2.38-2.44s.86-2.61,2.27-2.61c1.58,0,2,1.39,2,2.28,0,.18-.02,.32-.03,.41h-3.4Zm2.58-.63c0-.56-.23-1.43-1.22-1.43-.89,0-1.28,.82-1.35,1.43h2.57Z"/>
  <path class="cls-1" d="M219.38,11.08c0-.5,0-.91-.04-1.31h.78l.05,.8h.02c.24-.46,.8-.91,1.6-.91,.67,0,1.71,.4,1.71,2.06v2.89h-.88v-2.79c0-.78-.29-1.43-1.12-1.43-.58,0-1.03,.41-1.18,.9-.04,.11-.06,.26-.06,.41v2.91h-.88v-3.53Z"/>
  <path class="cls-1" d="M229.61,12.15c0,1.79-1.24,2.57-2.41,2.57-1.31,0-2.32-.96-2.32-2.49,0-1.62,1.06-2.57,2.4-2.57s2.33,1.01,2.33,2.49Zm-3.84,.05c0,1.06,.61,1.86,1.47,1.86s1.47-.79,1.47-1.88c0-.82-.41-1.86-1.45-1.86s-1.49,.96-1.49,1.88Z"/>
  <path class="cls-1" d="M230.9,13.71c.26,.17,.72,.35,1.16,.35,.64,0,.94-.32,.94-.72s-.25-.65-.9-.89c-.87-.31-1.28-.79-1.28-1.37,0-.78,.63-1.42,1.67-1.42,.49,0,.92,.14,1.19,.3l-.22,.64c-.19-.12-.54-.28-.99-.28-.52,0-.81,.3-.81,.66,0,.4,.29,.58,.92,.82,.84,.32,1.27,.74,1.27,1.46,0,.85-.66,1.45-1.81,1.45-.53,0-1.02-.13-1.36-.33l.22-.67Z"/>
  <path class="cls-1" d="M235.07,10.58c0-.37,.25-.63,.6-.63s.58,.26,.59,.63c0,.35-.23,.62-.6,.62-.35,0-.59-.27-.59-.62Zm0,3.53c0-.37,.25-.63,.6-.63s.58,.26,.59,.63c0,.35-.23,.62-.6,.62-.35,0-.59-.27-.59-.62Z"/>
  <path class="cls-1" d="M244.81,14.39c-.32,.16-.96,.32-1.78,.32-1.9,0-3.33-1.2-3.33-3.41s1.43-3.54,3.52-3.54c.84,0,1.37,.18,1.6,.3l-.21,.71c-.33-.16-.8-.28-1.36-.28-1.58,0-2.63,1.01-2.63,2.78,0,1.65,.95,2.71,2.59,2.71,.53,0,1.07-.11,1.42-.28l.18,.69Z"/>
  <path class="cls-1" d="M246.55,12.35c.02,1.19,.78,1.68,1.66,1.68,.63,0,1.01-.11,1.34-.25l.15,.63c-.31,.14-.84,.3-1.61,.3-1.49,0-2.38-.98-2.38-2.44s.86-2.61,2.27-2.61c1.58,0,2,1.39,2,2.28,0,.18-.02,.32-.03,.41h-3.4Zm2.58-.63c.01-.56-.23-1.43-1.22-1.43-.89,0-1.28,.82-1.35,1.43h2.57Z"/>
  <path class="cls-1" d="M251.37,11.08c0-.5,0-.91-.04-1.31h.78l.05,.8h.02c.24-.46,.8-.91,1.6-.91,.67,0,1.71,.4,1.71,2.06v2.89h-.88v-2.79c0-.78-.29-1.43-1.12-1.43-.58,0-1.03,.41-1.18,.9-.04,.11-.06,.26-.06,.41v2.91h-.88v-3.53Z"/>
  <path class="cls-1" d="M258.24,8.39v1.39h1.26v.67h-1.26v2.61c0,.6,.17,.94,.66,.94,.23,0,.4-.03,.51-.06l.04,.66c-.17,.07-.44,.12-.78,.12-.41,0-.74-.13-.95-.37-.25-.26-.34-.69-.34-1.26v-2.64h-.75v-.67h.75v-1.16l.86-.23Z"/>
  <path class="cls-1" d="M260.79,11.29c0-.57,0-1.06-.04-1.51h.77l.03,.95h.04c.22-.65,.75-1.06,1.34-1.06,.1,0,.17,0,.25,.03v.83c-.09-.02-.18-.03-.3-.03-.62,0-1.06,.47-1.18,1.13-.02,.12-.04,.26-.04,.41v2.58h-.87v-3.33Z"/>
  <path class="cls-1" d="M268.64,12.15c0,1.79-1.24,2.57-2.41,2.57-1.31,0-2.32-.96-2.32-2.49,0-1.62,1.06-2.57,2.4-2.57s2.33,1.01,2.33,2.49Zm-3.84,.05c0,1.06,.61,1.86,1.47,1.86s1.47-.79,1.47-1.88c0-.82-.41-1.86-1.45-1.86s-1.49,.96-1.49,1.88Z"/>
  <path class="cls-1" d="M271.17,12.49l-.7,2.12h-.9l2.29-6.74h1.05l2.3,6.74h-.93l-.72-2.12h-2.39Zm2.21-.68l-.66-1.94c-.15-.44-.25-.84-.35-1.23h-.02c-.1,.4-.21,.81-.34,1.22l-.66,1.95h2.03Z"/>
  <path class="cls-1" d="M276.29,13.71c.26,.17,.72,.35,1.16,.35,.64,0,.94-.32,.94-.72s-.25-.65-.9-.89c-.87-.31-1.28-.79-1.28-1.37,0-.78,.63-1.42,1.67-1.42,.49,0,.92,.14,1.19,.3l-.22,.64c-.19-.12-.54-.28-.99-.28-.52,0-.81,.3-.81,.66,0,.4,.29,.58,.92,.82,.84,.32,1.27,.74,1.27,1.46,0,.85-.66,1.45-1.81,1.45-.53,0-1.02-.13-1.36-.33l.22-.67Z"/>
  <path class="cls-1" d="M281.65,8.42c0,.3-.21,.54-.56,.54-.31,0-.53-.24-.53-.54s.23-.55,.55-.55,.54,.24,.54,.55Zm-.98,6.2v-4.84h.88v4.84h-.88Z"/>
  <path class="cls-1" d="M283.19,13.71c.26,.17,.72,.35,1.16,.35,.64,0,.94-.32,.94-.72s-.25-.65-.9-.89c-.87-.31-1.28-.79-1.28-1.37,0-.78,.63-1.42,1.67-1.42,.49,0,.92,.14,1.19,.3l-.22,.64c-.19-.12-.54-.28-.99-.28-.52,0-.81,.3-.81,.66,0,.4,.29,.58,.92,.82,.84,.32,1.27,.74,1.27,1.46,0,.85-.66,1.45-1.81,1.45-.53,0-1.02-.13-1.36-.33l.22-.67Z"/>
  <path class="cls-1" d="M288.63,8.39v1.39h1.26v.67h-1.26v2.61c0,.6,.17,.94,.66,.94,.23,0,.4-.03,.51-.06l.04,.66c-.17,.07-.44,.12-.78,.12-.41,0-.74-.13-.95-.37-.25-.26-.34-.69-.34-1.26v-2.64h-.75v-.67h.75v-1.16l.86-.23Z"/>
  <path class="cls-1" d="M291.61,12.35c.02,1.19,.78,1.68,1.66,1.68,.63,0,1.01-.11,1.34-.25l.15,.63c-.31,.14-.84,.3-1.61,.3-1.49,0-2.38-.98-2.38-2.44s.86-2.61,2.27-2.61c1.58,0,2,1.39,2,2.28,0,.18-.02,.32-.03,.41h-3.4Zm2.58-.63c0-.56-.23-1.43-1.22-1.43-.89,0-1.28,.82-1.35,1.43h2.57Z"/>
  <path class="cls-1" d="M296.43,11.08c0-.5,0-.91-.04-1.31h.78l.05,.8h.02c.24-.46,.8-.91,1.6-.91,.67,0,1.71,.4,1.71,2.06v2.89h-.88v-2.79c0-.78-.29-1.43-1.12-1.43-.58,0-1.03,.41-1.18,.9-.04,.11-.06,.26-.06,.41v2.91h-.88v-3.53Z"/>
  <path class="cls-1" d="M305.73,14.43c-.23,.12-.74,.28-1.39,.28-1.46,0-2.41-.99-2.41-2.47s1.02-2.57,2.6-2.57c.52,0,.98,.13,1.22,.25l-.2,.68c-.21-.12-.54-.23-1.02-.23-1.11,0-1.71,.82-1.71,1.83,0,1.12,.72,1.81,1.68,1.81,.5,0,.83-.13,1.08-.24l.15,.66Z"/>
  <path class="cls-1" d="M308.04,8.42c.01,.3-.21,.54-.56,.54-.31,0-.53-.24-.53-.54s.23-.55,.55-.55,.54,.24,.54,.55Zm-.98,6.2v-4.84h.88v4.84h-.88Z"/>
  <path class="cls-1" d="M312.38,14.61l-.07-.61h-.03c-.27,.38-.79,.72-1.48,.72-.98,0-1.48-.69-1.48-1.39,0-1.17,1.04-1.81,2.91-1.8v-.1c0-.4-.11-1.12-1.1-1.12-.45,0-.92,.14-1.26,.36l-.2-.58c.4-.26,.98-.43,1.59-.43,1.48,0,1.84,1.01,1.84,1.98v1.81c0,.42,.02,.83,.08,1.16h-.8Zm-.13-2.47c-.96-.02-2.05,.15-2.05,1.09,0,.57,.38,.84,.83,.84,.63,0,1.03-.4,1.17-.81,.03-.09,.05-.19,.05-.28v-.84Z"/>
  <path class="cls-1" d="M314.85,7.97c.38-.08,.98-.14,1.59-.14,.87,0,1.43,.15,1.85,.49,.35,.26,.56,.66,.56,1.19,0,.65-.43,1.22-1.14,1.48v.02c.64,.16,1.39,.69,1.39,1.69,0,.58-.23,1.02-.57,1.35-.47,.43-1.23,.63-2.33,.63-.6,0-1.06-.04-1.35-.08V7.97Zm.87,2.76h.79c.92,0,1.46-.48,1.46-1.13,0-.79-.6-1.1-1.48-1.1-.4,0-.63,.03-.77,.06v2.17Zm0,3.23c.17,.03,.42,.04,.73,.04,.9,0,1.73-.33,1.73-1.31,0-.92-.79-1.3-1.74-1.3h-.72v2.57Z"/>
  <path class="cls-1" d="M325.28,14.39c-.32,.16-.96,.32-1.78,.32-1.9,0-3.33-1.2-3.33-3.41s1.43-3.54,3.52-3.54c.84,0,1.37,.18,1.6,.3l-.21,.71c-.33-.16-.8-.28-1.36-.28-1.58,0-2.63,1.01-2.63,2.78,0,1.65,.95,2.71,2.59,2.71,.53,0,1.07-.11,1.42-.28l.18,.69Z"/>
  <path class="cls-1" d="M326.67,7.97c.44-.09,1.07-.14,1.67-.14,.93,0,1.53,.17,1.95,.55,.34,.3,.53,.76,.53,1.28,0,.89-.56,1.48-1.27,1.72v.03c.52,.18,.83,.66,.99,1.36,.22,.94,.38,1.59,.52,1.85h-.9c-.11-.19-.26-.77-.45-1.61-.2-.93-.56-1.28-1.35-1.31h-.82v2.92h-.87V7.97Zm.87,3.07h.89c.93,0,1.52-.51,1.52-1.28,0-.87-.63-1.25-1.55-1.26-.42,0-.72,.04-.86,.08v2.46Z"/>
  <path class="cls-1" d="M336.83,15.25c-.55,.29-1.11,.4-1.78,.4-1.64,0-3.03-1.2-3.03-3.12,0-2.06,1.43-3.84,3.65-3.84,1.74,0,2.91,1.22,2.91,2.89,0,1.5-.84,2.38-1.78,2.38-.4,0-.77-.27-.74-.88h-.04c-.35,.59-.81,.88-1.41,.88s-1.08-.47-1.08-1.26c0-1.24,.98-2.37,2.37-2.37,.43,0,.81,.09,1.07,.21l-.34,1.81c-.15,.76-.03,1.11,.3,1.12,.51,.01,1.08-.67,1.08-1.83,0-1.45-.87-2.49-2.42-2.49-1.63,0-3,1.29-3,3.32,0,1.67,1.09,2.7,2.57,2.7,.57,0,1.1-.12,1.51-.35l.16,.43Zm-.55-4.32c-.1-.03-.27-.07-.5-.07-.88,0-1.59,.83-1.59,1.8,0,.44,.22,.76,.66,.76,.58,0,1.11-.74,1.22-1.36l.21-1.13Z"/>
  <path class="cls-1" d="M339.95,14.61c.02-.33,.04-.82,.04-1.25V7.52h.87v3.04h.02c.31-.54,.87-.89,1.65-.89,1.2,0,2.05,1,2.04,2.47,0,1.73-1.09,2.59-2.17,2.59-.7,0-1.26-.27-1.62-.91h-.03l-.04,.8h-.76Zm.91-1.94c0,.11,.02,.22,.04,.32,.17,.61,.68,1.03,1.32,1.03,.92,0,1.47-.75,1.47-1.86,0-.97-.5-1.8-1.44-1.8-.6,0-1.16,.41-1.34,1.08-.02,.1-.05,.22-.05,.36v.87Z"/>
  <path class="cls-1" d="M348.66,14.61l-.07-.61h-.03c-.27,.38-.79,.72-1.48,.72-.98,0-1.48-.69-1.48-1.39,0-1.17,1.04-1.81,2.91-1.8v-.1c0-.4-.11-1.12-1.1-1.12-.45,0-.92,.14-1.26,.36l-.2-.58c.4-.26,.98-.43,1.59-.43,1.48,0,1.84,1.01,1.84,1.98v1.81c0,.42,.02,.83,.08,1.16h-.8Zm-.13-2.47c-.96-.02-2.05,.15-2.05,1.09,0,.57,.38,.84,.83,.84,.63,0,1.03-.4,1.17-.81,.03-.09,.05-.19,.05-.28v-.84Z"/>
  <path class="cls-1" d="M351.1,11.08c0-.5,0-.91-.04-1.31h.78l.05,.8h.02c.24-.46,.8-.91,1.6-.91,.67,0,1.71,.4,1.71,2.06v2.89h-.88v-2.79c0-.78-.29-1.43-1.12-1.43-.58,0-1.03,.41-1.18,.9-.04,.11-.06,.26-.06,.41v2.91h-.88v-3.53Z"/>
  <path class="cls-1" d="M360.4,14.43c-.23,.12-.74,.28-1.39,.28-1.46,0-2.41-.99-2.41-2.47s1.02-2.57,2.6-2.57c.52,0,.98,.13,1.22,.25l-.2,.68c-.21-.12-.54-.23-1.02-.23-1.11,0-1.71,.82-1.71,1.83,0,1.12,.72,1.81,1.68,1.81,.5,0,.83-.13,1.08-.24l.15,.66Z"/>
  <path class="cls-1" d="M366.05,12.15c0,1.79-1.24,2.57-2.41,2.57-1.31,0-2.32-.96-2.32-2.49,0-1.62,1.06-2.57,2.4-2.57s2.33,1.01,2.33,2.49Zm-3.84,.05c0,1.06,.61,1.86,1.47,1.86s1.47-.79,1.47-1.88c0-.82-.41-1.86-1.45-1.86s-1.49,.96-1.49,1.88Z"/>
  <path class="cls-1" d="M367.42,14.61c.02-.33,.04-.82,.04-1.25V7.52h.87v3.04h.02c.31-.54,.87-.89,1.65-.89,1.2,0,2.05,1,2.04,2.47,0,1.73-1.09,2.59-2.17,2.59-.7,0-1.26-.27-1.62-.91h-.03l-.04,.8h-.76Zm.91-1.94c0,.11,.02,.22,.04,.32,.17,.61,.68,1.03,1.32,1.03,.92,0,1.47-.75,1.47-1.86,0-.97-.5-1.8-1.44-1.8-.6,0-1.16,.41-1.34,1.08-.02,.1-.05,.22-.05,.36v.87Z"/>
  <path class="cls-1" d="M376.9,14.43c-.23,.12-.74,.28-1.39,.28-1.46,0-2.41-.99-2.41-2.47s1.02-2.57,2.6-2.57c.52,0,.98,.13,1.22,.25l-.2,.68c-.21-.12-.54-.23-1.02-.23-1.11,0-1.71,.82-1.71,1.83,0,1.12,.72,1.81,1.68,1.81,.5,0,.83-.13,1.08-.24l.15,.66Z"/>
  <path class="cls-1" d="M378.23,11.29c0-.57,0-1.06-.04-1.51h.77l.03,.95h.04c.22-.65,.75-1.06,1.34-1.06,.1,0,.17,0,.25,.03v.83c-.09-.02-.18-.03-.3-.03-.62,0-1.06,.47-1.18,1.13-.02,.12-.04,.26-.04,.41v2.58h-.87v-3.33Z"/>
  <path class="cls-1" d="M381.06,14.09c0-.37,.25-.63,.6-.63s.59,.26,.59,.63-.23,.63-.6,.63c-.35,0-.59-.27-.59-.63Z"/>
  <path class="cls-1" d="M387.09,14.43c-.23,.12-.74,.28-1.39,.28-1.46,0-2.41-.99-2.41-2.47s1.02-2.57,2.6-2.57c.52,0,.98,.13,1.22,.25l-.2,.68c-.21-.12-.54-.23-1.02-.23-1.11,0-1.71,.82-1.71,1.83,0,1.12,.72,1.81,1.68,1.81,.5,0,.83-.13,1.08-.24l.15,.66Z"/>
  <path class="cls-1" d="M392.74,12.15c0,1.79-1.24,2.57-2.41,2.57-1.31,0-2.32-.96-2.32-2.49,0-1.62,1.06-2.57,2.4-2.57s2.33,1.01,2.33,2.49Zm-3.84,.05c0,1.06,.61,1.86,1.47,1.86s1.47-.79,1.47-1.88c0-.82-.41-1.86-1.45-1.86s-1.49,.96-1.49,1.88Z"/>
  <path class="cls-1" d="M394.15,11.08c0-.5,0-.91-.04-1.31h.77l.04,.78h.03c.27-.46,.72-.89,1.52-.89,.66,0,1.16,.4,1.37,.97h.02c.15-.27,.34-.48,.54-.63,.29-.22,.61-.34,1.07-.34,.64,0,1.59,.42,1.59,2.1v2.85h-.86v-2.74c0-.93-.34-1.49-1.05-1.49-.5,0-.89,.37-1.04,.8-.04,.12-.07,.28-.07,.44v2.99h-.86v-2.9c0-.77-.34-1.33-1.01-1.33-.55,0-.95,.44-1.09,.88-.05,.13-.07,.28-.07,.43v2.92h-.86v-3.53Z"/>
</svg>