<?xml version="1.0" encoding="UTF-8"?>
<svg id="Layer_1" data-name="Layer 1" xmlns="http://www.w3.org/2000/svg" viewBox="0 0 420 42">
  <defs>
    <style>
      .cls-1 {
        fill: #fff;
      }

      .cls-2 {
        fill: none;
        stroke: #fff;
        stroke-dasharray: 0 0 .98 .98;
        stroke-miterlimit: 10;
      }
    </style>
  </defs>
  <g>
    <path class="cls-1" d="M53.92,23.33c0,5.92-3.6,9.06-7.99,9.06s-7.73-3.52-7.73-8.73c0-5.46,3.4-9.04,7.99-9.04s7.73,3.6,7.73,8.71Zm-13.35,.28c0,3.68,1.99,6.97,5.49,6.97s5.51-3.24,5.51-7.15c0-3.42-1.79-7-5.49-7s-5.51,3.4-5.51,7.17Z"/>
    <path class="cls-1" d="M58.13,32.12v-10.65h-1.74v-1.71h1.74v-.66c0-3.27,1.91-5.39,5.39-5.39,1.15,0,2.5,.36,3.14,.82l-.64,1.71c-.54-.38-1.51-.71-2.6-.71-2.37,0-3.06,1.66-3.06,3.62v.61h7.17v12.36h-2.22v-10.65h-4.95v10.65h-2.22Z"/>
    <path class="cls-1" d="M80.83,31.66c-.59,.31-1.89,.71-3.55,.71-3.73,0-6.15-2.53-6.15-6.3s2.6-6.56,6.64-6.56c1.33,0,2.5,.33,3.11,.64l-.51,1.74c-.54-.31-1.38-.59-2.6-.59-2.83,0-4.37,2.09-4.37,4.67,0,2.86,1.84,4.62,4.29,4.62,1.28,0,2.12-.33,2.76-.61l.38,1.68Z"/>
    <path class="cls-1" d="M86.73,16.29c.03,.77-.54,1.38-1.43,1.38-.79,0-1.35-.61-1.35-1.38s.59-1.4,1.4-1.4,1.38,.61,1.38,1.4Zm-2.5,15.83v-12.36h2.25v12.36h-2.25Z"/>
    <path class="cls-1" d="M90.97,23.11c0-1.28-.03-2.32-.1-3.34h1.99l.13,2.04h.05c.61-1.17,2.04-2.32,4.08-2.32,1.71,0,4.37,1.02,4.37,5.26v7.38h-2.25v-7.12c0-1.99-.74-3.65-2.86-3.65-1.48,0-2.63,1.05-3.01,2.3-.1,.28-.15,.66-.15,1.05v7.43h-2.25v-9.01Z"/>
    <path class="cls-1" d="M112.75,32.12l-.18-1.56h-.08c-.69,.97-2.02,1.84-3.78,1.84-2.5,0-3.78-1.76-3.78-3.55,0-2.99,2.65-4.62,7.43-4.59v-.26c0-1.02-.28-2.86-2.81-2.86-1.15,0-2.35,.36-3.22,.92l-.51-1.48c1.02-.66,2.5-1.1,4.06-1.1,3.78,0,4.7,2.58,4.7,5.05v4.62c0,1.07,.05,2.12,.2,2.96h-2.04Zm-.33-6.31c-2.45-.05-5.23,.38-5.23,2.78,0,1.46,.97,2.14,2.12,2.14,1.61,0,2.63-1.02,2.99-2.07,.08-.23,.13-.48,.13-.71v-2.14Z"/>
    <path class="cls-1" d="M128.1,32.12l-5.62-17.21h2.4l2.68,8.48c.74,2.32,1.38,4.42,1.84,6.43h.05c.48-1.99,1.2-4.16,1.97-6.41l2.91-8.5h2.37l-6.15,17.21h-2.45Z"/>
    <path class="cls-1" d="M141.35,16.29c.03,.77-.54,1.38-1.43,1.38-.79,0-1.35-.61-1.35-1.38s.59-1.4,1.4-1.4,1.38,.61,1.38,1.4Zm-2.5,15.83v-12.36h2.25v12.36h-2.25Z"/>
    <path class="cls-1" d="M145.59,23.62c0-1.46-.03-2.71-.1-3.85h1.97l.08,2.42h.1c.56-1.66,1.91-2.71,3.42-2.71,.26,0,.43,.03,.64,.08v2.12c-.23-.05-.46-.08-.77-.08-1.58,0-2.71,1.2-3.01,2.88-.05,.31-.1,.66-.1,1.05v6.59h-2.22v-8.5Z"/>
    <path class="cls-1" d="M158.02,16.21v3.55h3.22v1.71h-3.22v6.66c0,1.53,.43,2.4,1.69,2.4,.59,0,1.02-.08,1.3-.15l.1,1.68c-.43,.18-1.12,.31-1.99,.31-1.05,0-1.89-.33-2.42-.94-.64-.66-.87-1.76-.87-3.22v-6.74h-1.91v-1.71h1.91v-2.96l2.2-.59Z"/>
    <path class="cls-1" d="M174.88,28.75c0,1.28,.03,2.4,.1,3.37h-1.99l-.13-2.02h-.05c-.59,1-1.89,2.3-4.08,2.3-1.94,0-4.26-1.07-4.26-5.41v-7.22h2.25v6.84c0,2.35,.71,3.93,2.76,3.93,1.51,0,2.55-1.05,2.96-2.04,.13-.33,.2-.74,.2-1.15v-7.58h2.25v8.99Z"/>
    <path class="cls-1" d="M186.21,32.12l-.18-1.56h-.08c-.69,.97-2.02,1.84-3.78,1.84-2.5,0-3.78-1.76-3.78-3.55,0-2.99,2.65-4.62,7.43-4.59v-.26c0-1.02-.28-2.86-2.81-2.86-1.15,0-2.35,.36-3.22,.92l-.51-1.48c1.02-.66,2.5-1.1,4.06-1.1,3.78,0,4.7,2.58,4.7,5.05v4.62c0,1.07,.05,2.12,.2,2.96h-2.04Zm-.33-6.31c-2.45-.05-5.23,.38-5.23,2.78,0,1.46,.97,2.14,2.12,2.14,1.61,0,2.63-1.02,2.99-2.07,.08-.23,.13-.48,.13-.71v-2.14Z"/>
    <path class="cls-1" d="M192.45,13.99h2.25v18.12h-2.25V13.99Z"/>
  </g>
  <g>
    <path class="cls-1" d="M223.27,15.12c1.07-.18,2.48-.33,4.26-.33,2.2,0,3.8,.51,4.83,1.43,.94,.82,1.51,2.07,1.51,3.6s-.46,2.78-1.33,3.68c-1.17,1.25-3.09,1.89-5.26,1.89-.66,0-1.28-.03-1.79-.15v6.89h-2.22V15.12Zm2.22,8.3c.48,.13,1.1,.18,1.84,.18,2.68,0,4.31-1.3,4.31-3.68s-1.61-3.37-4.06-3.37c-.97,0-1.71,.08-2.09,.18v6.69Z"/>
    <path class="cls-1" d="M238.15,26.35c.05,3.04,1.99,4.29,4.24,4.29,1.61,0,2.58-.28,3.42-.64l.38,1.61c-.79,.36-2.14,.77-4.11,.77-3.8,0-6.08-2.5-6.08-6.23s2.2-6.66,5.79-6.66c4.03,0,5.11,3.55,5.11,5.82,0,.46-.05,.82-.08,1.05h-8.68Zm6.59-1.61c.03-1.43-.59-3.65-3.11-3.65-2.27,0-3.27,2.09-3.45,3.65h6.56Z"/>
    <path class="cls-1" d="M250.46,23.62c0-1.46-.03-2.71-.1-3.85h1.97l.08,2.42h.1c.56-1.66,1.91-2.71,3.42-2.71,.25,0,.43,.03,.64,.08v2.12c-.23-.05-.46-.08-.77-.08-1.58,0-2.71,1.2-3.01,2.88-.05,.31-.1,.66-.1,1.05v6.59h-2.22v-8.5Z"/>
    <path class="cls-1" d="M259.27,29.82c.66,.43,1.84,.89,2.96,.89,1.63,0,2.4-.82,2.4-1.84,0-1.07-.64-1.66-2.3-2.27-2.22-.79-3.27-2.02-3.27-3.5,0-1.99,1.61-3.62,4.26-3.62,1.25,0,2.35,.36,3.04,.77l-.56,1.63c-.49-.31-1.38-.71-2.53-.71-1.33,0-2.07,.77-2.07,1.69,0,1.02,.74,1.48,2.35,2.09,2.14,.82,3.24,1.89,3.24,3.73,0,2.17-1.68,3.7-4.62,3.7-1.35,0-2.6-.33-3.47-.84l.56-1.71Z"/>
    <path class="cls-1" d="M281.63,25.84c0,4.57-3.17,6.56-6.15,6.56-3.34,0-5.92-2.45-5.92-6.36,0-4.14,2.71-6.56,6.13-6.56s5.95,2.58,5.95,6.36Zm-9.8,.13c0,2.71,1.56,4.75,3.75,4.75s3.75-2.02,3.75-4.8c0-2.09-1.05-4.75-3.7-4.75s-3.8,2.45-3.8,4.8Z"/>
    <path class="cls-1" d="M285.24,23.11c0-1.28-.03-2.32-.1-3.34h1.99l.13,2.04h.05c.61-1.17,2.04-2.32,4.08-2.32,1.71,0,4.37,1.02,4.37,5.26v7.38h-2.25v-7.12c0-1.99-.74-3.65-2.86-3.65-1.48,0-2.63,1.05-3.01,2.3-.1,.28-.15,.66-.15,1.05v7.43h-2.25v-9.01Z"/>
    <path class="cls-1" d="M307.02,32.12l-.18-1.56h-.08c-.69,.97-2.02,1.84-3.78,1.84-2.5,0-3.78-1.76-3.78-3.55,0-2.99,2.66-4.62,7.43-4.59v-.26c0-1.02-.28-2.86-2.81-2.86-1.15,0-2.35,.36-3.22,.92l-.51-1.48c1.02-.66,2.5-1.1,4.06-1.1,3.78,0,4.7,2.58,4.7,5.05v4.62c0,1.07,.05,2.12,.2,2.96h-2.04Zm-.33-6.31c-2.45-.05-5.23,.38-5.23,2.78,0,1.46,.97,2.14,2.12,2.14,1.61,0,2.63-1.02,2.99-2.07,.08-.23,.13-.48,.13-.71v-2.14Z"/>
    <path class="cls-1" d="M312.94,29.82c.66,.43,1.84,.89,2.96,.89,1.63,0,2.4-.82,2.4-1.84,0-1.07-.64-1.66-2.3-2.27-2.22-.79-3.27-2.02-3.27-3.5,0-1.99,1.61-3.62,4.26-3.62,1.25,0,2.35,.36,3.04,.77l-.56,1.63c-.49-.31-1.38-.71-2.53-.71-1.33,0-2.07,.77-2.07,1.69,0,1.02,.74,1.48,2.35,2.09,2.14,.82,3.24,1.89,3.24,3.73,0,2.17-1.68,3.7-4.62,3.7-1.35,0-2.6-.33-3.47-.84l.56-1.71Z"/>
  </g>
  <line class="cls-2" x1="210" y1="-1.02" x2="210" y2="43.51"/>
</svg>