<?xml version="1.0" encoding="UTF-8"?>
<svg id="Layer_1" data-name="Layer 1" xmlns="http://www.w3.org/2000/svg" viewBox="0 0 172 40">
  <defs>
    <style>
      .cls-1 {
        fill: #1947a9;
      }
    </style>
  </defs>
  <g>
    <path class="cls-1" d="M24,32.66c0-1.95,1.06-3.18,2.63-3.18,.72,0,1.27,.36,1.6,.74l-.25,.29c-.33-.38-.78-.63-1.34-.63-1.35,0-2.18,1.07-2.18,2.78s.83,2.82,2.15,2.82c.64,0,1.11-.26,1.56-.76l.25,.27c-.47,.55-1.03,.88-1.83,.88-1.52,0-2.58-1.25-2.58-3.2Z"/>
    <path class="cls-1" d="M29.52,33.51c0-1.46,.95-2.36,1.96-2.36,1.06,0,1.72,.76,1.72,2.08,0,.11,0,.22-.02,.34h-3.22c.02,1.13,.68,1.94,1.69,1.94,.49,0,.87-.16,1.21-.4l.17,.31c-.35,.22-.76,.44-1.41,.44-1.14,0-2.07-.88-2.07-2.35Zm3.28-.29c0-1.14-.52-1.71-1.32-1.71-.76,0-1.44,.64-1.54,1.71h2.86Z"/>
    <path class="cls-1" d="M34.68,31.26h.35l.04,.84h.02c.3-.55,.74-.95,1.28-.95,.16,0,.3,.02,.45,.09l-.09,.37c-.15-.05-.23-.07-.41-.07-.4,0-.88,.31-1.22,1.15v3.05h-.41v-4.48Z"/>
    <path class="cls-1" d="M38.03,34.51v-2.89h-.7v-.32l.71-.04,.05-1.3h.35v1.3h1.3v.36h-1.3v2.92c0,.57,.14,.96,.76,.96,.17,0,.4-.07,.56-.14l.11,.33c-.26,.09-.55,.17-.73,.17-.86,0-1.11-.55-1.11-1.35Z"/>
    <path class="cls-1" d="M40.95,29.81c0-.23,.17-.37,.38-.37s.38,.13,.38,.37c0,.21-.17,.37-.38,.37s-.38-.15-.38-.37Zm.16,1.45h.41v4.48h-.41v-4.48Z"/>
    <path class="cls-1" d="M42.97,31.3l.62-.04h1.44v.36h-2.07v-.32Zm.62-1.04c0-.89,.4-1.35,1.11-1.35,.21,0,.45,.06,.65,.15l-.11,.34c-.18-.09-.37-.13-.53-.13-.48,0-.7,.37-.7,1.02v5.45h-.41v-5.48Z"/>
    <path class="cls-1" d="M46.1,29.81c0-.23,.17-.37,.38-.37s.38,.13,.38,.37c0,.21-.17,.37-.38,.37s-.38-.15-.38-.37Zm.16,1.45h.41v4.48h-.41v-4.48Z"/>
    <path class="cls-1" d="M48.3,33.51c0-1.5,.96-2.36,2.05-2.36,.61,0,1.01,.27,1.31,.55l-.24,.29c-.29-.27-.62-.48-1.06-.48-.92,0-1.62,.82-1.62,2s.64,1.98,1.62,1.98c.48,0,.89-.23,1.2-.52l.21,.29c-.38,.34-.86,.59-1.43,.59-1.16,0-2.03-.86-2.03-2.35Z"/>
    <path class="cls-1" d="M52.74,34.63c0-1,.9-1.47,2.89-1.69,.01-.69-.18-1.43-1.06-1.43-.61,0-1.13,.3-1.43,.53l-.19-.31c.32-.22,.94-.58,1.67-.58,1.06,0,1.42,.77,1.42,1.73v2.87h-.35l-.04-.58h-.02c-.46,.37-1,.7-1.59,.7-.71,0-1.3-.39-1.3-1.23Zm2.89,.15v-1.53c-1.84,.21-2.47,.64-2.47,1.36,0,.64,.44,.89,.95,.89s.97-.25,1.52-.72Z"/>
    <path class="cls-1" d="M57.54,33.51c0-1.5,.96-2.36,2.05-2.36,.61,0,1.01,.27,1.31,.55l-.24,.29c-.29-.27-.62-.48-1.06-.48-.92,0-1.62,.82-1.62,2s.64,1.98,1.62,1.98c.48,0,.89-.23,1.2-.52l.21,.29c-.38,.34-.86,.59-1.43,.59-1.16,0-2.03-.86-2.03-2.35Z"/>
    <path class="cls-1" d="M62.23,29.81c0-.23,.17-.37,.38-.37s.38,.13,.38,.37c0,.21-.17,.37-.38,.37s-.38-.15-.38-.37Zm.16,1.45h.41v4.48h-.41v-4.48Z"/>
    <path class="cls-1" d="M64.43,33.51c0-1.5,.94-2.36,2.01-2.36s2.01,.86,2.01,2.36-.94,2.35-2.01,2.35-2.01-.86-2.01-2.35Zm3.59,0c0-1.18-.67-2-1.58-2s-1.58,.82-1.58,2,.67,1.98,1.58,1.98,1.58-.8,1.58-1.98Z"/>
    <path class="cls-1" d="M70.08,31.26h.35l.04,.7h.02c.46-.46,.92-.81,1.54-.81,.93,0,1.36,.56,1.36,1.72v2.88h-.41v-2.82c0-.95-.3-1.4-1.02-1.4-.53,0-.92,.28-1.47,.84v3.38h-.41v-4.48Z"/>
    <path class="cls-1" d="M74.95,33.51c0-1.46,.95-2.36,1.96-2.36,1.06,0,1.72,.76,1.72,2.08,0,.11,0,.22-.02,.34h-3.22c.02,1.13,.68,1.94,1.69,1.94,.49,0,.87-.16,1.21-.4l.17,.31c-.35,.22-.76,.44-1.41,.44-1.14,0-2.07-.88-2.07-2.35Zm3.28-.29c0-1.14-.52-1.71-1.32-1.71-.76,0-1.44,.64-1.54,1.71h2.86Z"/>
    <path class="cls-1" d="M79.56,35.24l.24-.3c.38,.32,.79,.57,1.42,.57,.71,0,1.07-.41,1.07-.88,0-.56-.58-.81-1.1-1-.68-.24-1.43-.51-1.43-1.28,0-.65,.51-1.19,1.45-1.19,.48,0,.96,.2,1.28,.47l-.22,.3c-.3-.23-.62-.41-1.07-.41-.7,0-1.02,.4-1.02,.82,0,.51,.53,.71,1.06,.91,.69,.26,1.46,.49,1.46,1.37,0,.68-.54,1.26-1.51,1.26-.67,0-1.24-.28-1.64-.62Z"/>
  </g>
  <g>
    <path class="cls-1" d="M97,31.66c0-1.95,1.06-3.18,2.63-3.18,.72,0,1.27,.36,1.6,.74l-.25,.29c-.33-.38-.78-.63-1.34-.63-1.35,0-2.18,1.07-2.18,2.78s.83,2.82,2.15,2.82c.64,0,1.11-.26,1.56-.76l.25,.27c-.47,.55-1.03,.88-1.83,.88-1.52,0-2.58-1.25-2.58-3.2Z"/>
    <path class="cls-1" d="M102.52,32.51c0-1.5,.94-2.36,2.01-2.36s2.01,.86,2.01,2.36-.94,2.35-2.01,2.35-2.01-.86-2.01-2.35Zm3.59,0c0-1.18-.67-2-1.58-2s-1.58,.82-1.58,2,.67,1.98,1.58,1.98,1.58-.8,1.58-1.98Z"/>
    <path class="cls-1" d="M108.17,30.26h.35l.04,.7h.02c.46-.46,.92-.81,1.54-.81,.93,0,1.36,.56,1.36,1.72v2.88h-.41v-2.82c0-.95-.3-1.4-1.02-1.4-.53,0-.92,.28-1.47,.84v3.38h-.41v-4.48Z"/>
    <path class="cls-1" d="M113.52,33.51v-2.89h-.7v-.32l.71-.04,.05-1.3h.35v1.3h1.3v.36h-1.3v2.92c0,.57,.14,.96,.76,.96,.17,0,.4-.07,.56-.14l.11,.33c-.26,.09-.55,.17-.73,.17-.86,0-1.11-.55-1.11-1.35Z"/>
    <path class="cls-1" d="M116.08,33.63c0-1,.9-1.47,2.89-1.69,.01-.69-.18-1.43-1.06-1.43-.61,0-1.13,.3-1.43,.53l-.19-.31c.32-.22,.94-.58,1.67-.58,1.06,0,1.42,.77,1.42,1.73v2.87h-.35l-.04-.58h-.02c-.46,.37-1,.7-1.59,.7-.71,0-1.3-.39-1.3-1.23Zm2.89,.15v-1.53c-1.84,.21-2.47,.64-2.47,1.36,0,.64,.44,.89,.95,.89s.97-.25,1.52-.72Zm-1.55-4.6l1.26-1.47,.31,.27-1.34,1.41-.23-.21Z"/>
    <path class="cls-1" d="M120.88,32.51c0-1.5,.96-2.36,2.05-2.36,.61,0,1.01,.27,1.31,.55l-.24,.29c-.29-.27-.62-.48-1.06-.48-.92,0-1.62,.82-1.62,2s.64,1.98,1.62,1.98c.48,0,.89-.23,1.2-.52l.21,.29c-.38,.34-.86,.59-1.43,.59-1.16,0-2.03-.86-2.03-2.35Z"/>
    <path class="cls-1" d="M125.74,33.51v-2.89h-.7v-.32l.71-.04,.05-1.3h.35v1.3h1.3v.36h-1.3v2.92c0,.57,.14,.96,.76,.96,.17,0,.4-.07,.56-.14l.11,.33c-.26,.09-.55,.17-.73,.17-.86,0-1.11-.55-1.11-1.35Z"/>
    <path class="cls-1" d="M128.35,32.51c0-1.46,.95-2.36,1.96-2.36,1.06,0,1.72,.76,1.72,2.08,0,.11,0,.22-.02,.34h-3.22c.02,1.13,.68,1.94,1.69,1.94,.49,0,.87-.16,1.21-.4l.17,.31c-.35,.22-.76,.44-1.41,.44-1.14,0-2.07-.88-2.07-2.35Zm3.28-.29c0-1.14-.52-1.71-1.32-1.71-.76,0-1.44,.64-1.54,1.71h2.86Z"/>
    <path class="cls-1" d="M133.52,30.26h.35l.04,.7h.02c.46-.46,.92-.81,1.54-.81,.93,0,1.36,.56,1.36,1.72v2.88h-.41v-2.82c0-.95-.3-1.4-1.02-1.4-.53,0-.92,.28-1.47,.84v3.38h-.41v-4.48Z"/>
    <path class="cls-1" d="M138.38,32.51c0-1.5,.94-2.36,2.01-2.36s2.01,.86,2.01,2.36-.94,2.35-2.01,2.35-2.01-.86-2.01-2.35Zm3.59,0c0-1.18-.67-2-1.58-2s-1.58,.82-1.58,2,.67,1.98,1.58,1.98,1.58-.8,1.58-1.98Z"/>
    <path class="cls-1" d="M143.47,34.24l.24-.3c.38,.32,.79,.57,1.42,.57,.71,0,1.07-.41,1.07-.88,0-.56-.58-.81-1.1-1-.68-.24-1.43-.51-1.43-1.28,0-.65,.51-1.19,1.45-1.19,.48,0,.96,.2,1.28,.47l-.22,.3c-.3-.23-.62-.41-1.07-.41-.7,0-1.02,.4-1.02,.82,0,.51,.53,.71,1.06,.91,.69,.26,1.46,.49,1.46,1.37,0,.68-.54,1.26-1.51,1.26-.67,0-1.24-.28-1.64-.62Z"/>
  </g>
  <path class="cls-1" d="M121.22,4.69c4.65,0,8.43,3.78,8.43,8.43s-3.78,8.43-8.43,8.43-8.43-3.78-8.43-8.43,3.78-8.43,8.43-8.43Zm0-1.69c-5.58,0-10.11,4.53-10.11,10.11s4.53,10.11,10.11,10.11,10.11-4.53,10.11-10.11-4.53-10.11-10.11-10.11Zm0,4.84c.58,0,1.05,.47,1.05,1.05s-.47,1.05-1.05,1.05-1.05-.47-1.05-1.05,.47-1.05,1.05-1.05Zm1.59,10.13h-3.37v-.84c.41-.15,.84-.17,.84-.62v-3.76c0-.45-.43-.52-.84-.67v-.84h2.53v5.28c0,.45,.44,.47,.84,.62v.84Z"/>
  <path class="cls-1" d="M54,1.51c-3.86,0-7,3.13-7,7s3.14,7,7,7,7-3.13,7-7-3.14-7-7-7Zm0,12c-2.76,0-5-2.24-5-5s2.24-5,5-5,5,2.24,5,5-2.24,5-5,5Zm4,3.05v8.95l-3.96-3-4.04,3v-8.95c.63,.31,1.3,.56,2,.72v4.26l2.06-1.52,1.94,1.47v-4.21c.7-.16,1.37-.4,2-.72Zm-2.52-7.36l1.52-1.46-2.08-.29-.92-1.89-.92,1.89-2.08,.29,1.52,1.46-.37,2.07,1.85-.99,1.85,.99s-.37-2.07-.37-2.07Z"/>
</svg>